<svg width="80" height="80" viewBox="0 0 80 80" fill="none" xmlns="http://www.w3.org/2000/svg">
<path d="M70.9195 62.2005C70.9195 65.7161 57.4246 68.3336 40.9715 68.3336C24.5178 68.3336 11.3359 65.7161 11.3359 62.2005C11.3359 58.6843 24.674 55.833 41.1277 55.833C57.5808 55.8336 70.9195 58.6843 70.9195 62.2005Z" fill="#B8CBCD"/>
<path d="M3.46875 51.459C3.46875 55.1057 4.9174 58.6031 7.49602 61.1817C10.0746 63.7603 13.572 65.209 17.2187 65.209C20.8654 65.209 24.3628 63.7603 26.9414 61.1817C29.52 58.6031 30.9687 55.1057 30.9687 51.459C30.9687 47.8123 29.52 44.3149 26.9414 41.7363C24.3628 39.1576 20.8654 37.709 17.2187 37.709C13.572 37.709 10.0746 39.1576 7.49602 41.7363C4.9174 44.3149 3.46875 47.8123 3.46875 51.459Z" fill="#B2EDA6"/>
<path d="M17.2187 67.084C8.6031 67.084 1.59375 60.0746 1.59375 51.459C1.59375 42.8434 8.6031 35.834 17.2187 35.834C25.8343 35.834 32.8437 42.8434 32.8437 51.459C32.8437 60.0746 25.8343 67.084 17.2187 67.084ZM17.2187 39.584C10.6706 39.584 5.34374 44.9109 5.34374 51.459C5.34374 58.0071 10.6706 63.334 17.2187 63.334C23.7668 63.334 29.0937 58.0071 29.0937 51.459C29.0937 44.9109 23.7668 39.584 17.2187 39.584Z" fill="#3C663E"/>
<path d="M17.2187 63.334C8.94748 63.334 2.21875 56.6046 2.21875 48.334C2.21875 48.0025 2.35045 47.6845 2.58487 47.4501C2.81929 47.2157 3.13723 47.084 3.46875 47.084C3.80027 47.084 4.11821 47.2157 4.35263 47.4501C4.58705 47.6845 4.71874 48.0025 4.71874 48.334C4.71874 55.2265 10.3262 60.834 17.2187 60.834C24.1112 60.834 29.7187 55.2265 29.7187 48.334C29.7187 48.0025 29.8504 47.6845 30.0848 47.4501C30.3192 47.2157 30.6371 47.084 30.9687 47.084C31.3002 47.084 31.6181 47.2157 31.8525 47.4501C32.087 47.6845 32.2187 48.0025 32.2187 48.334C32.2187 56.6046 25.4899 63.334 17.2187 63.334Z" fill="#3C663E"/>
<path d="M48.4688 51.459C48.4688 55.1057 49.9174 58.6031 52.496 61.1817C55.0746 63.7603 58.572 65.209 62.2187 65.209C65.8654 65.209 69.3628 63.7603 71.9414 61.1817C74.52 58.6031 75.9687 55.1057 75.9687 51.459C75.9687 47.8123 74.52 44.3149 71.9414 41.7363C69.3628 39.1576 65.8654 37.709 62.2187 37.709C58.572 37.709 55.0746 39.1576 52.496 41.7363C49.9174 44.3149 48.4688 47.8123 48.4688 51.459Z" fill="#B2EDA6"/>
<path d="M62.2183 67.0834C53.6027 67.0834 46.5933 60.074 46.5933 51.4584C46.5933 42.8427 53.6027 35.8334 62.2183 35.8334C70.8339 35.8334 77.8432 42.8427 77.8432 51.4584C77.8432 60.074 70.8339 67.0834 62.2183 67.0834ZM62.2183 39.5834C55.6702 39.5834 50.3433 44.9102 50.3433 51.4584C50.3433 58.0065 55.6702 63.3334 62.2183 63.3334C68.7664 63.3334 74.0932 58.0065 74.0932 51.4584C74.0932 44.9102 68.7664 39.5834 62.2183 39.5834ZM39.0933 53.9584H16.5934C16.2617 53.9582 15.936 53.8701 15.6494 53.7029C15.3629 53.5358 15.1258 53.2957 14.9623 53.0071C14.7989 52.7184 14.7149 52.3916 14.7189 52.0599C14.7229 51.7282 14.8148 51.4036 14.9853 51.119L28.1102 29.244C28.2768 28.9664 28.5125 28.7368 28.7942 28.5773C29.0759 28.4178 29.394 28.334 29.7177 28.334H52.2177C52.5494 28.3341 52.8752 28.4222 53.1617 28.5893C53.4483 28.7564 53.6854 28.9965 53.8488 29.2852C54.0123 29.5739 54.0962 29.9008 54.092 30.2325C54.0879 30.5642 53.9958 30.8889 53.8252 31.1734L40.7002 53.0484C40.5338 53.3259 40.2983 53.5557 40.0167 53.7151C39.7351 53.8746 39.417 53.9584 39.0933 53.9584ZM19.9047 50.2084H38.0315L48.9064 32.0834H30.7802L19.9047 50.2084Z" fill="#3C663E"/>
<path d="M39.0947 53.959C38.7299 53.9591 38.3729 53.8528 38.0677 53.653C37.7624 53.4533 37.522 53.1689 37.3759 52.8346L24.251 22.8346C24.0516 22.379 24.0415 21.8629 24.2227 21.3998C24.4039 20.9367 24.7616 20.5645 25.2172 20.3652C25.6728 20.1659 26.1889 20.1557 26.652 20.3369C27.1151 20.5181 27.4873 20.8759 27.6866 21.3315L40.8115 51.3321C40.9364 51.6174 40.9883 51.9293 40.9624 52.2397C40.9366 52.55 40.8338 52.8491 40.6634 53.1098C40.493 53.3705 40.2604 53.5846 39.9865 53.7329C39.7126 53.8811 39.4061 53.9588 39.0947 53.959Z" fill="#3C663E"/>
<path d="M17.2188 16.459C17.2188 15.0784 20.7162 13.959 25.0312 13.959C29.3462 13.959 36.5937 15.0784 36.5937 16.459V20.834C36.5937 22.2146 29.3462 23.334 25.0312 23.334C20.7162 23.334 17.2188 22.2146 17.2188 20.834V16.459Z" fill="#B2EDA6"/>
<path d="M25.0312 25.209C20.5625 25.209 15.3438 24.0634 15.3438 20.834V16.459C15.3438 13.2296 20.5625 12.084 25.0312 12.084C27.3225 12.084 30.3662 12.3846 32.7849 12.8502C35.7368 13.4184 38.4687 14.2484 38.4687 16.459V20.834C38.4687 23.0446 35.7368 23.8746 32.7849 24.4427C30.3662 24.9084 27.3231 25.209 25.0312 25.209ZM19.0937 20.4071C19.7819 20.8346 21.8831 21.459 25.0312 21.459C28.5681 21.459 33.1724 20.7071 34.7187 20.0702V17.2221C33.1724 16.5852 28.5681 15.8334 25.0312 15.8334C21.8831 15.8334 19.7819 16.4571 19.0937 16.8852V20.4071Z" fill="#3C663E"/>
<path d="M25.0312 20.2084C20.5206 20.2084 15.9688 19.049 15.9688 16.4584C15.9679 16.1374 16.0906 15.8284 16.3113 15.5954C16.5321 15.3624 16.834 15.2232 17.1546 15.2067C17.4752 15.1903 17.7898 15.2977 18.0333 15.5069C18.2768 15.7161 18.4304 16.0109 18.4625 16.3303C18.845 16.7697 21.1056 17.7084 25.0312 17.7084C29.1543 17.7084 34.3499 16.7678 35.4124 16.0484C35.5092 15.769 35.7018 15.5329 35.9561 15.3821C36.2104 15.2313 36.51 15.1755 36.8016 15.2246C37.0931 15.2738 37.3578 15.4247 37.5486 15.6506C37.7394 15.8765 37.844 16.1627 37.8437 16.4584C37.8437 20.0472 25.1594 20.2084 25.0312 20.2084ZM62.2186 53.3334C54.5055 53.3334 50.3437 37.8772 50.3437 23.3334C50.3437 22.8361 50.5412 22.3592 50.8928 22.0076C51.2445 21.6559 51.7214 21.4584 52.2186 21.4584H64.0936C66.1036 21.4584 69.0936 22.9565 69.0936 27.0834C69.0936 28.904 68.3367 30.0122 67.7017 30.6209C65.9892 32.2628 63.3986 32.154 62.0061 32.0965C61.8442 32.0897 61.7042 32.0834 61.593 32.0834C61.0957 32.0834 60.6188 31.8859 60.2672 31.5342C59.9155 31.1826 59.718 30.7057 59.718 30.2084C59.718 29.7111 59.9155 29.2342 60.2672 28.8826C60.6188 28.5309 61.0957 28.3334 61.593 28.3334C61.7461 28.3334 61.9392 28.3409 62.1624 28.3497C62.8767 28.3797 64.5474 28.4497 65.1055 27.9147C65.1642 27.8578 65.343 27.6872 65.343 27.0834C65.343 25.344 64.3861 25.2084 64.093 25.2084H54.093C54.4386 40.3615 58.9574 49.5834 62.218 49.5834C62.7153 49.5833 63.1922 49.7808 63.5439 50.1324C63.8956 50.4839 64.0932 50.9608 64.0933 51.4581C64.0934 51.9554 63.8959 52.4323 63.5443 52.784C63.1928 53.1357 62.7159 53.3333 62.2186 53.3334Z" fill="#3C663E"/>
<path d="M35.3438 50.834C35.3438 51.9943 35.8047 53.1071 36.6252 53.9276C37.4456 54.748 38.5584 55.209 39.7187 55.209C40.8791 55.209 41.9919 54.748 42.8123 53.9276C43.6328 53.1071 44.0937 51.9943 44.0937 50.834C44.0937 49.6737 43.6328 48.5609 42.8123 47.7404C41.9919 46.9199 40.8791 46.459 39.7187 46.459C38.5584 46.459 37.4456 46.9199 36.6252 47.7404C35.8047 48.5609 35.3437 49.6737 35.3438 50.834Z" fill="#B2EDA6"/>
<path d="M39.7187 57.084C36.2725 57.084 33.4688 54.2802 33.4688 50.834C33.4688 47.3877 36.2725 44.584 39.7187 44.584C43.165 44.584 45.9687 47.3877 45.9687 50.834C45.9687 54.2802 43.165 57.084 39.7187 57.084ZM39.7187 48.334C38.34 48.334 37.2187 49.4552 37.2187 50.834C37.2187 52.2127 38.34 53.334 39.7187 53.334C41.0975 53.334 42.2187 52.2127 42.2187 50.834C42.2187 49.4552 41.0975 48.334 39.7187 48.334Z" fill="#3C663E"/>
<path d="M39.7187 63.334C39.2215 63.334 38.7446 63.1364 38.3929 62.7848C38.0413 62.4332 37.8438 61.9563 37.8438 61.459V55.209C37.8438 54.7117 38.0413 54.2348 38.3929 53.8832C38.7446 53.5315 39.2215 53.334 39.7187 53.334C40.216 53.334 40.6929 53.5315 41.0446 53.8832C41.3962 54.2348 41.5937 54.7117 41.5937 55.209V61.459C41.5937 61.9563 41.3962 62.4332 41.0446 62.7848C40.6929 63.1364 40.216 63.334 39.7187 63.334Z" fill="#3C663E"/>
<path d="M42.8437 63.334H36.5937C36.0965 63.334 35.6196 63.1364 35.2679 62.7848C34.9163 62.4332 34.7188 61.9563 34.7188 61.459C34.7188 60.9617 34.9163 60.4848 35.2679 60.1332C35.6196 59.7815 36.0965 59.584 36.5937 59.584H42.8437C43.341 59.584 43.8179 59.7815 44.1695 60.1332C44.5212 60.4848 44.7187 60.9617 44.7187 61.459C44.7187 61.9563 44.5212 62.4332 44.1695 62.7848C43.8179 63.1364 43.341 63.334 42.8437 63.334Z" fill="#3C663E"/>
<path d="M62.2187 63.334C53.9475 63.334 47.2188 56.6046 47.2188 48.334C47.2188 48.0025 47.3504 47.6845 47.5849 47.4501C47.8193 47.2157 48.1372 47.084 48.4687 47.084C48.8003 47.084 49.1182 47.2157 49.3526 47.4501C49.587 47.6845 49.7187 48.0025 49.7187 48.334C49.7187 55.2265 55.3262 60.834 62.2187 60.834C69.1112 60.834 74.7187 55.2265 74.7187 48.334C74.7187 48.0025 74.8504 47.6845 75.0848 47.4501C75.3192 47.2157 75.6371 47.084 75.9687 47.084C76.3002 47.084 76.6181 47.2157 76.8525 47.4501C77.087 47.6845 77.2187 48.0025 77.2187 48.334C77.2187 56.6046 70.4899 63.334 62.2187 63.334Z" fill="#3C663E"/>
</svg>
