<?xml version="1.0" standalone="no"?><!DOCTYPE svg PUBLIC "-//W3C//DTD SVG 1.1//EN" "http://www.w3.org/Graphics/SVG/1.1/DTD/svg11.dtd"><svg t="1680587537624" class="icon" viewBox="0 0 1024 1024" version="1.1" xmlns="http://www.w3.org/2000/svg" p-id="2423" xmlns:xlink="http://www.w3.org/1999/xlink" width="200" height="200"><path d="M907.744 796.168c0 45-172.736 78.504-383.336 78.504-210.608 0-379.336-33.504-379.336-78.504 0-45.008 170.728-81.504 381.336-81.504 210.6 0.008 381.336 36.496 381.336 81.504z" fill="#B8CBCD" p-id="2424"></path><path d="M220.408 658.672m-176 0a176 176 0 1 0 352 0 176 176 0 1 0-352 0Z" fill="#B2EDA6" p-id="2425"></path><path d="M220.408 858.672c-110.28 0-200-89.72-200-200s89.72-200 200-200 200 89.72 200 200-89.72 200-200 200z m0-352c-83.816 0-152 68.184-152 152s68.184 152 152 152 152-68.184 152-152-68.184-152-152-152z" fill="#3C663E" p-id="2426"></path><path d="M220.408 810.672c-105.872 0-192-86.136-192-192a16 16 0 0 1 32 0c0 88.224 71.776 160 160 160s160-71.776 160-160a16 16 0 0 1 32 0c0 105.864-86.128 192-192 192z" fill="#3C663E" p-id="2427"></path><path d="M796.408 658.672m-176 0a176 176 0 1 0 352 0 176 176 0 1 0-352 0Z" fill="#B2EDA6" p-id="2428"></path><path d="M796.408 858.672c-110.28 0-200-89.72-200-200s89.72-200 200-200 200 89.72 200 200-89.72 200-200 200z m0-352c-83.816 0-152 68.184-152 152s68.184 152 152 152 152-68.184 152-152-68.184-152-152-152zM500.408 690.672h-288a24.008 24.008 0 0 1-20.584-36.344l168-280a24 24 0 0 1 20.576-11.648h288a24 24 0 0 1 20.576 36.344l-168 280a23.976 23.976 0 0 1-20.568 11.648z m-245.616-48h232.024l139.2-232H394l-139.208 232z" fill="#3C663E" p-id="2429"></path><path d="M500.424 690.68a24 24 0 0 1-22-14.392l-168-384a24 24 0 0 1 43.976-19.24l168 384.008a24 24 0 0 1-21.976 33.624z" fill="#3C663E" p-id="2430"></path><path d="M220.408 210.672c0-17.672 44.768-32 100-32s148 14.328 148 32v56c0 17.672-92.768 32-148 32s-100-14.328-100-32v-56z" fill="#B2EDA6" p-id="2431"></path><path d="M320.408 322.672c-57.2 0-124-14.664-124-56v-56c0-41.336 66.8-56 124-56 29.328 0 68.288 3.848 99.248 9.808 37.784 7.272 72.752 17.896 72.752 46.192v56c0 28.296-34.968 38.92-72.752 46.192-30.96 5.96-69.912 9.808-99.248 9.808z m-76-61.464c8.808 5.472 35.704 13.464 76 13.464 45.272 0 104.208-9.624 124-17.776v-36.456c-19.792-8.152-78.728-17.776-124-17.776-40.296 0-67.192 7.984-76 13.464v45.08z" fill="#3C663E" p-id="2432"></path><path d="M320.408 258.672c-57.736 0-116-14.84-116-48a16 16 0 0 1 31.92-1.64c4.896 5.624 33.832 17.64 84.08 17.64 52.776 0 119.28-12.04 132.88-21.248a16 16 0 0 1 31.12 5.248c0 45.936-162.36 48-164 48zM796.408 682.672c-98.728 0-152-197.84-152-384a24 24 0 0 1 24-24h152c25.728 0 64 19.176 64 72 0 23.304-9.688 37.488-17.816 45.28-21.92 21.016-55.08 19.624-72.904 18.888-2.072-0.088-3.864-0.168-5.288-0.168a24 24 0 1 1 0-48c1.96 0 4.432 0.096 7.288 0.208 9.144 0.384 30.528 1.28 37.672-5.568 0.752-0.728 3.04-2.912 3.04-10.64 0-22.264-12.248-24-16-24h-128c4.424 193.96 62.264 312 104 312a24 24 0 0 1 0.008 48z" fill="#3C663E" p-id="2433"></path><path d="M508.408 650.672m-56 0a56 56 0 1 0 112 0 56 56 0 1 0-112 0Z" fill="#B2EDA6" p-id="2434"></path><path d="M508.408 730.672c-44.112 0-80-35.888-80-80s35.888-80 80-80 80 35.888 80 80-35.888 80-80 80z m0-112c-17.648 0-32 14.352-32 32s14.352 32 32 32 32-14.352 32-32-14.352-32-32-32z" fill="#3C663E" p-id="2435"></path><path d="M508.408 810.672a24 24 0 0 1-24-24v-80a24 24 0 1 1 48 0v80a24 24 0 0 1-24 24z" fill="#3C663E" p-id="2436"></path><path d="M548.408 810.672h-80a24 24 0 1 1 0-48h80a24 24 0 1 1 0 48z" fill="#3C663E" p-id="2437"></path><path d="M796.408 810.672c-105.872 0-192-86.136-192-192a16 16 0 0 1 32 0c0 88.224 71.776 160 160 160s160-71.776 160-160a16 16 0 0 1 32 0c0 105.864-86.128 192-192 192z" fill="#3C663E" p-id="2438"></path></svg>