<svg width="25" height="24" viewBox="0 0 25 24" fill="none" xmlns="http://www.w3.org/2000/svg">
<g clip-path="url(#clip0_11907_2521)">
<mask id="mask0_11907_2521" style="mask-type:luminance" maskUnits="userSpaceOnUse" x="1" y="0" width="24" height="24">
<path d="M25 0H1V24H25V0Z" fill="white"/>
</mask>
<g mask="url(#mask0_11907_2521)">
<path d="M25 12C25 18.6269 19.6269 24 13 24C6.37313 24 1 18.6269 1 12C1 5.37313 6.37313 0 13 0C19.6269 0 25 5.37313 25 12Z" fill="#FF3131"/>
</g>
<mask id="mask1_11907_2521" style="mask-type:luminance" maskUnits="userSpaceOnUse" x="1" y="5" width="24" height="19">
<path d="M24.6729 5.52539H1.31445V23.9992H24.6729V5.52539Z" fill="white"/>
</mask>
<g mask="url(#mask1_11907_2521)">
<path d="M24.6768 14.7802C23.4231 20.0654 18.672 23.9992 13.0025 23.9992C7.33301 23.9992 2.58186 20.0654 1.32812 14.7802C2.5786 9.49498 7.32975 5.56445 12.9992 5.56445C18.6687 5.56445 23.4198 9.49498 24.6768 14.7802Z" fill="#FF914D"/>
</g>
<mask id="mask2_11907_2521" style="mask-type:luminance" maskUnits="userSpaceOnUse" x="2" y="11" width="22" height="13">
<path d="M23.5021 11.6484H2.48828V24.0001H23.5021V11.6484Z" fill="white"/>
</mask>
<g mask="url(#mask2_11907_2521)">
<path d="M23.4878 17.8327C21.4362 21.5125 17.509 24.0005 12.9988 24.0005C8.4886 24.0005 4.56133 21.5125 2.50977 17.8327C4.56133 14.153 8.4886 11.665 12.9988 11.665C17.509 11.6683 21.4395 14.1562 23.4878 17.8327Z" fill="#FFBD59"/>
</g>
<mask id="mask3_11907_2521" style="mask-type:luminance" maskUnits="userSpaceOnUse" x="4" y="17" width="18" height="7">
<path d="M21.3735 17.2485H4.6582V23.9991H21.3735V17.2485Z" fill="white"/>
</mask>
<g mask="url(#mask3_11907_2521)">
<path d="M12.9986 17.2651C16.2355 17.2651 19.1761 18.5482 21.3319 20.6323C19.1728 22.7164 16.2355 23.9995 12.9986 23.9995C9.7617 23.9995 6.82113 22.7164 4.66211 20.6323C6.82439 18.5482 9.7617 17.2651 12.9986 17.2651Z" fill="#FFDE59"/>
</g>
<path d="M11.0681 4.96289V8.74037C10.6122 8.53195 10.1075 8.41472 9.5734 8.41472C9.12401 8.41472 8.69416 8.49939 8.29688 8.64919V4.96289H11.0681Z" fill="black"/>
<path d="M8.29688 15.3443V19.0306H11.0681V15.2563C10.6122 15.468 10.1075 15.582 9.5734 15.582C9.12401 15.5787 8.69416 15.4973 8.29688 15.3443Z" fill="black"/>
<mask id="mask4_11907_2521" style="mask-type:luminance" maskUnits="userSpaceOnUse" x="7" y="9" width="5" height="6">
<path d="M11.7386 9.8252H7.43359V14.166H11.7386V9.8252Z" fill="white"/>
</mask>
<g mask="url(#mask4_11907_2521)">
<path d="M9.87788 9.87696C9.78019 9.86068 9.67924 9.85742 9.57829 9.85742C8.39294 9.85742 7.43555 10.8148 7.43555 11.9969C7.43555 12.5538 7.64722 13.065 7.99891 13.446C8.39294 13.8726 8.95305 14.1396 9.57503 14.1396C10.7571 14.1396 11.7145 13.1823 11.7145 12.0002C11.7145 10.9158 10.9134 10.0268 9.87788 9.87696Z" fill="black"/>
</g>
<mask id="mask5_11907_2521" style="mask-type:luminance" maskUnits="userSpaceOnUse" x="11" y="4" width="10" height="16">
<path d="M20.26 4.96338H11.041V19.0312H20.26V4.96338Z" fill="white"/>
</mask>
<g mask="url(#mask5_11907_2521)">
<path d="M19.8373 9.62954C19.5573 8.76332 19.1144 7.97852 18.5087 7.27838C17.903 6.57825 17.1052 6.01488 16.1087 5.5948C15.1155 5.17472 13.9138 4.96631 12.4973 4.96631H11.0645V7.62357H13.3212C13.6403 7.62357 14.0278 7.68218 14.487 7.80593C14.9461 7.92642 15.3955 8.14786 15.8351 8.46699C16.2715 8.78612 16.646 9.23551 16.9423 9.81516C17.2419 10.3948 17.3917 11.1438 17.3917 12.0588C17.3917 12.7622 17.281 13.381 17.0596 13.9215C16.8381 14.4654 16.5157 14.9115 16.1022 15.2697C15.6886 15.6279 15.1936 15.8982 14.6205 16.0838C14.0474 16.2694 13.4123 16.3606 12.709 16.3606H11.0645V19.0309H13.1844C14.1418 19.0309 15.0438 18.8746 15.9003 18.562C16.7535 18.2493 17.5057 17.7967 18.157 17.204C18.8083 16.6114 19.3195 15.8982 19.694 15.0645C20.0685 14.2309 20.2574 13.2898 20.2574 12.2445C20.2574 11.3685 20.1174 10.4925 19.8373 9.62954Z" fill="black"/>
</g>
</g>
<defs>
<clipPath id="clip0_11907_2521">
<rect width="23.9999" height="24" fill="white" transform="translate(0.998047)"/>
</clipPath>
</defs>
</svg>
