<?xml version="1.0" encoding="utf-8"?>
<!-- Generator: Adobe Illustrator 26.5.0, SVG Export Plug-In . SVG Version: 6.00 Build 0)  -->
<svg version="1.1" id="Layer_1" xmlns="http://www.w3.org/2000/svg" xmlns:xlink="http://www.w3.org/1999/xlink" x="0px" y="0px"
	 viewBox="0 0 1080 1080" style="enable-background:new 0 0 1080 1080;" xml:space="preserve">
<style type="text/css">
	.st0{clip-path:url(#SVGID_00000174594253972552649560000014550841676666280841_);}
	.st1{fill:#FF3131;}
	.st2{clip-path:url(#SVGID_00000094606395648278727500000015965764188577314945_);}
	.st3{fill:#FF914D;}
	.st4{clip-path:url(#SVGID_00000052782494094098908950000017492750616928450180_);}
	.st5{fill:#FFBD59;}
	.st6{clip-path:url(#SVGID_00000077287295379678062000000017217371897915653296_);}
	.st7{fill:#FFDE59;}
	.st8{clip-path:url(#SVGID_00000080176052637427286990000006387700476669277086_);}
	.st9{clip-path:url(#SVGID_00000147918591565671160780000007676273038045210545_);}
</style>
<g>
	<defs>
		<rect id="SVGID_1_" x="171.6" y="171.6" width="737" height="737"/>
	</defs>
	<clipPath id="SVGID_00000146464478531033120920000016441521027696185262_">
		<use xlink:href="#SVGID_1_"  style="overflow:visible;"/>
	</clipPath>
	<g style="clip-path:url(#SVGID_00000146464478531033120920000016441521027696185262_);">
		<path class="st1" d="M908.6,540.1c0,203.5-165,368.5-368.5,368.5s-368.5-165-368.5-368.5s165-368.5,368.5-368.5
			S908.6,336.6,908.6,540.1z"/>
	</g>
</g>
<g>
	<defs>
		<rect id="SVGID_00000036937644715808777490000007985002583186425234_" x="181.3" y="341.3" width="717.3" height="567.3"/>
	</defs>
	<clipPath id="SVGID_00000070817839352108467510000016314826324250038157_">
		<use xlink:href="#SVGID_00000036937644715808777490000007985002583186425234_"  style="overflow:visible;"/>
	</clipPath>
	<g style="clip-path:url(#SVGID_00000070817839352108467510000016314826324250038157_);">
		<path class="st3" d="M898.7,625.5c-38.5,162.3-184.4,283.1-358.5,283.1c-174.1,0-320-120.8-358.5-283.1
			C220.1,463.2,366,342.5,540.1,342.5C714.2,342.5,860.1,463.2,898.7,625.5z"/>
	</g>
</g>
<g>
	<defs>
		<rect id="SVGID_00000019675516619791538580000015854637239552424614_" x="217.3" y="529.3" width="645.3" height="379.3"/>
	</defs>
	<clipPath id="SVGID_00000123400558530870082840000005705818721136836500_">
		<use xlink:href="#SVGID_00000019675516619791538580000015854637239552424614_"  style="overflow:visible;"/>
	</clipPath>
	<g style="clip-path:url(#SVGID_00000123400558530870082840000005705818721136836500_);">
		<path class="st5" d="M862.2,719.2c-63,113-183.6,189.4-322.1,189.4c-138.5,0-259.1-76.4-322.1-189.4
			c63-113,183.6-189.4,322.1-189.4C678.6,529.9,799.3,606.3,862.2,719.2z"/>
	</g>
</g>
<g>
	<defs>
		<rect id="SVGID_00000056424310459968838550000017967624798042514064_" x="284" y="701.3" width="513.3" height="207.3"/>
	</defs>
	<clipPath id="SVGID_00000001626929525580310380000004987470763381325471_">
		<use xlink:href="#SVGID_00000056424310459968838550000017967624798042514064_"  style="overflow:visible;"/>
	</clipPath>
	<g style="clip-path:url(#SVGID_00000001626929525580310380000004987470763381325471_);">
		<path class="st7" d="M540.1,701.8c99.4,0,189.7,39.4,255.9,103.4c-66.3,64-156.5,103.4-255.9,103.4s-189.7-39.4-256-103.4
			C350.5,741.2,440.7,701.8,540.1,701.8z"/>
	</g>
</g>
<path d="M480.8,324v116c-14-6.4-29.5-10-45.9-10c-13.8,0-27,2.6-39.2,7.2V324H480.8z"/>
<path d="M395.7,642.8V756h85.1V640.1c-14,6.5-29.5,10-45.9,10C421.1,650,407.9,647.5,395.7,642.8z"/>
<g>
	<defs>
		<rect id="SVGID_00000026860684718523091330000001828139807774762428_" x="369.1" y="473.3" width="132.2" height="133.3"/>
	</defs>
	<clipPath id="SVGID_00000127009351920981913260000015299016263567239063_">
		<use xlink:href="#SVGID_00000026860684718523091330000001828139807774762428_"  style="overflow:visible;"/>
	</clipPath>
	<g style="clip-path:url(#SVGID_00000127009351920981913260000015299016263567239063_);">
		<path d="M444.2,474.9c-3-0.5-6.1-0.6-9.2-0.6c-36.4,0-65.8,29.4-65.8,65.7c0,17.1,6.5,32.8,17.3,44.5
			c12.1,13.1,29.3,21.3,48.4,21.3c36.3,0,65.7-29.4,65.7-65.7C500.6,506.8,476,479.5,444.2,474.9z"/>
	</g>
</g>
<g>
	<defs>
		<rect id="SVGID_00000016052768809877310550000015300226921410004117_" x="480" y="324" width="283.1" height="432"/>
	</defs>
	<clipPath id="SVGID_00000064355849205411989050000009919848733522035881_">
		<use xlink:href="#SVGID_00000016052768809877310550000015300226921410004117_"  style="overflow:visible;"/>
	</clipPath>
	<g style="clip-path:url(#SVGID_00000064355849205411989050000009919848733522035881_);">
		<path d="M750.1,467.3c-8.6-26.6-22.2-50.7-40.8-72.2s-43.1-38.8-73.7-51.7c-30.5-12.9-67.4-19.3-110.9-19.3h-44v81.6H550
			c9.8,0,21.7,1.8,35.8,5.6c14.1,3.7,27.9,10.5,41.4,20.3c13.4,9.8,24.9,23.6,34,41.4c9.2,17.8,13.8,40.8,13.8,68.9
			c0,21.6-3.4,40.6-10.2,57.2c-6.8,16.7-16.7,30.4-29.4,41.4c-12.7,11-27.9,19.3-45.5,25c-17.6,5.7-37.1,8.5-58.7,8.5h-50.5V756
			h65.1c29.4,0,57.1-4.8,83.4-14.4c26.2-9.6,49.3-23.5,69.3-41.7c20-18.2,35.7-40.1,47.2-65.7c11.5-25.6,17.3-54.5,17.3-86.6
			C763,520.7,758.7,493.8,750.1,467.3z"/>
	</g>
</g>
</svg>
