<svg width="25" height="24" viewBox="0 0 25 24" fill="none" xmlns="http://www.w3.org/2000/svg">
<g clip-path="url(#clip0_11907_157)">
<path d="M13 24C19.6274 24 25 18.6274 25 12C25 5.37258 19.6274 0 13 0C6.37258 0 1 5.37258 1 12C1 18.6274 6.37258 24 13 24Z" fill="#988430"/>
<path d="M13.0004 23.6155C19.4155 23.6155 24.616 18.415 24.616 11.9999C24.616 5.58477 19.4155 0.384277 13.0004 0.384277C6.58525 0.384277 1.38477 5.58477 1.38477 11.9999C1.38477 18.415 6.58525 23.6155 13.0004 23.6155Z" fill="#7A6A2A"/>
<path d="M12.9998 23.3707C19.2798 23.3707 24.3707 18.2798 24.3707 11.9998C24.3707 5.71982 19.2798 0.628906 12.9998 0.628906C6.71982 0.628906 1.62891 5.71982 1.62891 11.9998C1.62891 18.2798 6.71982 23.3707 12.9998 23.3707Z" fill="#BA9F33"/>
<path fill-rule="evenodd" clip-rule="evenodd" d="M6.24683 10.7185C6.17886 10.6564 6.10705 10.5942 6.041 10.5321C5.97496 10.47 5.90712 10.4078 5.83915 10.3457L5.63717 10.1537C5.60414 10.1207 5.5692 10.0917 5.53617 10.0585C5.50315 10.0294 5.46436 9.99642 5.43134 9.96724C5.16331 9.7129 4.89374 9.45857 4.62942 9.2041C4.90321 9.4546 5.17125 9.7033 5.44504 9.95751L5.54014 10.0527C5.57316 10.0856 5.60811 10.1148 5.64113 10.1478L5.84299 10.3342C5.91096 10.3963 5.977 10.4585 6.04497 10.5262C6.11294 10.5939 6.17899 10.6563 6.24696 10.7182L6.24683 10.7185ZM2.68958 10.6801C2.68958 10.6801 3.6643 10.7809 4.14008 10.8489C4.58078 10.9111 5.95947 11.1227 5.95947 11.1227L2.68958 10.6801ZM2.68958 10.6801C2.96337 10.7034 3.23717 10.7324 3.51096 10.7616C3.65073 10.7752 3.78475 10.7907 3.91877 10.8042L4.12446 10.8277C4.19243 10.8373 4.25848 10.847 4.32644 10.8567L5.14206 10.9868L5.54974 11.0547C5.68376 11.078 5.81777 11.1034 5.95755 11.1267C5.82353 11.1131 5.68376 11.0936 5.54974 11.0742L5.14206 11.0159L4.32644 10.8956C4.25848 10.8859 4.19243 10.8722 4.12446 10.8626L3.91864 10.8389C3.78462 10.8253 3.64485 10.8059 3.51083 10.7903C3.23704 10.7574 2.96325 10.7223 2.68945 10.6797L2.68958 10.6801ZM5.86244 11.3766C5.86244 11.3766 4.82168 11.6408 4.47019 11.7418C4.12459 11.8369 3.07793 12.1554 3.07793 12.1554L5.86232 11.3768L5.86244 11.3766Z" fill="#CFB66C"/>
<path fill-rule="evenodd" clip-rule="evenodd" d="M5.86251 11.3765C5.63147 11.4444 5.40171 11.5105 5.16735 11.5727L4.47218 11.7591C4.24114 11.827 4.01138 11.8931 3.78098 11.961L3.43538 12.0561C3.32082 12.0892 3.20434 12.1182 3.08594 12.1514C3.20037 12.113 3.31698 12.0737 3.43154 12.0407L3.77714 11.9301C4.00818 11.8581 4.23794 11.7902 4.46834 11.7184C4.70322 11.6601 4.93439 11.5979 5.16927 11.5416C5.3925 11.4853 5.62751 11.4291 5.86251 11.3766V11.3765ZM3.22379 12.796C3.33823 12.7532 4.65867 12.1378 4.96549 11.9941C5.11909 11.9221 5.56555 11.7637 5.56555 11.7637L3.22379 12.796Z" fill="#CFB66C"/>
<path fill-rule="evenodd" clip-rule="evenodd" d="M3.22278 12.7962C3.32365 12.7578 3.41888 12.7108 3.5159 12.6662L3.80326 12.5322L4.38003 12.2545C4.57203 12.1633 4.75866 12.0625 4.95667 11.9768C5.05766 11.9341 5.15866 11.8992 5.25952 11.8662L5.41312 11.8177C5.46547 11.8041 5.51411 11.7885 5.56672 11.7749C5.37472 11.8662 5.17261 11.9439 4.98035 12.0331C4.78835 12.1283 4.592 12.206 4.39386 12.2914L3.80749 12.5496C3.61062 12.6293 3.41862 12.7147 3.22266 12.7962H3.22278ZM3.35078 13.3338C3.35078 13.3338 4.54682 12.6329 4.95846 12.4076C5.17402 12.2873 5.8711 11.9416 5.8711 11.9416L3.35078 13.3338Z" fill="#CFB66C"/>
<path fill-rule="evenodd" clip-rule="evenodd" d="M3.35156 13.3341C3.55342 13.2098 3.75924 13.0836 3.96507 12.9555L4.27227 12.769C4.3771 12.7069 4.47809 12.6486 4.58497 12.5866C4.6898 12.5244 4.79079 12.4623 4.89755 12.404C4.94837 12.3727 5.00161 12.3454 5.05678 12.3225L5.21985 12.241C5.4354 12.1361 5.65095 12.0293 5.87815 11.938C5.67233 12.0682 5.46062 12.1789 5.24903 12.2933C5.1442 12.3516 5.03732 12.404 4.93249 12.4623C4.82766 12.5205 4.72667 12.5827 4.61979 12.639C4.51495 12.7011 4.41396 12.7594 4.30721 12.8157L3.99067 12.9885L3.35182 13.3341H3.35156ZM5.86215 12.0952C5.86215 12.0952 5.11847 12.6661 4.87771 12.8486C4.63694 13.0311 3.9282 13.5437 3.9282 13.5437L5.86215 12.0952Z" fill="#CFB66C"/>
<path fill-rule="evenodd" clip-rule="evenodd" d="M10.1305 16.6988L9.75 15.9784L9.97131 15.0774L11.5499 14.4677L10.8781 13.0892L11.2101 11.6969L11.8335 10.4502L13.7597 10.1474L15.1752 8.79785L18.2315 9.02889L18.8315 12.2969L17.6761 16.4114L17.018 18.5416L14.3499 18.6426L13.1112 17.7843L11.6607 17.1784L10.1305 16.6988Z" fill="#E2CC85"/>
<path fill-rule="evenodd" clip-rule="evenodd" d="M14.81 16.6755C14.81 16.6755 14.441 16.8445 13.8116 16.8055C13.6295 16.5609 12.3538 16.4464 12.3538 16.4464C12.3538 16.4464 12.1946 16.3979 11.913 16.5143C11.6296 16.6295 11.3616 16.6153 11.1111 16.6774C10.8606 16.7395 10.6119 16.4133 10.4199 16.3454C10.2279 16.2736 9.97327 16.1008 9.97327 16.1008L9.43567 16.0483L8.35611 15.592L6.64104 13.8833L6.17499 14.6129L6.03125 15.5158L6.54978 16.5858L7.94587 17.8576L10.6682 18.5488L12.2817 18.0734L14.3031 17.219L14.81 16.6754V16.6755Z" fill="#F1D789"/>
<path fill-rule="evenodd" clip-rule="evenodd" d="M5.13719 10.6368L5.48279 9.59027L5.89456 8.91443L7.22064 8.80371L6.82256 9.96493L5.71395 11.9378L6.17411 13.6989L5.35863 14.1066L5.108 13.7222L4.90615 12.8407L4.89258 11.8504L5.13719 10.6368Z" fill="#F4ECB4"/>
<path fill-rule="evenodd" clip-rule="evenodd" d="M6.62513 16.604L6.37079 16.2487C6.37079 16.2487 6.30282 16.0797 6.34174 15.9321C6.38014 15.7826 6.37463 15.7729 6.3553 15.7166C6.33598 15.6602 6.17278 15.4661 6.1825 15.299C6.1921 15.1301 6.16894 15.0738 6.2931 14.9399C6.42314 14.8098 6.38436 14.5845 6.38436 14.5845L6.55332 14.6894L6.59172 14.6311C6.59172 14.6311 6.6538 14.6796 6.6538 14.7554C6.66737 14.6506 6.61105 14.1651 6.73918 14.0545C6.8673 13.9439 7.0945 14.5729 7.0945 14.5729L6.95473 13.6602L6.59543 12.7244L5.95658 11.87L5.91818 10.9282V10.8467C5.91818 10.8467 5.62494 11.2972 5.5434 11.6531C5.48516 11.8977 5.62494 12.1948 5.59588 12.5463C5.57246 12.8958 5.5434 12.8686 5.62878 13.0071C5.71415 13.1456 5.92202 13.4304 5.84049 13.6362C5.76868 13.813 5.52394 13.6887 5.52394 13.6887C5.52394 13.6887 5.47543 13.8323 5.40938 13.8848C5.38609 13.7994 5.36087 13.745 5.31428 13.6928C5.31031 13.7258 5.30071 13.7705 5.30071 13.7705C5.30071 13.7705 5.25796 13.6364 5.21521 13.4675C5.1571 13.2423 5.09489 12.9452 5.03857 12.786C5.01527 12.8773 4.95703 13.1549 4.95703 13.1549L4.99006 13.5822L5.14929 14.1685L5.30289 14.5525L5.45239 15.0224L5.58231 15.3381L5.68714 15.5788L5.77841 16.1207L6.21911 16.5866L6.45412 16.6915L6.62487 16.6041L6.62513 16.604Z" fill="#F3E19D"/>
<path fill-rule="evenodd" clip-rule="evenodd" d="M5.36828 9.78229C5.36828 9.78229 5.05173 10.3199 4.96059 10.8618C4.86946 11.4038 4.78779 11.9765 4.84539 12.7143C4.90363 13.4581 5.01435 13.9143 5.1037 14.2405C5.2573 14.7824 5.65512 15.5358 5.65512 15.5358L5.66869 15.5066C5.60182 15.3798 5.54845 15.2464 5.50946 15.1085C5.45698 14.9027 5.43752 14.6581 5.38901 14.5473C5.34626 14.4368 5.27445 14.3415 5.23951 14.2056C5.20648 14.0755 5.20111 13.8697 5.09973 13.7164C5.05698 13.6542 5.0045 13.4911 4.98901 13.328C4.96956 13.0833 4.99874 12.8095 4.97544 12.5843C4.93269 12.2096 4.90363 11.9552 4.94242 11.759C4.9812 11.5628 5.18331 11.0057 5.3076 10.563C5.38914 10.2794 5.3405 10.0406 5.49 9.79394C5.63951 9.54933 5.7309 9.33378 5.7638 9.18427C5.8022 9.04834 5.36776 9.78229 5.36776 9.78229H5.36828Z" fill="#F2E8B0"/>
<path fill-rule="evenodd" clip-rule="evenodd" d="M6.87045 9.56689C6.87045 9.56689 6.70738 9.61553 6.62968 9.70091C6.55199 9.78245 6.51896 9.85042 6.41413 9.98827C6.3093 10.1261 6.30341 10.2388 6.21791 10.4116C6.13253 10.5805 5.94412 10.8349 5.92082 10.9261C5.89752 11.0174 5.85874 11.4445 5.81023 11.6465C5.76748 11.8485 5.85874 12.0971 5.85874 12.0971L5.96933 12.0736C5.96933 12.0736 5.96933 12.2174 6.08005 12.3145C6.19064 12.4096 6.2101 11.9921 6.2101 11.9921L6.62367 10.596L7.2469 10.1727L7.31487 9.83096L6.8702 9.56689H6.87045Z" fill="#F5EEC0"/>
<path fill-rule="evenodd" clip-rule="evenodd" d="M7.17363 10.2C7.17363 10.2 6.88038 10.2193 6.73677 10.3243C6.67853 10.3669 6.65523 10.4019 6.59315 10.4543C6.47859 10.5495 6.36198 10.6369 6.30579 10.7615C6.24358 10.8857 6.17562 11.0741 6.12902 11.4295C6.10957 11.579 6.10957 11.7168 6.096 11.8373C6.07654 12.0003 6.04749 12.1304 6.06298 12.2213C6.08243 12.4076 6.27469 12.5048 6.29338 12.7164L6.69145 12.5145L7.06624 11.0367L7.8624 10.5375L7.41184 10.0327L7.17312 10.1991L7.17363 10.2Z" fill="#E6DB9D"/>
<path fill-rule="evenodd" clip-rule="evenodd" d="M5.07239 20.1511C5.07406 20.1365 5.07572 20.1219 5.07739 20.107C5.1355 19.6078 5.14535 19.2294 5.18798 18.9925C5.25006 18.6566 5.29281 18.5317 5.28308 18.406C5.26951 18.2041 5.25403 18.0565 5.27348 17.9011C5.30254 17.6953 5.50452 17.4507 5.49876 17.2818C5.49479 17.1477 5.42683 17.0604 5.36859 16.9789C5.31035 16.8974 5.26375 16.8294 5.26375 16.8294C5.26375 16.8294 5.66183 16.5556 5.65799 15.4526C5.66612 15.4549 5.67394 15.4582 5.68129 15.4624L5.87739 16.0195L6.0114 16.1826L6.52596 17.1419L7.18811 17.7847L8.16667 18.4428L8.7803 19.1106L8.84238 20.8912L8.04046 21.932L7.90913 22.1698C6.86576 21.646 5.909 20.9652 5.07227 20.151L5.07239 20.1511Z" fill="#E5CB7A"/>
<path fill-rule="evenodd" clip-rule="evenodd" d="M7.52148 21.8545C7.52148 21.8545 7.53505 21.6332 7.71758 21.4895C7.74676 21.538 7.76609 21.5847 7.76033 21.6195C7.79336 21.5614 8.0244 21.1886 8.54676 21.0914C9.06913 20.9963 9.19534 20.6158 9.19534 20.6158L10.3039 19.608L11.5719 18.441L13.1137 17.8992L13.8342 17.7224C13.8342 17.7224 13.8478 17.7749 13.8206 17.8914C13.9545 17.8818 14.2516 17.8138 14.5603 17.705C14.6846 17.6565 14.8012 17.6371 14.8633 17.7012C14.9546 17.7866 14.9681 17.9886 14.9739 18.1089C15.1234 18.0758 15.2962 17.9322 15.4347 17.9458C15.6561 17.9691 15.8522 18.2293 16.0775 18.2293C16.3746 18.2293 16.5085 18.0468 16.7164 17.903C16.8407 17.8177 17.0192 17.711 17.1202 17.639C17.361 17.4622 19.9086 16.6836 19.9086 16.6836L20.8017 16.7418L20.9455 17.7011L20.8687 20.2086C20.8592 20.2177 20.8497 20.2271 20.8401 20.2362L16.779 22.3573L11.1495 23.2203C9.8885 23.0143 8.6716 22.5957 7.55067 21.9824L7.52187 21.8544L7.52148 21.8545Z" fill="#D8C173"/>
<path fill-rule="evenodd" clip-rule="evenodd" d="M5.41406 20.47C5.49406 20.3027 5.566 20.1628 5.57867 20.1128C5.58865 20.2137 5.60696 20.435 5.64382 20.6702C5.56642 20.6044 5.48984 20.5377 5.41406 20.4699V20.47Z" fill="#F1D789"/>
<path fill-rule="evenodd" clip-rule="evenodd" d="M9.52629 22.8298L10.2544 22.6273L10.3164 22.6468C10.3164 22.6468 10.3495 22.6662 10.3495 22.7321C10.4407 22.6798 10.5184 22.6894 10.5747 22.6546C10.6038 22.7166 10.6328 22.9225 10.7611 22.9477C10.895 22.9769 11.0387 22.8894 11.1844 22.7788C11.328 22.6643 11.4916 22.5205 11.6154 22.4623C11.6608 22.5458 11.701 22.632 11.7358 22.7205C11.8989 22.5904 12.1824 22.0623 12.5863 22.0719C12.703 21.7961 12.898 21.5605 13.1472 21.3943C13.5219 21.1399 13.7568 21.1205 14.0501 21.1438C14.1665 20.9925 14.3101 20.8641 14.4734 20.7652C14.5219 20.7846 14.6559 20.8661 14.8229 20.7884C14.9919 20.7109 15.1821 20.4098 15.4326 20.371C15.5676 20.3525 15.7048 20.3813 15.8209 20.4526C15.8209 20.4526 16.5505 19.7282 17.054 19.4875C17.0345 19.4292 16.9957 19.2098 17.5859 18.7243C17.619 18.7535 17.5957 18.835 17.619 18.8395C17.6286 18.8395 17.7726 18.7774 17.9548 18.6375C18.1801 18.4687 18.4499 18.2919 18.613 18.2434C18.9202 18.1522 19.2461 18.3385 19.2461 18.3385C19.2738 18.3191 19.3047 18.3046 19.3374 18.2958C19.4149 18.2822 19.4712 18.2725 19.514 18.2574C19.5102 18.3584 19.5665 18.5312 19.514 18.6807C19.5748 18.7149 19.6392 18.7422 19.706 18.7622C19.6731 18.834 19.6012 19.0165 19.4808 19.104C19.5817 19.1525 19.5953 19.2088 19.739 19.2576C19.6808 19.3391 19.5854 19.479 19.5429 19.5648C19.5002 19.656 19.3467 20.0347 19.2787 20.1783C19.2069 20.322 19.1099 20.5861 19.0632 20.6391C19.0165 20.6921 18.8476 20.9167 18.7176 21.0273C18.8328 20.9845 19.3041 20.8409 19.504 20.7865C19.4445 20.8738 19.1428 21.3214 18.8528 21.7519C17.464 22.5843 15.9138 23.1111 14.3055 23.2973C12.6971 23.4835 11.0676 23.3248 9.52539 22.8317L9.52629 22.8298Z" fill="#E0CD81"/>
<path fill-rule="evenodd" clip-rule="evenodd" d="M7.2211 10.1476C7.2211 10.1476 7.05227 10.1476 7.01925 10.1709C6.98622 10.1942 7.18821 10.2429 7.25029 10.2662C7.31237 10.2895 7.44638 10.3962 7.48133 10.4817C7.51435 10.5633 8.6949 11.0389 8.6949 11.0389L9.52984 10.9962L9.81771 10.5985L9.27013 10.1188L9.65413 8.98682L9.14546 9.06835L7.92216 9.79795L7.30853 10.033L7.2211 10.1476Z" fill="#DFC57C"/>
<path fill-rule="evenodd" clip-rule="evenodd" d="M9.05334 10.5223C9.06541 10.5418 9.08241 10.5579 9.10263 10.5688C9.12285 10.5797 9.14558 10.5851 9.16854 10.5844C9.34134 10.5844 9.50045 10.6271 9.56649 10.7144C9.67721 10.8543 9.98403 11.3009 9.98403 11.3009L10.718 11.565L10.7653 10.7007L9.96342 10.1436L9.05078 10.4794V10.5222H9.05283L9.05334 10.5223Z" fill="#E5CC7C"/>
<path fill-rule="evenodd" clip-rule="evenodd" d="M8.91061 10.8428C8.91061 10.8428 9.04449 10.8525 9.21345 10.7903C9.38241 10.7281 9.66005 10.5942 9.78049 10.6467C9.94933 10.7185 9.91438 10.9438 10.097 11.1459C10.2076 11.2702 10.4096 11.2663 10.5242 11.4004C10.6387 11.5344 11.0328 11.4722 11.0328 11.4722L11.1823 12.2786L10.5824 13.0476L10.3862 14.0029H9.57493L8.83381 13.7088L8.46875 12.8256L8.65128 11.9325L8.91061 10.8428Z" fill="#D2C281"/>
<path fill-rule="evenodd" clip-rule="evenodd" d="M10.4802 10.8817C10.5004 10.8879 10.5213 10.8911 10.5423 10.8914C10.519 10.9109 10.4704 10.9535 10.4898 11.0642C10.5093 11.1749 10.5714 11.3147 10.519 11.4001C10.5608 11.4458 10.592 11.5001 10.6103 11.5593C10.6433 11.6545 10.653 11.7418 10.8685 11.7555C10.8374 11.7747 10.8087 11.7975 10.7831 11.8235C10.7831 11.8235 10.9326 11.9535 11.0084 12.0739C11.0859 12.0705 11.2918 12.0065 11.2918 12.0065L11.3345 12.0357L11.4258 11.9973C11.4258 11.9973 11.3404 11.9643 11.4025 11.7565C11.4607 11.574 11.5132 11.5837 11.5177 11.5702C11.5222 11.5566 11.5604 11.3644 11.5604 11.2867C11.5895 11.1858 11.6128 10.879 11.6128 10.879L11.5507 10.2013L11.2013 9.98964L10.9171 9.71533L10.6491 10.2202L10.4726 10.3962L10.459 10.833L10.4802 10.8817Z" fill="#E2C270"/>
<path fill-rule="evenodd" clip-rule="evenodd" d="M11.3203 10.3149C11.3203 10.3149 11.3824 10.4915 11.4058 10.6275C11.4141 10.6011 11.4186 10.5736 11.4194 10.5459C11.4194 10.5459 11.4679 10.814 11.4775 10.9247C11.497 10.9207 11.5159 10.915 11.5202 10.9343C11.5246 10.9536 11.5689 11.1693 11.5586 11.2896C11.6395 11.1562 11.7514 11.0443 11.8848 10.9635C11.9625 10.9148 12.0538 10.8625 12.149 10.8585C12.2985 10.8547 12.4072 10.9538 12.5858 10.9538C13.0168 10.9538 13.4072 10.6372 13.6946 10.5402C13.9062 10.4682 14.0887 10.4159 14.2168 10.2993C14.279 10.2469 14.3898 10.1305 14.4906 9.95753C14.6246 9.72713 14.7644 9.52655 14.9043 9.50134C14.841 9.51297 14.7766 9.51752 14.7123 9.51491C14.7123 9.51491 14.7551 9.47215 14.8275 9.41391C14.9 9.35567 14.9867 9.28387 15.1109 9.28387C15.3323 9.28387 15.4429 9.31676 15.5672 9.31676C15.6915 9.31292 15.7633 9.28387 15.7633 9.28387C15.7633 9.28387 15.8935 9.37513 16.1866 9.37513C16.4799 9.37897 16.676 9.40419 16.8294 9.41788C16.9829 9.43158 17.4973 9.37513 17.6449 9.37948C17.7411 9.38319 17.8356 9.40631 17.9227 9.44745L17.4469 8.06505L15.7378 6.57129L14.7204 7.29167L13.1552 8.85673L11.6407 9.41788L11.3242 9.77321V10.3149H11.3203Z" fill="#CCB360"/>
<path fill-rule="evenodd" clip-rule="evenodd" d="M14.719 9.52243C14.719 9.52243 14.7617 9.47981 14.8334 9.42157C14.9051 9.36333 14.9928 9.29139 15.1169 9.29139C15.3383 9.29139 15.449 9.32441 15.5733 9.32441C15.6976 9.32057 15.7694 9.29139 15.7694 9.29139C15.7694 9.29139 15.8997 9.38253 16.1927 9.38253C16.4859 9.38637 16.682 9.41158 16.8355 9.42515C16.9889 9.43872 17.5034 9.38253 17.651 9.38675C17.7472 9.39037 17.8416 9.4135 17.9286 9.45472L17.713 8.83136L17.4627 8.35571L16.7481 7.57312C16.7481 7.57312 15.8905 7.06829 15.8839 7.06445C15.8801 7.06061 15.5868 6.98291 15.5868 6.98291L14.8101 7.4528L14.1054 9.27616L14.0918 9.66016L14.548 9.87571C14.6625 9.68371 14.7889 9.53011 14.9073 9.51065C14.8004 9.5223 14.7189 9.5223 14.7189 9.5223L14.719 9.52243Z" fill="#D5B457"/>
<path fill-rule="evenodd" clip-rule="evenodd" d="M14.7094 9.65228C14.6415 9.65612 14.5853 9.64255 14.5697 9.59404C14.5114 9.43096 14.4648 9.40767 14.4161 9.40767C14.3673 9.40767 14.3015 9.5125 14.2625 9.5221C14.2234 9.5317 14.1771 9.40178 14.1771 9.40178L14.1343 9.38232C14.1343 9.38232 13.8838 9.5454 13.7072 9.73765C13.5306 9.92991 13.2412 10.2562 13.1111 10.3143C12.9811 10.3724 12.5343 10.392 12.3815 10.425C12.2287 10.458 12.0592 10.5688 12.0359 10.594C12.0126 10.6192 12.104 10.6463 12.1176 10.6715C12.1311 10.6948 11.9679 10.6851 11.9544 10.7099C11.9448 10.7294 11.9928 10.84 12.0166 10.8963C12.0582 10.8756 12.104 10.8643 12.1505 10.8633C12.3 10.8594 12.4088 10.9585 12.5873 10.9585C13.0184 10.9585 13.4087 10.642 13.6961 10.5448C13.9078 10.473 14.0903 10.4205 14.2184 10.3041C14.2805 10.2517 14.3912 10.1351 14.4922 9.96229C14.566 9.84389 14.6379 9.73317 14.7098 9.65164L14.7094 9.65228Z" fill="#D2B257"/>
<path fill-rule="evenodd" clip-rule="evenodd" d="M8.52555 19.2622C8.52555 19.2622 8.48715 19.1185 8.13131 18.7477C8.03032 18.6429 7.96824 18.5557 7.90027 18.4934C7.73131 18.334 7.63224 18.2914 7.51192 18.2001C7.24785 18.004 6.96049 18.004 6.73918 17.7632C6.51787 17.5225 6.25995 17.0624 6.08075 16.5923C5.90411 16.1224 5.85547 15.9729 5.85547 15.9593C5.85547 15.9458 5.90411 15.8545 5.96619 15.8681C6.02827 15.8816 6.02827 16.002 6.04388 16.0311C6.07481 16.0788 6.10989 16.1236 6.14872 16.165C6.23998 16.27 6.37003 16.3954 6.43608 16.5826C6.42251 16.4233 6.36811 16.2467 6.36811 16.2467C6.36811 16.2467 6.70987 16.4622 7.00107 16.6874C7.29432 16.9127 7.41464 16.9904 7.50027 17.134C7.5859 17.2776 7.78763 17.6564 7.88427 17.7671C7.98091 17.8778 9.30507 18.2952 9.30507 18.2952L9.93496 18.7648L10.2477 19.4503L10.0029 19.8343L9.53304 19.9353L8.7699 19.5935L8.52555 19.2621V19.2622Z" fill="#D2B159"/>
<path fill-rule="evenodd" clip-rule="evenodd" d="M6.83203 16.9011C6.83203 16.9011 6.99126 17.1555 7.37962 17.3963C7.72918 17.608 8.28253 17.8002 8.77584 17.9148C9.05923 17.9827 9.34275 18.0351 9.59709 18.0391C10.2825 18.0487 10.7543 17.8527 11.3389 17.7886C11.6555 17.7555 12.0438 17.7303 12.4476 17.635C12.966 17.5107 13.2729 17.3708 13.6904 17.1742C13.9932 17.0344 14.271 16.9296 14.4962 16.7955C14.8127 16.6092 15.0437 16.4014 15.3118 16.3394C15.2788 16.4306 15.2438 16.5937 14.9797 16.7627C15.1195 16.7587 15.3118 16.7491 15.3118 16.7491C15.3118 16.7491 15.1254 16.8597 14.7972 17.1083C14.5952 17.2619 14.3273 17.5218 14.0535 17.6946C13.8768 17.8053 13.6845 17.8866 13.5583 17.9529C13.2511 18.1219 13.1272 18.2073 12.9253 18.4137C12.9972 18.4099 13.003 18.4137 13.003 18.4137C13.003 18.4137 12.7486 18.4467 12.5662 18.5438C12.5278 18.5438 12.4612 18.5302 12.3447 18.5632C12.2535 18.5923 12.133 18.6585 12.0089 18.6933C11.8321 18.7458 11.774 18.7225 11.774 18.7225L11.803 18.7807C11.803 18.7807 11.5726 18.7767 11.4958 18.7845C11.5094 18.7884 11.5056 18.7943 11.5056 18.7943C11.4921 18.7965 11.4791 18.8011 11.4672 18.8078C11.4302 18.8318 11.3896 18.8495 11.3468 18.8602C11.3236 18.864 11.3041 18.864 11.2749 18.8699C11.2846 18.8932 11.3604 19.0235 11.3954 19.1003C11.3663 19.1198 10.9293 19.4499 10.9293 19.4499C10.9429 19.4712 10.9539 19.494 10.9623 19.5179C10.9759 19.5605 10.9818 19.6227 10.9954 19.6517C11.0283 19.71 11.0477 19.7197 11.0477 19.7197C11.0477 19.7197 10.9954 19.7294 10.904 19.7527C10.8264 19.7722 10.7312 19.8051 10.5968 19.8245C10.5555 19.8299 10.514 19.8331 10.4725 19.8343C10.4919 19.877 10.5773 20.0401 10.42 20.2284C10.2627 20.4167 10.2142 20.4441 10.1657 20.5644C10.1412 20.5459 10.1152 20.5296 10.088 20.5157C10.0356 20.4924 9.96368 20.4576 9.93846 20.4109C9.92376 20.4732 9.90429 20.5342 9.88022 20.5934C9.83171 20.7235 9.7599 20.8517 9.74633 20.9488C9.69385 20.8905 9.59683 20.776 9.46282 20.7993C9.3288 20.8226 9.22205 21.0051 9.19875 21.0576C9.19875 21.0245 9.17546 20.9993 9.1697 21.0381C9.16573 21.0809 9.092 21.5273 8.68035 21.8885C8.67651 21.7973 8.67651 21.5953 8.66678 21.5294C8.62838 21.5678 8.58141 21.6245 8.30173 21.7449C8.02794 21.8652 8.07133 21.9857 8.07133 21.9857C8.07133 21.9857 8.04803 21.7937 8.19562 21.5915C8.34512 21.3896 8.43638 21.2944 8.43638 21.2789C8.43397 21.2631 8.42724 21.2483 8.41693 21.2361C8.39747 21.2167 8.35869 21.1934 8.35869 21.1779C8.38198 21.1683 8.61302 21.0576 8.59946 20.8283C8.58589 20.6226 8.49859 20.5157 8.43638 20.4401C8.42678 20.4304 8.52778 20.3586 8.51408 20.3353C8.50435 20.3217 8.38019 20.2303 8.36458 20.1817C8.36825 20.1526 8.37476 20.124 8.38403 20.0963C8.3976 20.0535 8.40733 20.0243 8.40349 19.9953C8.39376 19.9468 8.34128 19.8128 8.32579 19.7992C8.33936 19.803 8.43638 19.7992 8.43638 19.7992C8.43638 19.7992 8.35882 19.6749 8.34512 19.6167C8.33142 19.5584 8.30237 19.405 8.28688 19.3759C8.3199 19.3797 8.40144 19.3855 8.40144 19.3759C8.40541 19.3467 8.32963 19.2982 8.36304 19.2607C8.38633 19.2645 8.43101 19.284 8.47363 19.3384C8.45034 19.2762 8.41155 19.1559 8.32989 19.1074C8.36829 19.0938 8.49885 19.0587 8.61341 19.1267C8.72797 19.1947 8.76701 19.2898 8.76701 19.2898C8.76701 19.2898 8.83497 19.3422 8.93993 19.4199C9.06025 19.515 9.2136 19.6503 9.45833 19.7461C9.51081 19.7753 9.6447 19.7753 9.74186 19.7558C9.78416 19.7457 9.82471 19.7294 9.86218 19.7073C9.8757 19.6993 9.89003 19.6928 9.90493 19.6878C9.88405 19.6459 9.86005 19.6057 9.83312 19.5674C9.86614 19.5674 9.90493 19.5714 9.90493 19.5714C9.90493 19.5714 9.92822 19.5189 9.82339 19.4178C9.84669 19.3945 9.87587 19.3794 9.87587 19.3401C9.84285 19.3362 9.78461 19.2877 9.77104 19.2683C9.79037 19.2547 9.81955 19.21 9.85258 19.1964C9.82339 19.1731 9.75158 19.076 9.71856 19.0664C9.75011 19.0547 9.78063 19.0404 9.80982 19.0236C9.80982 19.0236 9.64675 18.9809 9.59427 18.9459C9.54179 18.9075 9.46422 18.8411 9.41763 18.8217C9.36899 18.8022 9.28361 18.7926 9.24867 18.7537C9.28157 18.7634 9.33405 18.7537 9.37296 18.7537C9.40202 18.7537 9.41571 18.7575 9.42531 18.7575C9.42147 18.744 9.42147 18.7148 9.49725 18.7052C9.5337 18.6997 9.56906 18.6885 9.60208 18.6722C9.60208 18.6722 9.53014 18.6683 9.44848 18.5906C9.36682 18.5129 9.29898 18.4508 9.25238 18.4411C9.20387 18.4314 9.11261 18.4741 9.05629 18.4702C8.97859 18.4606 8.94557 18.4217 8.94557 18.4217C8.94557 18.4217 8.68739 18.445 8.11459 18.0955C7.61936 17.7925 7.40381 17.5246 7.40381 17.5246C7.35746 17.5078 7.31266 17.487 7.26992 17.4624C7.08355 17.3654 6.82525 17.1634 6.83306 16.8992L6.83203 16.9011Z" fill="#C2A44D"/>
<path fill-rule="evenodd" clip-rule="evenodd" d="M13.9743 5.24672C14.0192 5.26131 14.0591 5.28823 14.0895 5.32441C14.1807 5.42925 14.239 5.62726 14.0312 5.83897C14.1127 5.86803 14.1464 5.87737 14.2176 5.86803C14.1458 5.95353 13.9827 6.13606 13.973 6.29529C13.9632 6.42534 14.0448 6.46425 14.0448 6.46425C14.0448 6.46425 13.9205 6.60787 13.9147 6.84825C13.9734 6.78206 14.0377 6.721 14.1067 6.66573C14.2505 6.55117 14.4485 6.42112 14.5825 6.33958C14.5807 6.37376 14.5853 6.40797 14.5961 6.44045C14.5961 6.44045 14.8464 6.23462 15.0569 6.32601C15.152 6.36877 15.1092 6.50265 15.1092 6.50265C15.1092 6.50265 15.2394 6.45414 15.3307 6.54541C15.4219 6.63667 15.551 6.87206 15.6171 6.96333C15.6462 7.00608 15.722 7.08761 15.7995 7.21382C15.9055 7.39052 15.994 7.57713 16.0637 7.77101C16.0676 7.67001 16.0928 7.51283 16.3803 7.61177C16.6676 7.71277 16.9938 7.92448 17.2676 8.34137C17.5414 8.75827 17.6092 9.22893 17.7471 9.40813C17.8868 9.58093 18.0306 9.86829 18.0403 9.98873C18.05 10.1092 17.9975 10.4974 18.2849 11.5479C18.3664 11.2218 18.4907 10.4974 18.4907 10.4974L18.5587 9.85856L18.6364 7.88185L16.5723 6.16704L14.9587 4.99609L13.9082 5.09709L13.9741 5.24659L13.9743 5.24672Z" fill="#CAA13E"/>
<path fill-rule="evenodd" clip-rule="evenodd" d="M17.81 8.18817C17.81 8.18817 17.7809 7.99617 17.2955 7.66977C16.81 7.34747 16.4313 7.34747 16.0819 7.07368C15.8139 6.85813 15.5343 6.36289 15.3523 6.19982C15.1755 6.03867 15.1465 5.57262 15.1465 5.57262L15.7426 5.07342L16.6291 3.79201L17.3785 2.9668L17.7377 3.466L18.2369 4.05237L18.5145 5.22907L18.6155 6.95144L17.8091 8.1883L17.81 8.18817Z" fill="#B59544"/>
<path fill-rule="evenodd" clip-rule="evenodd" d="M18.4095 10.253C18.4242 9.99175 18.392 9.73003 18.3143 9.48022C18.1863 9.08214 17.9066 8.37532 17.7767 8.11062C17.7242 7.81737 17.7631 7.79407 17.8195 7.76105C17.8758 7.72802 18.0875 7.60745 18.2035 7.18441C18.3194 6.76137 18.6792 6.74754 18.6792 6.74754L18.9006 6.58447L19.2366 7.42518L19.5297 8.18447L19.6209 8.76508L19.6889 9.26018L19.5297 10.3068L18.7434 11.0175L18.4094 10.253H18.4095Z" fill="#C89D3A"/>
<path fill-rule="evenodd" clip-rule="evenodd" d="M7.4375 21.9188V21.8972C7.45384 21.887 7.46827 21.874 7.48012 21.8588C7.49369 21.8394 7.50355 21.8161 7.51315 21.8103C7.5326 21.8006 7.62387 21.7719 7.67238 21.7812C7.72089 21.7904 7.84915 21.8432 7.91712 21.8394C8.05689 21.8356 8.21996 21.7287 8.47827 21.7773C8.86662 21.8491 8.95788 22.1132 9.18316 22.2627C9.33676 22.3676 9.49574 22.3209 9.51904 22.3209H9.57139C9.58112 22.3209 9.65292 22.2394 9.69184 22.2434C9.76953 22.2472 9.77721 22.3113 9.82572 22.3152C9.94028 22.3287 10.1617 22.2569 10.2724 22.2861C10.3053 22.2964 10.3351 22.3145 10.3595 22.3388C10.3838 22.3631 10.4019 22.3929 10.4122 22.4258C10.4355 22.4976 10.4161 22.5888 10.3597 22.6413C10.2394 22.7519 10.1249 22.8569 10.1016 22.9485C10.1312 22.9711 10.1596 22.9952 10.1868 23.0207C9.22607 22.7759 8.3017 22.4058 7.4375 21.9199V21.9188Z" fill="#CEB052"/>
<path fill-rule="evenodd" clip-rule="evenodd" d="M17.7773 18.0389C17.7773 18.0389 18.0802 17.635 18.1852 17.435C18.29 17.2288 17.8531 14.6176 17.8531 14.6176L18.7308 11.7419L18.7074 10.806C18.7074 10.806 18.7501 9.94184 18.8511 9.56706C18.9716 9.78261 19.3464 10.0428 19.4279 10.1807C19.4663 9.9165 19.5967 9.35931 19.5774 8.76514C19.6492 8.87573 19.822 9.98843 19.822 9.98843L19.9948 10.7379L20.2201 11.534L20.4706 12.3749L20.6201 12.9555L20.7055 13.0952L20.7774 13.3399L20.8454 13.604L21.0415 14.2234L21.1567 14.7321L21.2479 15.6545C21.2678 15.7251 21.2821 15.7972 21.2907 15.87C21.2945 15.971 21.2771 16.0293 21.2771 16.0468C21.2771 16.0643 21.3101 16.2681 21.2966 16.4216C21.2771 16.5752 21.2771 16.6954 21.1567 16.8056C21.0362 16.9158 20.9606 17.5745 20.9606 17.5745L20.745 17.4309C20.745 17.4309 20.7878 17.2346 20.6868 17.0561C20.5858 16.8775 20.3897 16.8405 20.279 16.8697C20.1684 16.893 19.9471 16.9278 19.8751 16.99C19.8072 17.0521 19.6403 17.2444 19.4868 17.3318C19.2948 17.447 18.982 17.4561 18.815 17.4949C18.6461 17.5333 18.4597 17.6485 18.2635 17.7822C18.1096 17.8818 17.9472 17.9675 17.7781 18.0382L17.7773 18.0389Z" fill="#CCA847"/>
<path fill-rule="evenodd" clip-rule="evenodd" d="M17.7773 22.2816C17.7773 22.2816 17.7901 22.2899 17.8148 22.3035C19.1944 21.6571 20.4304 20.741 21.45 19.6091C21.4389 19.2161 21.4244 18.8133 21.4086 18.664C21.3757 18.3475 21.399 18.0252 21.3892 17.8388C21.3795 17.6524 21.2747 16.8932 21.2262 16.6971C21.1737 16.501 21.0726 16.4038 21.0572 16.4038C21.0436 16.4078 20.962 16.7728 20.962 16.8646C20.962 16.9564 20.9425 17.1773 20.9425 17.2336C20.929 17.2297 20.9232 17.1952 20.9232 17.1812C20.9037 17.2297 20.8804 17.3152 20.8707 17.3249C20.861 17.3346 20.8843 17.2434 20.8707 17.2239C20.8572 17.2044 20.8323 17.2142 20.8377 17.1657C20.84 17.1369 20.8445 17.1084 20.8513 17.0803C20.8513 17.0803 20.793 17.1657 20.7504 17.3831C20.7076 17.5987 20.7076 17.6046 20.6922 17.6239C20.6786 17.6473 20.6009 17.7249 20.5969 17.7541C20.5931 17.8064 20.6689 17.8589 20.6746 17.888C20.6785 17.9366 20.6067 18.1618 20.5834 18.272C20.5601 18.3822 20.5698 18.5981 20.545 18.7088C20.5255 18.8098 20.5066 18.8681 20.4401 18.9107C20.4886 18.9204 20.5352 18.934 20.5352 18.934C20.5352 18.934 20.6032 19.2213 20.4304 19.4661C20.3683 19.5515 20.3528 19.5904 20.2868 19.6681C20.1566 19.8117 20.0556 19.9753 20.0459 20.0816C20.0392 20.0502 20.0346 20.0184 20.0323 19.9864C20.0323 19.9864 19.8305 20.2214 19.745 20.3554C19.6344 20.5282 19.4809 20.5185 19.4378 20.5612C19.3946 20.604 19.3853 20.6816 19.3994 20.7438C19.361 20.7534 19.2888 20.7671 19.2401 20.9166C19.2168 20.9941 19.1586 21.0702 19.0673 21.1224C18.9761 21.1746 18.8653 21.1904 18.809 21.2039C18.8575 21.2175 18.877 21.2175 18.9003 21.233C18.8712 21.2815 18.7372 21.3573 18.5877 21.4544C18.4382 21.5457 18.3663 21.6796 18.3294 21.767C18.291 21.8485 18.2343 21.901 18.143 21.9108C18.1814 21.934 18.2383 21.9883 18.2673 22.0059C18.2246 22.0156 18.1521 22.0156 18.0227 22.1263C17.8868 22.2389 17.8402 22.272 17.778 22.2817L17.7773 22.2816Z" fill="#C39D3C"/>
<path fill-rule="evenodd" clip-rule="evenodd" d="M15.0749 23.1814C15.1492 23.1293 15.2297 23.0866 15.3146 23.0543C15.6174 22.934 15.9378 22.9107 16.064 22.8719C16.1845 22.8335 16.2796 22.7805 16.4291 22.7515C16.4251 22.7855 16.4218 22.8175 16.4182 22.8477C15.9775 22.9863 15.5286 23.0977 15.0742 23.1814H15.0749Z" fill="#D2BA6B"/>
<path fill-rule="evenodd" clip-rule="evenodd" d="M20.6616 15.2158C20.6616 15.2158 20.5996 15.5517 20.4888 15.7634C20.3781 15.9751 20.2584 16.2682 20.2584 16.2682C20.2592 16.2022 20.267 16.1364 20.2817 16.072C20.142 16.1535 19.8021 16.3498 19.7057 16.4371C19.6145 16.5186 19.461 16.6623 19.4222 16.7303C19.5135 16.4624 19.6086 16.2216 19.6242 16.1109C19.4844 16.2119 18.8319 16.7498 18.4922 17.1051L17.4339 17.9614C17.3117 18.0273 17.186 18.0862 17.0572 18.1378C16.8748 18.2154 16.6592 18.2814 16.5 18.3436C16.5427 18.2291 16.6106 18.1279 16.7058 18.0309C16.8068 17.9358 17.1096 17.6076 17.1562 17.4549C17.199 17.2957 17.2087 17.2006 17.1524 17.0666C17.0999 17.0801 16.9796 17.086 16.8981 17.1093C16.8165 17.1326 16.7291 17.2199 16.7291 17.2199C16.7291 17.2199 16.7912 16.8646 16.9252 16.5287C16.8242 16.5325 16.6514 16.5616 16.6514 16.5616C16.6514 16.5616 16.8922 16.1578 17.3042 15.8763C17.178 15.9031 17.0545 15.9414 16.9353 15.9907C16.6945 16.0917 16.4305 16.2412 16.2344 16.3227C16.345 16.1691 17.1217 15.0607 17.5839 14.0276C18.0447 12.9965 18.2168 12.7325 18.3178 12.1791C18.3702 11.9053 18.3562 11.5007 18.3702 11.1384C18.3838 10.7791 18.4284 10.4568 18.3994 10.2412C18.5197 10.3907 18.9702 10.8121 18.9857 11.7539C18.9993 12.6956 18.5548 13.9675 18.0828 14.6529C18.198 14.6859 18.4965 14.7248 18.8032 14.1921C19.1099 13.6593 19.1062 13.5106 19.2169 13.2891C19.2305 13.3999 19.2265 13.4387 19.2265 13.4387C19.2265 13.4387 19.6732 12.897 19.8848 12.2154C19.9276 12.5086 20.0538 12.7669 19.8556 13.3048C19.679 13.7901 19.4479 13.9087 19.4479 13.9087C19.4479 13.9087 19.5625 13.8892 19.7313 13.7882C19.7605 13.86 19.7548 13.9418 19.8033 13.9707C19.8518 13.9997 19.9178 14.0484 19.9276 14.095C19.9799 14.0173 20.0614 13.9183 20.0868 13.8445C20.0673 13.9981 20.0538 14.6698 20.1252 15.0115C20.2748 14.9979 20.4282 14.9882 20.533 14.7183C20.4612 14.9825 20.4612 15.1416 20.5097 15.3668C20.5893 15.3126 20.6611 15.2154 20.6611 15.2154L20.6616 15.2158Z" fill="#C0993A"/>
<path fill-rule="evenodd" clip-rule="evenodd" d="M15.6157 4.51255C15.6157 4.51255 15.4662 4.57463 15.2118 4.57463C14.9905 4.57463 15.0526 4.48926 14.707 4.48926C14.175 4.48926 12.3167 4.79646 11.9904 4.79211C11.7787 4.78827 12.7049 4.88337 12.7049 4.88337L15.072 4.91639L15.5477 4.87799L15.7245 4.51831L15.6157 4.51255Z" fill="#A88F33"/>
<path fill-rule="evenodd" clip-rule="evenodd" d="M9.47794 9.13992C9.47794 9.13992 9.17497 9.37096 9.04684 9.54773C8.91871 9.7245 8.85074 9.84085 8.70508 9.98459C8.73927 9.9859 8.77343 9.98131 8.80607 9.97103C8.80607 9.97103 8.80607 10.0094 8.78277 10.0195C8.80291 10.0173 8.82328 10.0196 8.84242 10.0262C8.86156 10.0329 8.87896 10.0437 8.89337 10.0579C8.85061 10.0812 8.73413 10.1978 8.8254 10.3357C8.89337 10.4405 9.03711 10.4501 9.03711 10.4501C9.03711 10.4501 9.00409 10.5454 9.14194 10.5356C9.43903 10.5221 9.77106 10.3919 9.92441 10.4249C10.078 10.4633 10.1653 10.4774 10.274 10.6658C10.3892 10.8522 10.4895 10.8814 10.4895 10.8814C10.4895 10.8814 10.5575 10.7084 10.542 10.4503C10.5977 10.3111 10.6286 10.1632 10.6333 10.0134L10.5323 9.26971L10.0916 8.7124L9.52069 9.02895L9.47794 9.13954V9.13992Z" fill="#E3C571"/>
<path fill-rule="evenodd" clip-rule="evenodd" d="M10.0195 9.02929C10.0195 9.02929 10.0623 9.13028 10.241 9.13988C10.2215 9.18263 10.2215 9.18852 10.2274 9.22142C10.2312 9.25444 10.237 9.30295 10.237 9.30295C10.2567 9.29343 10.2745 9.28042 10.2895 9.26455C10.2992 9.3073 10.2798 9.37514 10.2895 9.42378C10.2955 9.45337 10.3053 9.48206 10.3185 9.50916C10.3214 9.50252 10.3246 9.49606 10.3283 9.48983C10.3321 9.4801 10.3667 9.59466 10.4623 9.68183C10.4622 9.66843 10.4655 9.65522 10.4719 9.64343C10.4733 9.66778 10.4814 9.69127 10.4952 9.7114C10.488 9.70799 10.4815 9.7034 10.4759 9.69783C10.4759 9.69783 10.4855 10.005 10.5379 10.1639C10.5467 10.1536 10.5545 10.1426 10.5612 10.1309C10.5612 10.1213 10.5574 10.2164 10.5477 10.2845C10.5341 10.3524 10.5438 10.4475 10.5438 10.4475C10.5788 10.42 10.6173 10.3971 10.6583 10.3796C10.7165 10.3561 10.8119 10.2843 10.87 10.1251C10.9037 10.0349 10.9297 9.94204 10.9477 9.84746C10.9664 9.88361 10.9794 9.92248 10.9861 9.96266C10.99 10.0112 11.0813 9.98596 11.0813 9.98596L11.1007 9.77425L11.2159 9.29463L11.3208 8.99754L11.8256 8.21124L12.7377 7.50878L13.5339 7.6913L14.2056 6.77866L13.0484 6.0835L11.9532 6.19806L10.9593 7.5747L10.1633 8.82334L10.0195 9.02916V9.02929Z" fill="#D8B65B"/>
<path fill-rule="evenodd" clip-rule="evenodd" d="M15.7543 7.03689C15.7543 7.03689 15.6864 7.05046 15.4903 7.15209C15.2942 7.25372 15.1582 7.28598 15.0825 7.43548C15.0067 7.58498 15.0009 7.70351 15.0009 7.70351C15.0009 7.70351 15.1349 7.64527 15.2126 7.62582C15.2942 7.60649 15.3854 7.61225 15.3757 7.64527C15.3664 7.66792 15.3534 7.68889 15.3373 7.70735C15.3373 7.70735 15.4909 7.70351 15.4868 7.77929C15.4827 7.85506 15.4578 7.93852 15.4287 7.97538C15.3995 8.01378 15.2792 8.07062 15.2656 8.11529C15.2326 8.20655 15.2792 8.21039 15.2617 8.28412C15.2481 8.35606 15.1841 8.49583 14.9743 8.74044C14.7587 8.98518 14.6671 9.15798 14.6671 9.15798C14.6671 9.15798 14.5623 8.96188 14.5079 8.79292C14.4695 8.81225 14.2633 8.92681 14.2633 8.92681L13.7856 7.26281L13.7952 7.15209C13.7952 7.15209 13.8379 7.09974 13.8476 7.00258C13.7758 6.97929 13.7661 6.95983 13.6709 6.8687C13.5756 6.77756 13.4981 6.66671 13.339 6.59094C13.3157 6.54818 13.2865 6.49007 13.17 6.46665C13.0535 6.44322 12.9836 6.42402 12.9836 6.42402C12.9836 6.42402 13.0457 6.4006 13.0749 6.35209C13.003 6.36182 12.9449 6.38511 12.7875 6.38127C12.6283 6.3773 12.6108 6.37154 12.5235 6.38511C12.4362 6.39868 12.3315 6.43759 12.2924 6.30358C12.2497 6.27055 12.1584 6.29974 12.0807 6.41417C12.003 6.5286 11.9759 6.61999 11.8264 6.66466C11.8159 6.73057 11.7928 6.79383 11.7584 6.85103C11.7157 6.92297 11.6477 6.99478 11.5564 7.10153C11.4127 7.27049 11.436 7.54812 11.2069 7.75983C10.9758 7.97142 11.2453 7.17334 11.2453 7.17334L11.6142 6.29014L12.6647 5.26294L14.2958 5.15234L14.455 5.99714L15.2512 6.27094L15.7541 7.03791L15.7543 7.03689Z" fill="#D3AE4D"/>
<path fill-rule="evenodd" clip-rule="evenodd" d="M16.0129 7.22311L15.3274 6.23483L14.8478 5.8658C14.8478 5.8658 14.5061 5.23681 14.4828 5.21735C14.4633 5.20379 14.141 5.16884 13.9352 5.15527L13.9736 5.25038C14.0185 5.26497 14.0584 5.29189 14.0888 5.32807C14.18 5.43291 14.2383 5.63092 14.0305 5.84263C14.1121 5.87169 14.1457 5.88103 14.2169 5.87169C14.1451 5.95719 13.982 6.13972 13.9723 6.29895C13.9626 6.429 14.0441 6.46779 14.0441 6.46779C14.0441 6.46779 13.9198 6.61153 13.9141 6.85179C13.9728 6.7856 14.037 6.72453 14.1061 6.66926C14.2498 6.55406 14.4478 6.42452 14.5818 6.34299C14.58 6.3772 14.5846 6.41146 14.5954 6.44398C14.5954 6.44398 14.8458 6.23815 15.0562 6.32942C15.1513 6.37217 15.1086 6.50619 15.1086 6.50619C15.1086 6.50619 15.2387 6.45767 15.33 6.54894C15.4213 6.6402 15.5513 6.87508 15.6174 6.96647C15.6464 7.00923 15.7222 7.09076 15.7998 7.21684C15.9058 7.39357 15.9942 7.58023 16.064 7.77415C16.0678 7.69646 16.0834 7.58779 16.2176 7.58779L16.0136 7.22273L16.0129 7.22311Z" fill="#CAA13E"/>
<path fill-rule="evenodd" clip-rule="evenodd" d="M5.73836 10.0309C5.73836 10.0309 5.68985 9.91049 5.73836 9.67561C5.78687 9.44073 5.86265 9.33001 5.88786 8.98441C5.91308 8.63881 6.13836 8.20771 6.13836 8.20771L6.76159 7.92432L7.20242 8.04464L7.33247 8.63497L6.77516 8.94217C6.77516 8.94217 6.7461 9.07222 6.58879 9.17705C6.43148 9.28188 6.21401 9.36342 6.16165 9.4703C6.13036 9.53575 6.10752 9.60491 6.09369 9.67612C6.09369 9.67612 5.93445 9.6431 5.83935 9.74793C5.73836 9.85481 5.7422 9.94992 5.73836 10.0315V10.0309Z" fill="#F4EFC8"/>
<path fill-rule="evenodd" clip-rule="evenodd" d="M6.99612 9.87386C6.99612 9.87386 6.94364 9.90689 6.90485 9.98906C6.86645 9.92698 6.77468 9.55796 6.77084 9.22593C6.767 8.8939 6.74716 8.81159 6.82396 8.69716C6.90076 8.58273 7.20194 8.46215 7.15919 8.25607C7.11644 8.05998 6.93775 7.97844 6.71836 8.03476C6.56476 8.07316 6.45045 8.39981 6.29122 8.56289C6.17077 8.68717 6.02716 8.66772 5.98837 8.73569C5.93589 8.82695 5.98441 8.91822 5.96892 8.97646C5.96495 8.99591 5.91644 9.10074 5.82901 9.22695C5.65237 9.48129 5.35337 9.84058 5.31445 10.1629C5.32802 9.98036 5.31842 9.97652 5.36693 9.77454L5.33775 9.72602L5.52975 9.0969L5.65404 8.5785L5.9318 7.71041L6.42101 6.82311L6.89679 6.29102L7.39189 6.32404L7.45013 7.06772L7.73365 8.46394L8.32975 9.1979L7.37436 9.84084L6.99573 9.87386H6.99612Z" fill="#EBCC73"/>
<path fill-rule="evenodd" clip-rule="evenodd" d="M7.29265 10.1374C7.29265 10.1374 7.21111 10.1569 7.18193 10.1414C7.15274 10.1259 7.12382 10.1084 7.13342 10.0889C7.14302 10.0695 7.1955 10.0366 7.1955 10.021C7.19657 10.0069 7.19211 9.99288 7.18305 9.982C7.174 9.97113 7.16106 9.96421 7.14698 9.96272C7.10231 9.95696 7.08874 9.98602 7.08874 9.98602C7.08874 9.98602 7.04599 9.95312 7.01118 9.94762C7.03178 9.9451 7.0525 9.94377 7.07326 9.94365C7.0196 9.91934 6.96268 9.903 6.9043 9.89514C6.95281 9.86608 7.04804 9.78058 7.11012 9.78058C7.1722 9.78058 7.21111 9.77098 7.20138 9.73795C7.19166 9.70493 7.14314 9.65642 7.09079 9.63696C7.11012 9.61367 7.12382 9.57872 7.07722 9.48336C7.02858 9.38826 7.04804 9.32413 7.06366 9.30096C7.07722 9.27178 7.12574 9.21943 7.14903 9.1864C7.17233 9.15338 7.19178 9.10871 7.23057 9.08541C7.25002 9.07184 7.3121 9.04701 7.37431 9.02333C7.44228 9.00003 7.4986 8.97085 7.53738 9.00003C7.58014 9.02909 7.56068 9.068 7.56068 9.068C7.56068 9.068 7.6947 9.01936 7.81502 9.08157C7.93546 9.13968 8.22871 9.17667 8.22871 9.17667L8.3338 9.38839L7.63863 9.98448L7.35127 10.1282L7.29303 10.1378L7.29265 10.1374Z" fill="#E5C66B"/>
<path fill-rule="evenodd" clip-rule="evenodd" d="M8.25806 9.16311C8.25806 9.16311 8.04251 9.30685 7.994 9.35921C8.02305 9.36317 8.07156 9.38263 8.05211 9.41169C8.02881 9.44074 7.88904 9.54173 7.81134 9.63697C7.7298 9.73207 7.65211 9.85252 7.62497 9.91076C7.59592 9.96311 7.37448 10.1166 7.29883 10.1359C7.45806 10.1359 7.77844 9.93981 7.89876 9.93981C7.89492 9.99805 7.93179 10.0641 7.99976 10.0699C8.06772 10.0756 8.26382 10.1126 8.52788 9.94954C8.79195 9.79031 8.70465 9.67178 8.81524 9.59421C9.02696 9.45431 9.11233 9.33002 9.22881 9.25245C9.34529 9.17489 9.40558 9.15722 9.40558 9.15722C9.40558 9.15722 9.40942 9.09898 9.44398 9.10487C9.45344 9.10595 9.46242 9.1096 9.46996 9.11542C9.47749 9.12125 9.48329 9.12902 9.48673 9.13789C9.48673 9.13789 9.68872 8.99415 9.94753 8.95537C9.94149 8.95267 9.93666 8.94784 9.93396 8.9418C9.93396 8.9418 9.95329 8.93207 9.95726 8.92234C9.95726 8.92234 9.97083 8.90289 9.98056 8.91261C9.99028 8.92234 10.0039 8.99415 10.0233 9.02333C10.0661 9.00388 10.1476 8.82135 10.1476 8.82135L10.3438 8.2602V7.74756L10.1902 7.77674L9.03822 8.26596L8.33908 8.99031L8.25755 9.16311H8.25806Z" fill="#E6BD62"/>
<path fill-rule="evenodd" clip-rule="evenodd" d="M11.5744 6.64861C11.6367 6.63349 11.6965 6.60925 11.7517 6.57668C11.7284 6.63888 11.7284 6.70685 11.6274 6.85444C11.5264 7.00202 11.5226 7.0234 11.441 7.17674C11.3595 7.33597 11.3498 7.56509 11.2721 7.66596C11.3069 7.64903 11.3443 7.63792 11.3827 7.63306C11.3827 7.63306 11.3051 7.70103 11.2721 7.77284C11.239 7.84464 11.1808 7.99415 11.0372 8.08554C10.8936 8.17693 10.7109 8.23504 10.5148 8.4506C10.3186 8.66218 10.1167 8.93021 10.0156 9.0266C10.0681 8.93533 10.1399 8.7528 10.1594 8.63248C10.1788 8.51216 10.1554 8.36829 10.1884 8.20919C10.2214 8.05008 10.2214 7.9354 10.3804 7.65764C10.5394 7.37988 10.8115 6.41488 10.8115 6.41488L11.3979 6.22852L11.5747 6.64797L11.5744 6.64861Z" fill="#B6933F"/>
<path fill-rule="evenodd" clip-rule="evenodd" d="M11.1521 6.2932C11.1521 6.2932 10.9754 6.54754 10.9269 6.77282C10.8784 6.9981 10.9229 6.97864 10.8939 7.08936C10.8765 7.15687 10.8765 7.22768 10.8939 7.29519C10.9551 7.19663 11.0388 7.11406 11.1382 7.05429C11.3053 6.95343 11.4412 6.88149 11.5222 6.79612C11.6038 6.70485 11.6717 6.55535 11.8484 6.44079C11.7766 6.43106 11.6756 6.39804 11.6564 6.40239C11.7283 6.32085 11.9437 6.19656 12.1612 6.04706C12.3768 5.89346 12.3632 5.83151 12.7128 5.67816C12.5982 5.69762 12.5438 5.66844 12.4486 5.67816C12.487 5.59663 12.6214 5.55772 12.7558 5.42383C12.8902 5.28994 12.6704 5.0918 12.6704 5.0918L11.6464 5.71119L11.1513 6.29372L11.1521 6.2932Z" fill="#C49937"/>
<path fill-rule="evenodd" clip-rule="evenodd" d="M8.37305 5.83125L8.39634 5.64488L8.68959 5.17499L8.99641 4.34977V3.22158L8.97311 2.56917L9.02162 2.1419L9.05849 2.00609L9.0974 1.95361L9.34777 2.08366L9.69349 2.55355L9.72652 3.46043L9.39052 4.89147L8.43129 5.93813L8.37305 5.83125Z" fill="#DFC068"/>
<path fill-rule="evenodd" clip-rule="evenodd" d="M9.13572 1.90081C9.13572 1.90081 8.98212 1.90478 8.94935 2.54362C8.91659 3.18247 8.90072 3.51834 8.87742 3.83489C8.85412 4.15143 8.79985 4.34356 8.77259 4.53006C8.74532 4.71655 8.72984 4.97076 8.64254 5.12615C8.60414 5.19796 8.52209 5.42324 8.32983 5.5922C8.11428 5.77857 7.79223 5.90874 7.74347 5.91847C7.65796 5.9378 7.22494 5.98055 7.0483 6.0777C6.98622 6.11073 6.87934 6.14951 6.76094 6.26023C6.52593 6.47182 6.21335 6.85044 5.98807 7.30676C5.64247 7.98836 5.29688 9.91258 5.29688 9.91258L5.37457 9.78254C5.37457 9.78254 5.3843 9.60974 5.5571 9.30676C5.72606 9.00391 5.67755 8.66407 5.91243 8.08347C6.00369 7.86215 6.11825 7.57479 6.25803 7.33006C6.47947 6.93198 6.74737 6.59022 7.01732 6.40385C7.45803 6.101 7.94353 6.03495 7.94353 6.03495L8.4659 5.68935C8.4659 5.68935 8.55716 5.51271 8.67761 5.31073C8.84644 5.02734 9.06161 4.71079 9.10859 4.25063C9.18052 3.56903 9.00759 3.12244 9.01732 2.7186C9.02705 2.31476 9.03089 2.01767 9.11255 1.94574C9.19422 1.8738 9.13585 1.90106 9.13585 1.90106L9.13572 1.90081Z" fill="#A88F33"/>
<path fill-rule="evenodd" clip-rule="evenodd" d="M9.13697 4.94946C9.13697 4.94946 9.36737 4.38242 9.47284 3.8795C9.4923 3.77851 9.53108 3.67765 9.54081 3.59611C9.58932 3.12034 9.60289 2.92424 9.54081 2.66402C9.4923 2.47202 9.30593 2.29896 9.20878 2.16482C9.11368 2.02491 9.069 1.97282 9.08846 1.94338C9.10792 1.91394 9.18356 1.86581 9.25729 1.87157C9.33566 1.87385 9.41275 1.89205 9.48387 1.92505C9.55499 1.95806 9.61865 2.00519 9.67099 2.06357C9.82049 2.23637 9.93889 2.82286 9.93889 2.82286L10.0634 3.59675L10.38 4.57147L9.13723 4.95022L9.13697 4.94946Z" fill="#C99E3D"/>
<path fill-rule="evenodd" clip-rule="evenodd" d="M11.3019 4.35911C11.3019 4.35911 11.2591 4.37844 11.1816 4.35911C11.1849 4.39081 11.1794 4.42281 11.1656 4.45158C11.1519 4.48035 11.1306 4.50478 11.1039 4.52218C11.0223 4.48916 10.2591 4.55521 10.2591 4.55521C10.2591 4.55521 9.90373 4.493 9.79301 4.02311C9.71544 3.71041 9.85125 3.27943 9.80657 2.99591C9.73861 2.57838 9.6435 2.49671 9.63377 2.36679C9.62405 2.23687 9.61432 2.20372 9.61432 2.12218C9.57157 2.11246 9.54635 2.09889 9.50373 2.09889C9.494 2.06049 9.51333 2.02695 9.4707 1.95898C9.494 1.96871 9.65323 1.98817 9.8396 2.16481C9.9932 2.30855 9.9932 2.3609 10.0164 2.39009C10.0454 2.41914 10.2804 2.62049 10.3814 2.82119C10.4824 3.0219 10.6785 3.6619 10.7232 3.76673C10.7368 3.80948 10.7659 3.85223 10.8384 3.94926C10.951 4.08916 11.116 4.32046 11.3024 4.35886L11.3019 4.35911Z" fill="#B58634"/>
<path fill-rule="evenodd" clip-rule="evenodd" d="M10.043 2.3999C10.1606 2.58992 10.2663 2.78708 10.3594 2.99024C10.4739 3.24841 10.5419 3.46013 10.6857 3.63293C10.608 3.40777 10.4701 2.96502 10.3886 2.80771C10.2973 2.64131 10.1109 2.46211 10.043 2.40003V2.3999Z" fill="#A88F33"/>
<path fill-rule="evenodd" clip-rule="evenodd" d="M8.72244 5.59241C8.72244 5.59241 8.52634 5.64092 8.16128 5.83318C8.04084 5.89526 7.9264 5.94761 7.81568 5.99625C7.52807 6.1263 7.21959 6.24649 6.97485 6.3128C6.99431 6.33609 7.00391 6.34569 7.00391 6.34569C7.00391 6.34569 7.00391 6.44092 7.05639 6.4952C7.02733 6.52438 6.63885 6.78844 6.75354 7.6719C6.83111 7.64284 6.92237 7.60393 6.93594 7.60393C6.95936 7.6079 6.96512 7.6719 6.99418 7.6719C7.02324 7.6719 7.11847 7.6335 7.21946 7.50294C7.21562 7.55542 7.15738 8.08355 7.46996 8.43888C7.5282 8.37091 7.67578 8.14563 7.67578 8.14563L7.67962 8.07382C7.67962 8.07382 7.69319 7.82332 7.77485 7.5942C7.85652 7.36508 8.01562 7.19612 8.01562 7.19612L8.84647 6.00969L8.72218 5.59229L8.72244 5.59241Z" fill="#E6C367"/>
<path fill-rule="evenodd" clip-rule="evenodd" d="M7.94525 7.33425C7.90721 7.36113 7.8653 7.38206 7.82096 7.39633C7.8074 7.34781 7.78794 7.18077 7.9025 7.0177C8.03652 6.82148 8.32964 6.56714 8.41117 6.3649C8.46365 6.23473 8.44036 5.90858 8.9064 5.49105C9.37245 5.07351 9.55485 4.92989 9.55485 4.92989L10.3083 4.55127L11.2345 4.91633L10.7743 6.71985L10.4171 7.56465L8.99626 7.29674L7.94512 7.33425H7.94525Z" fill="#DCBA5A"/>
<path fill-rule="evenodd" clip-rule="evenodd" d="M8.48828 6.84444L8.66505 6.62312V6.46581C8.66505 6.46581 8.86114 6.41333 9.07273 6.19778C9.28431 5.98223 9.57756 5.56866 9.83587 5.59388C10.0942 5.62306 10.1194 6.15503 10.1291 6.30466C10.1388 6.45429 10.1719 6.79388 10.2242 6.97653C10.2825 7.15906 9.5951 7.85026 9.5951 7.85026L9.12828 8.20559L8.48828 6.84444Z" fill="#E9CE77"/>
<path fill-rule="evenodd" clip-rule="evenodd" d="M9.03516 8.68741C9.03516 8.68741 9.1789 8.46213 9.07356 8.41362C9.13564 8.27384 9.2502 8.12626 9.2502 8.12626C9.2502 8.12626 9.33173 7.9244 9.5958 7.67582C9.85986 7.42725 10.0231 7.26213 10.0658 7.09522C10.0922 6.98644 10.1065 6.87509 10.1086 6.76318C10.1371 6.78651 10.1676 6.80728 10.1998 6.82526C10.2426 6.84472 10.4444 7.01163 10.4154 7.34763C10.3863 7.68363 10.2618 7.82341 10.2618 7.82341C10.2618 7.82341 10.1415 7.94373 10.0561 8.00594C9.96469 8.06802 9.9318 8.13982 9.77832 8.14571C9.7941 8.13317 9.81183 8.12331 9.8308 8.11653C9.8308 8.11653 9.67157 8.0972 9.58607 8.17477C9.50056 8.25234 9.3188 8.49131 9.22754 8.56325C9.13628 8.62149 9.03554 8.68754 9.03554 8.68754L9.03516 8.68741Z" fill="#CDAE50"/>
<path fill-rule="evenodd" clip-rule="evenodd" d="M15.4914 4.91039C15.262 4.82679 15.0209 4.77962 14.7769 4.77062C14.3691 4.75705 13.773 4.78035 13.1886 4.78419C12.5594 4.78803 11.9886 4.56863 11.1964 4.52985C11.0663 4.45215 10.7356 4.11231 9.70312 4.8327C9.7652 4.82886 10.4527 4.67347 10.6914 4.9726C10.9322 5.26969 10.8642 5.77452 10.8313 5.89484C10.7691 6.16287 10.5671 6.55315 10.4857 6.82694C10.4043 7.10073 10.4235 7.2446 10.3653 7.4366C10.307 7.6286 10.1789 7.72396 10.2545 7.94527C10.3555 7.88319 10.4081 7.88319 10.5769 7.50457C10.7456 7.12595 10.7109 6.85599 10.9905 6.53561C11.2643 6.21331 11.7201 5.77247 11.8935 5.66175C12.0668 5.55103 13.4429 4.83654 14.8838 5.51814C15.2313 5.48127 15.4915 4.91027 15.4915 4.91027L15.4914 4.91039Z" fill="#D2A83E"/>
<path fill-rule="evenodd" clip-rule="evenodd" d="M10.283 4.64642C10.2815 4.63183 10.2783 4.61747 10.2734 4.60367C10.2599 4.57527 10.2422 4.54908 10.2209 4.52597C10.2209 4.52597 9.87912 4.46389 9.70632 4.48322C9.40335 4.51625 9.12956 4.89103 9.00143 5.08329C8.8733 5.27554 8.71407 5.5725 8.54127 5.72597C8.54316 5.71102 8.53971 5.69588 8.53154 5.68322C8.53154 5.68322 8.54127 5.69679 8.52194 5.71625C8.50261 5.7357 8.50248 5.7453 8.51221 5.75465L8.5414 5.7837C8.551 5.7837 8.81903 5.66325 9.18408 5.3229C9.57243 4.96757 9.86952 4.7853 10.0249 4.72284C10.1078 4.68762 10.1944 4.66198 10.2831 4.64642H10.283Z" fill="#C29637"/>
<path fill-rule="evenodd" clip-rule="evenodd" d="M16.9135 3.18652C16.9135 3.18652 16.8513 3.26409 16.7736 3.3496C16.6008 3.53212 16.3755 3.73782 16.1833 3.94953C16.0009 4.15152 15.7951 4.30883 15.5639 4.57289C15.3327 4.83696 15.0647 5.13008 14.9969 5.21558C14.9348 5.30108 14.8863 5.44086 14.8863 5.51267C14.8532 5.48937 14.8145 5.46416 14.8145 5.46416C14.8308 5.49464 14.8503 5.5233 14.8727 5.54966C14.9212 5.61763 14.9969 5.70326 15.0358 5.75548C15.0835 5.82197 15.1178 5.89715 15.1366 5.9768C15.1599 5.98064 15.3094 6.00982 15.4959 5.703C15.6824 5.39619 15.9269 5.06032 15.9269 5.06032L16.3153 4.48355L16.56 3.99433L16.8672 3.44675L16.9139 3.18652H16.9135Z" fill="#AC8132"/>
<path fill-rule="evenodd" clip-rule="evenodd" d="M17.3112 2.79443C17.3112 2.79443 17.0762 2.98643 16.9849 3.10163C16.8937 3.21683 16.6777 3.51917 16.6777 3.51917L16.7554 3.50944L17.1497 3.16L17.3033 2.88621L17.3111 2.79495L17.3112 2.79443Z" fill="#A88F33"/>
<path fill-rule="evenodd" clip-rule="evenodd" d="M17.2393 18.2251C17.2393 18.2251 17.2355 18.0659 17.3248 17.9708C17.4161 17.8756 17.6471 17.7358 17.8724 17.2115C18.0977 16.6872 18.1228 16.5688 18.1228 16.5688C18.1228 16.5688 17.7189 16.9144 17.47 16.996C17.5282 16.8755 17.5612 16.7901 17.5904 16.7279C17.5574 16.6989 17.4176 16.6658 17.404 16.6504C17.4816 16.5727 17.5244 16.3823 17.6817 16.2561C17.8837 16.1025 18.2526 15.8386 18.5393 15.6033C18.826 15.3681 19.3897 14.8209 19.4616 14.6616C19.5044 14.7237 19.514 14.7625 19.514 14.7625C19.514 14.7625 19.2306 15.1315 19.083 15.3664C18.9528 15.5684 18.9626 15.6829 18.9626 15.6829L19.2306 15.5677C19.2306 15.5677 19.3082 15.8551 18.9568 16.2921C19.1104 16.2338 19.1724 16.2688 19.2597 16.2201C19.1159 16.3115 18.9179 16.4358 18.7315 16.7775C18.549 17.1192 18.3004 17.5173 17.8811 17.7657C17.4733 18.0279 17.2383 18.224 17.2383 18.224L17.2393 18.2251Z" fill="#A67A2E"/>
<path fill-rule="evenodd" clip-rule="evenodd" d="M16.1872 5.11266C16.1872 5.11266 16.0279 5.44456 16.0046 5.70287C16.0008 5.76508 15.9852 5.81359 15.9852 5.8854C15.9813 6.11644 15.9987 6.37474 15.9468 6.49506C15.9273 6.44655 15.9176 6.41352 15.8981 6.3942C15.8691 6.47573 15.8166 6.73007 15.7739 6.82517C15.7545 6.76309 15.7118 6.54754 15.7157 6.2932C15.7197 6.03887 15.7253 5.99023 15.7253 5.93788C15.7157 6.01544 15.6633 6.1204 15.6438 6.18248C15.6147 6.13013 15.5817 6.06216 15.5428 6.00584C15.5195 6.04424 15.4905 6.10095 15.4652 6.13013C15.4613 6.10684 15.4517 6.04463 15.4458 5.95733C15.4419 5.85634 15.4361 5.72629 15.4419 5.69903C15.4515 5.64668 15.5332 5.44085 15.706 5.25244C15.9118 5.02716 16.1235 4.59426 16.1856 4.46024C16.2477 4.32623 16.5118 3.76904 16.5118 3.76904H16.7138L16.4205 4.43695C16.4205 4.43695 16.2439 4.802 16.1526 4.93615C16.0613 5.07029 15.8691 5.45467 15.7836 5.60418C15.8457 5.52264 15.8981 5.47989 15.9603 5.40219C16.0205 5.34779 16.1874 5.11292 16.1874 5.11292L16.1872 5.11266Z" fill="#8C6228"/>
<path fill-rule="evenodd" clip-rule="evenodd" d="M17.3146 2.76904C17.2816 2.87059 17.2295 2.96487 17.161 3.0468C17.0406 3.19055 16.7822 3.38267 16.6562 3.53602C16.541 3.68552 16.3106 4.09333 16.4153 4.57679C16.4537 4.47195 16.526 4.26421 16.7182 4.0292C16.9105 3.79419 17.1163 3.52437 17.2174 3.31471C17.3183 3.103 17.3319 2.93608 17.3319 2.93608L17.3703 2.88757L17.347 2.77685L17.314 2.76904H17.3146Z" fill="#CBA94C"/>
<path fill-rule="evenodd" clip-rule="evenodd" d="M21.246 15.6486C21.246 15.6486 21.1683 15.437 21.145 15.2448C21.1217 15.0525 21.1834 15.0144 21.112 14.7943C21.0692 14.6603 20.9917 14.6791 20.9722 14.6603C20.9528 14.6415 20.9392 14.439 20.943 14.3283C20.9469 14.2176 20.9392 14.0739 20.9197 14.0117C20.8907 13.9884 20.8712 13.969 20.8285 13.8254C20.78 13.6816 20.7567 13.6098 20.7334 13.5672C20.7101 13.5246 20.642 13.4857 20.642 13.4429C20.642 13.3574 20.7197 13.3129 20.7197 13.2893C20.7158 13.2408 20.6576 13.2797 20.642 13.266C20.6227 13.2427 20.6906 13.1029 20.6654 13.0835C20.6557 13.0739 20.5877 13.1554 20.5702 13.1321C20.5507 13.1087 20.5274 12.8777 20.4925 12.7243C20.4596 12.5748 20.4245 12.4661 20.4207 12.4215C20.4168 12.3787 20.1526 11.6253 20.0886 11.4428C20.0371 11.2885 19.9936 11.1317 19.9586 10.9729C19.9391 10.8816 19.9256 10.6951 19.9158 10.7146C19.9061 10.734 19.912 10.8291 19.8964 10.8253C19.8828 10.8213 19.8343 10.4894 19.8188 10.437C19.8052 10.3845 19.7236 10.2066 19.7036 10.0778C19.6842 9.94761 19.6415 9.60777 19.6123 9.37673C19.5832 9.14569 19.5696 9.05059 19.5696 8.99273C19.5744 8.85122 19.5666 8.70956 19.5463 8.56943C19.5079 8.3247 19.4311 8.02761 19.3638 7.85494C19.2337 7.52867 18.888 6.69372 18.8262 6.48598C18.8262 6.4335 18.8941 6.46268 18.8941 6.46268C18.8941 6.46268 19.063 6.88598 19.1873 7.21212C19.3077 7.53839 19.4223 7.82575 19.4515 7.85494C19.4747 7.88399 19.6573 8.20438 19.7388 8.72867C19.8203 9.25295 19.8494 9.73641 19.898 10.0587C19.9213 10.2123 19.9408 10.3753 19.9893 10.5383C20.0417 10.7151 20.1232 10.8976 20.2301 11.1772C20.3213 11.4122 20.3893 11.6083 20.4262 11.7772C20.4689 11.9928 20.4689 12.1559 20.4941 12.2627C20.5176 12.354 20.5524 12.5364 20.634 12.8003C20.7157 13.0643 20.8359 13.4042 20.9174 13.6158C21.0768 14.0391 21.1478 14.3925 21.1719 14.581C21.1931 14.7751 21.2651 15.447 21.2456 15.6489L21.246 15.6486Z" fill="#A88F33"/>
<path fill-rule="evenodd" clip-rule="evenodd" d="M17.3248 2.74576L17.3151 2.76906C17.3151 2.76906 17.3442 2.77879 17.3384 2.8177C17.3388 2.87094 17.3356 2.92414 17.3287 2.97693C17.3191 3.0449 17.2996 3.09725 17.2958 3.14C17.2958 3.23127 17.3093 3.3361 17.1806 3.59632C17.1422 3.66813 17.1185 3.73021 17.099 3.77296C17.0505 3.87779 17.0408 3.89341 16.998 3.94192C17.066 3.90352 17.3107 3.74992 17.4349 3.77296C17.3495 3.82147 17.2194 3.91671 17.1378 4.04099C17.1573 4.04483 17.2388 4.06045 17.3682 4.04099C17.5838 4.00797 17.8245 3.93027 18.0361 3.94576C18.2673 3.95933 18.176 3.66813 18.176 3.66813L17.9093 3.08176L17.4044 2.72656L17.3248 2.74589V2.74576Z" fill="#BE9C44"/>
<path fill-rule="evenodd" clip-rule="evenodd" d="M18.6407 7.13774C18.6407 7.13774 18.4155 6.91246 18.3242 6.13934C18.2329 5.36264 18.2524 4.21934 18.2524 4.21934L18.0699 3.77275C18.0699 3.77275 18.0315 3.47566 17.9358 3.36507C17.8402 3.25448 17.6524 3.06798 17.5669 2.97672C17.4814 2.88545 17.3844 2.76117 17.3262 2.74171C17.3552 2.6932 17.4854 2.41941 17.9843 2.41557C18.4833 2.41173 18.6371 2.68936 18.6892 2.79035C18.7413 2.89134 18.9766 3.32795 19.0639 4.15995C19.1454 4.99093 19.1494 5.05313 19.1358 5.34049C19.1261 5.49973 19.0736 5.86862 18.9822 6.26273C18.8988 6.59681 18.8075 6.96968 18.6405 7.13851L18.6407 7.13774Z" fill="#A17C34"/>
<path fill-rule="evenodd" clip-rule="evenodd" d="M17.9344 7.80016C18.0095 7.80558 18.0845 7.78865 18.15 7.75152C18.2218 7.74768 18.482 7.7807 18.6819 7.52637C18.6955 7.58448 18.7306 7.74192 18.6392 7.8817C18.6878 7.83306 18.7596 7.81373 18.7694 7.80016C18.7732 7.87197 18.8412 8.09328 18.5538 8.63114C18.6314 8.54576 18.7226 8.5496 18.8042 8.53987C18.8081 8.64086 18.8624 8.98058 18.7188 9.16323C18.6237 9.28752 18.4683 9.24861 18.4683 9.24861C18.4706 9.22148 18.4706 9.1942 18.4683 9.16707C18.4645 9.11459 18.445 9.06224 18.4587 9.0273C18.3836 8.993 18.3152 8.94563 18.2567 8.88739C18.0878 8.72816 17.8684 8.45642 17.8529 8.25443C17.8334 8.02915 18.0354 7.98064 18.0354 7.98064C18.0185 7.9655 18.0041 7.94779 17.9927 7.92816C17.9829 7.89526 17.9732 7.84278 17.9344 7.80016Z" fill="#8C6228"/>
<path fill-rule="evenodd" clip-rule="evenodd" d="M16.4371 5.35732C16.4371 5.35732 16.4274 5.34376 16.375 5.40584C16.3847 5.34376 16.3945 5.28539 16.3983 5.22907C16.4231 5.17693 16.4551 5.12857 16.4935 5.08545C16.4643 5.14356 16.4449 5.19604 16.4449 5.19604C16.4449 5.19604 16.5168 5.06203 16.6217 4.98049C16.6935 4.92225 16.7847 4.89512 16.8235 4.84072C16.8663 4.78248 16.8565 4.77275 16.8663 4.76302C16.8663 4.76302 16.9615 4.70094 17.1072 4.51828C17.1265 4.49499 17.1557 4.46977 17.1751 4.44648C17.208 4.43291 17.2857 4.39796 17.377 4.35124C17.4722 4.29889 17.579 4.22708 17.645 4.19764C17.7751 4.1394 17.913 4.14529 17.977 4.0539C18.0256 4.04033 18.0779 3.89467 18.0683 3.77051C18.1401 3.79956 18.509 4.02868 18.6354 4.52968C18.7266 4.885 18.5634 5.43259 18.4954 5.69678C18.4275 5.96097 18.4179 6.15694 18.3226 6.27726C18.2022 6.43662 17.814 6.66126 17.7187 6.77249C17.6372 6.86376 17.3926 7.0948 17.4022 7.26171C17.4119 7.386 17.5653 7.45371 17.5984 7.47726C17.6316 7.50081 17.6313 7.52974 17.6935 7.51566C17.7557 7.50158 17.7789 7.47291 17.8042 7.47291C17.8333 7.47675 17.8333 7.48264 17.8469 7.48264C17.8567 7.48234 17.8665 7.48101 17.8761 7.47867C17.8761 7.47867 17.8663 7.65544 17.4528 7.70907C17.4236 7.71304 17.3945 7.72264 17.3575 7.72852C17.4062 7.70523 17.4352 7.70523 17.4877 7.63342C17.4295 7.62369 17.2624 7.61396 17.2197 7.6004C17.2332 7.5771 17.2779 7.51489 17.3148 7.48584C17.3478 7.45678 17.3109 7.44744 17.2819 7.46254C17.2319 7.49658 17.1839 7.5335 17.1381 7.57313C17.0896 7.61588 17.0469 7.67412 16.9692 7.72673C16.9459 7.64904 16.9497 7.50145 17.0411 7.3947C17.0177 7.39854 16.973 7.46651 16.9304 7.45294C16.9227 7.38211 16.9273 7.31049 16.944 7.24123C16.9673 7.1538 17.0935 7.00046 17.0935 7.00046L17.7031 5.91105L17.8332 5.08584L16.4371 5.35707V5.35732Z" fill="#92723A"/>
<path fill-rule="evenodd" clip-rule="evenodd" d="M16.4033 5.40372C16.4033 5.40372 16.3703 5.42702 16.4364 5.47169C16.4266 5.48526 16.4033 5.53377 16.3742 5.5668C16.3413 5.6052 16.3062 5.629 16.2926 5.66203C16.2636 5.73 16.2403 5.77659 16.2403 5.80577C16.2403 5.83496 16.2305 6.02132 16.149 6.14164C16.1198 6.1844 16.0868 6.2562 16.0635 6.30472C16.015 6.39009 15.9722 6.45832 15.9625 6.49672C15.9432 6.56468 15.9296 6.75105 15.9296 6.75105C15.9296 6.75105 15.9724 6.69857 15.9878 6.67924C15.9644 6.72776 15.9392 6.78011 15.9023 6.81902C15.9256 6.79956 15.9936 6.75105 16.1082 6.65006C16.2674 6.51617 16.516 6.29089 16.819 6.11246C16.7276 6.14548 16.65 6.14548 16.5879 6.15521C16.6364 6.1067 17.0733 5.59406 17.3024 5.54555C17.3163 5.52791 17.3232 5.50576 17.3219 5.48334L17.1256 5.46401L16.7276 5.54939L16.6694 5.24219L16.4033 5.40334V5.40372Z" fill="#B18E3E"/>
<path fill-rule="evenodd" clip-rule="evenodd" d="M17.0373 7.15155C17.0373 7.15155 16.9848 7.2039 16.9363 7.33407C16.899 7.29507 16.8669 7.2513 16.8411 7.2039C16.7693 7.08358 16.6587 6.93011 16.4004 7.01753C16.3965 6.93599 16.3907 6.89324 16.4004 6.835C16.4431 6.8254 16.5732 6.72057 16.7032 6.5671C16.7946 6.46226 16.88 6.34182 16.9382 6.18847C16.9766 6.15929 17.0431 6.11078 17.1302 6.05446C17.2545 5.96908 17.404 5.85247 17.4273 5.72243C17.3691 5.74572 17.2448 5.80396 17.0583 5.79436C17.1302 5.76134 17.2408 5.72639 17.2273 5.58265C17.2564 5.56319 17.2797 5.54963 17.2797 5.54963C17.2579 5.54232 17.2348 5.53903 17.2118 5.5399C17.2078 5.52633 17.202 5.507 17.169 5.5166C17.136 5.5262 17.1306 5.52633 17.1263 5.5399C17.1127 5.54386 17.068 5.5399 17.035 5.56332C17.002 5.58675 16.9107 5.66419 16.8758 5.67775C16.8893 5.65446 16.9087 5.61964 16.9087 5.61964C16.9087 5.61964 16.8136 5.62924 16.7456 5.65804C16.6213 5.70079 16.4777 5.77849 16.332 5.85414C16.3456 5.83084 16.3515 5.81574 16.3611 5.81139C16.3707 5.80703 16.3941 5.80179 16.3941 5.79782C16.3941 5.79385 16.3845 5.75942 16.3903 5.74546C16.4338 5.65321 16.4852 5.56486 16.5439 5.4814C16.6118 5.39001 16.6254 5.25996 16.6254 5.25996L16.9225 5.11046L17.7574 4.91846L18.2993 4.95148L18.2313 5.32626L17.9113 5.9806L17.6375 6.5767L17.3248 6.94188L17.0374 7.15155H17.0373Z" fill="#543E26"/>
<path fill-rule="evenodd" clip-rule="evenodd" d="M18.3896 5.52941C18.3896 5.52941 18.0633 5.93325 17.9721 5.99546C18.0303 5.87117 18.3896 5.13133 18.5196 4.9255C18.4906 4.90221 18.4517 4.90221 18.5429 4.5415C18.4654 4.7239 18.4381 4.81914 18.3741 4.86765C18.3101 4.91616 18.3022 4.90067 18.2589 4.90067C18.2671 4.88589 18.2704 4.86894 18.2685 4.85216C18.2685 4.85216 17.9947 4.81914 17.8077 4.81914C17.6207 4.81914 17.2505 4.92013 17.0446 5.00166C16.8815 5.06963 16.7902 5.06963 16.732 5.11226C16.6737 5.16077 16.6407 5.21325 16.6115 5.22682C16.5882 5.24038 16.4777 5.27533 16.4523 5.31219C16.429 5.35059 16.3902 5.39373 16.3902 5.40346C16.3902 5.41318 16.3805 5.42688 16.4097 5.41702C16.4193 5.41318 16.4912 5.37427 16.5728 5.32576C16.6833 5.26368 16.8174 5.19187 16.9145 5.14912C17.1921 5.0384 17.2796 5.05786 17.4037 5.03456C17.5338 5.01126 17.7203 4.95686 17.8444 4.95686C17.9687 4.95302 18.2037 4.95686 18.2581 4.96659C18.2348 4.98605 18.2154 5.00934 18.2251 5.09088C18.2251 5.11418 18.2057 5.13939 18.1867 5.19571C18.1286 5.35494 18.0179 5.61901 17.9563 5.75302C17.8709 5.93542 17.7739 6.0889 17.7259 6.184C17.6779 6.2791 17.5723 6.5296 17.4677 6.66362C17.3632 6.79763 17.3085 6.87917 17.2757 6.90835C17.243 6.93754 17.0077 7.11021 17.0252 7.17242C17.068 7.15885 17.3379 7.05722 17.5339 6.83654C17.7299 6.61587 17.7689 6.48122 17.9223 6.36077C18.0756 6.24032 18.1961 6.03846 18.2679 5.87155C18.328 5.71616 18.3145 5.66765 18.3901 5.52979L18.3896 5.52941Z" fill="#806031"/>
<path fill-rule="evenodd" clip-rule="evenodd" d="M11.3588 8.54386C11.3588 8.54386 11.3161 8.7205 11.2189 8.80792C11.1238 8.89343 10.9549 8.96716 10.9356 9.1109C10.9123 9.25452 11.1045 9.32645 11.1045 9.32645C11.1045 9.32645 10.9996 9.49925 10.9996 9.6293C10.9996 9.76332 10.9957 9.78853 11.0093 9.91666C10.9939 9.92657 10.9808 9.93966 10.9709 9.95506C10.9709 9.95506 10.9805 10.0793 11.0757 10.1569C11.1709 10.2345 11.2524 10.2812 11.3009 10.2617C11.3083 10.2776 11.3148 10.2938 11.3203 10.3104C11.3203 10.3104 11.3923 10.1279 11.4408 9.96863C11.4893 9.80556 11.532 9.82872 11.5514 9.60933C11.5707 9.38994 11.7818 9.01324 11.7818 9.01324L11.9258 8.69132L11.6909 8.50879L11.3588 8.54373V8.54386Z" fill="#B6903C"/>
<path fill-rule="evenodd" clip-rule="evenodd" d="M11.7962 8.86035C11.7477 8.91007 11.703 8.96329 11.6624 9.01958C11.6003 9.10509 11.5518 9.18266 11.4605 9.21581C11.3693 9.24896 11.311 9.2487 11.3168 9.3401C11.3226 9.43149 11.4081 9.47014 11.4566 9.51674C11.5091 9.56525 11.5518 9.64678 11.5285 9.73818C11.5576 9.72461 11.61 9.70899 11.6586 9.60416C11.7071 9.49933 12.0464 8.86048 12.0464 8.86048H11.7962V8.86035Z" fill="#685026"/>
<path fill-rule="evenodd" clip-rule="evenodd" d="M13.1343 7.38651C13.1343 7.38651 13.1633 7.30894 13.1343 7.25262C13.1051 7.19438 12.9284 7.17493 12.841 7.10888C12.7497 7.04091 12.639 6.99368 12.5478 7.0235C12.5613 6.99048 12.6157 6.91854 12.5711 6.90305C12.5283 6.88948 12.3692 6.96129 12.3264 6.99432C12.2837 7.02734 12.1865 7.06612 12.1672 7.08955C12.1479 7.11297 12.1147 7.15752 12.0953 7.13806C12.0758 7.12449 12.0662 7.08955 12.0332 7.10888C12.0002 7.12821 11.8412 7.25838 11.8119 7.33416C11.7826 7.40993 11.7167 7.57889 11.5186 7.77102C11.3206 7.96315 11.2351 8.08757 11.2934 8.15937C11.3516 8.23118 11.3789 8.17883 11.3886 8.24091C11.3961 8.30185 11.3928 8.36364 11.3789 8.42344C11.3556 8.52443 11.3168 8.61953 11.3691 8.63899C11.5031 8.68174 11.6333 8.60059 11.6624 8.62542C11.7206 8.67777 11.6294 8.86619 11.7672 8.90305C11.9071 8.94145 12.045 8.87003 12.045 8.87003L12.5536 8.59624L13.043 8.33806L13.2934 7.84283L13.1591 7.42926L13.1335 7.38651H13.1343Z" fill="#D4B968"/>
<path fill-rule="evenodd" clip-rule="evenodd" d="M12.6539 8.56879C12.6539 8.56879 12.5684 8.43874 12.6734 8.32405C12.7783 8.20936 12.9277 8.16098 12.986 8.08917C12.9749 8.07549 12.96 8.06539 12.9432 8.06011C12.9819 7.99093 13.0408 7.9353 13.1122 7.90075C13.0831 7.8717 13.0442 7.8484 13.0016 7.8484C12.9063 7.8484 12.848 7.90664 12.7607 7.90664C12.6753 7.90664 12.6656 7.86389 12.6656 7.86389C12.6656 7.86389 12.8093 7.85032 12.7956 7.78619C12.7821 7.71822 12.7572 7.71822 12.7572 7.71822C12.7572 7.71822 13.0349 7.60303 13.0834 7.54159C13.1319 7.48015 13.1261 7.40757 13.1358 7.37851C13.1687 7.37851 13.361 7.27752 13.4387 7.32027C13.5164 7.36302 13.462 7.4795 13.462 7.4795C13.462 7.4795 13.6971 7.30274 13.8169 7.12942C13.9218 7.13915 13.9705 7.05762 14.0473 7.05762C14.1426 7.05762 14.2921 7.18766 14.3211 7.4653C14.3406 7.62453 14.3696 7.71579 14.3406 7.99739C14.327 8.15662 14.3309 8.49659 14.379 8.6653C14.4119 8.79931 14.4896 8.78575 14.4896 8.78575C14.4777 8.82658 14.454 8.86303 14.4216 8.89058C14.3691 8.93909 14.3634 9.06734 14.3691 9.11586C14.3769 9.15132 14.3866 9.18632 14.3983 9.22069C14.3983 9.22069 14.3362 9.2925 14.3206 9.34114C14.307 9.38965 14.243 9.42267 14.1963 9.42267C14.1496 9.42267 14.173 9.4187 14.1109 9.42267C14.0489 9.42664 14.0294 9.43624 13.9905 9.42267C13.9516 9.4091 13.9225 9.39349 13.9382 9.26907C13.9517 9.14478 13.4585 8.8555 13.4585 8.8555L12.6521 8.56815L12.6539 8.56879Z" fill="#CCA849"/>
<path fill-rule="evenodd" clip-rule="evenodd" d="M11.7272 9.79624C11.7272 9.79624 11.9038 10.0313 12.6301 10.0313C12.9757 10.0313 13.0962 9.99823 13.1677 9.97877C13.2454 9.95932 13.5366 9.84488 13.8299 9.49916C14.0939 9.18658 14.0357 9.05845 14.0357 9.05845L13.8821 9.03516L13.3829 9.10312L11.9058 9.73224L11.7266 9.79624H11.7272Z" fill="#585136"/>
<path fill-rule="evenodd" clip-rule="evenodd" d="M12.2697 9.85445C12.2697 9.85445 11.6406 9.99436 11.6406 9.59628C11.6406 9.20792 12.029 8.80012 12.1261 8.72831C12.2271 8.65637 12.4679 8.57471 12.4679 8.57471H13.0485L13.1591 8.86795L13.1106 9.50091L12.2697 9.85432V9.85445Z" fill="#252211"/>
<path fill-rule="evenodd" clip-rule="evenodd" d="M12.8508 8.69335C12.8508 8.69335 12.7305 8.58263 12.4567 8.73175C12.1829 8.88087 11.9614 9.19255 11.9479 9.47556C11.9343 9.72592 12.1537 9.91242 12.4954 9.92215C12.7498 9.93175 12.9033 9.90269 12.9809 9.88375C12.9615 9.86045 12.8605 9.73424 12.8605 9.73424L12.8509 8.69348L12.8508 8.69335Z" fill="#C3B378"/>
<path fill-rule="evenodd" clip-rule="evenodd" d="M12.7312 8.75534C12.7312 8.75534 12.7021 8.73204 12.616 8.77863C12.5442 8.81703 12.4393 8.91854 12.3578 8.99034C12.3053 9.0331 12.2723 9.05242 12.2426 9.08545C12.1221 9.22919 12.0211 9.4642 12.0795 9.58068C12.1379 9.69716 12.33 9.83118 12.8194 9.73991L12.7298 8.75546L12.7312 8.75534Z" fill="#E6D89C"/>
<path fill-rule="evenodd" clip-rule="evenodd" d="M12.5736 8.99611C12.5736 8.99611 12.4959 9.11656 12.4959 9.30882C12.4959 9.50491 12.6066 9.81749 13.0144 9.84078C13.327 9.86024 13.5366 9.39035 13.7638 9.20782C13.9366 9.06805 14.0415 9.06408 14.0415 9.06408C14.0415 9.06408 13.8648 8.87208 13.393 8.62338C12.927 8.37288 12.4046 8.33986 12.1211 8.72437C12.2551 8.71464 12.6881 8.60392 12.6881 8.60392L12.8998 8.67189L12.5736 8.99624V8.99611Z" fill="#252211"/>
<path fill-rule="evenodd" clip-rule="evenodd" d="M13.1818 9.25027C13.1683 9.22122 13.1585 9.18231 13.2149 9.17271C13.2712 9.16311 13.2964 9.16874 13.3159 9.21111C13.3353 9.25347 13.3543 9.2888 13.3255 9.30634C13.2964 9.32183 13.2206 9.30634 13.1817 9.25002L13.1818 9.25027ZM13.0906 8.97648C13.0906 8.97648 13.0711 8.99005 13.0808 8.96291C13.0847 8.93002 13.11 8.87165 13.1721 8.88535C13.2342 8.89904 13.2208 8.96688 13.2105 8.98634C13.2003 9.00579 13.1484 9.03869 13.1095 9.02474C13.1046 9.02348 13.1 9.02107 13.0962 9.01771C13.0924 9.01436 13.0894 9.01014 13.0875 9.00542C13.0856 9.00069 13.0848 8.99559 13.0853 8.99051C13.0857 8.98544 13.0874 8.98055 13.0901 8.97623L13.0906 8.97648Z" fill="#6F674D"/>
<path fill-rule="evenodd" clip-rule="evenodd" d="M7.83594 9.10083C7.83594 9.10083 7.98954 9.21603 8.16797 9.21155C8.34461 9.20759 8.57181 9.02518 8.67664 8.90858C8.73872 8.84061 8.79184 8.7688 8.84944 8.71248C8.89808 8.66397 8.93098 8.64067 8.95427 8.60765C8.9873 8.56925 9.02224 8.49706 9.03978 8.47363C8.99703 8.50666 8.93495 8.56502 8.87082 8.60381C8.80874 8.64221 8.67472 8.7144 8.62032 8.73386C8.56797 8.75331 8.02423 9.04106 8.02423 9.04106L7.83594 9.10083Z" fill="#AC924C"/>
<path fill-rule="evenodd" clip-rule="evenodd" d="M8.07031 7.66613C8.07031 7.66613 8.15569 7.60789 8.32081 7.5709C8.48004 7.5325 8.80042 7.50293 8.80042 7.50293L9.06449 7.61813L9.16932 8.01621L8.97732 8.42991L8.73271 8.58351L8.45495 8.13691L8.07095 7.6669L8.07031 7.66613Z" fill="#9F8E57"/>
<path fill-rule="evenodd" clip-rule="evenodd" d="M7.7242 8.02126L7.63281 8.08948C7.63281 8.08948 7.65624 8.04673 7.67556 7.91668C7.69489 7.78663 7.79601 7.47009 7.9436 7.28756C8.09118 7.10503 8.08734 7.11476 8.08734 7.11476C8.07376 7.11228 8.05981 7.11272 8.04641 7.11605C8.03301 7.11938 8.02048 7.12553 8.00964 7.13409C8.0291 7.09108 8.15339 6.93748 8.27768 6.86068C8.40196 6.78388 8.45048 6.75969 8.58052 6.82228C8.71057 6.88487 8.7436 6.91739 8.83883 6.91355C8.93406 6.90971 9.01547 6.80871 9.01547 6.80871C9.01547 6.80871 9.03492 6.87079 8.96312 7.01454C8.89131 7.15828 8.60779 7.4514 8.60779 7.4514L8.01745 7.85524L7.7242 8.02164V8.02126Z" fill="#EAC970"/>
<path fill-rule="evenodd" clip-rule="evenodd" d="M8.16067 7.61773C8.16067 7.61773 8.58793 7.67597 8.71798 7.55565C8.72182 7.56922 8.73744 7.56922 8.73744 7.57895C8.73639 7.58628 8.73297 7.59307 8.72771 7.59828C8.74185 7.59602 8.75614 7.59473 8.77046 7.59444C8.78756 7.59953 8.80515 7.60279 8.82294 7.60416C8.83727 7.60385 8.85155 7.60253 8.86569 7.6002C8.86434 7.60985 8.86106 7.61913 8.85605 7.62748C8.85104 7.63584 8.84439 7.6431 8.83651 7.64884C8.85596 7.64884 8.87491 7.65268 8.87491 7.66816C8.87491 7.68365 8.87875 7.73037 8.85545 7.7401C8.83615 7.74544 8.81561 7.74404 8.79721 7.73613C8.79875 7.77289 8.80874 7.80881 8.8264 7.84109C8.8648 7.9129 8.94672 7.99469 9.0568 7.97114C9.0568 7.97114 9.11491 8.11092 8.8703 8.42157C8.8374 8.46432 8.80233 8.52256 8.75971 8.57107C8.74287 8.60779 8.72999 8.64619 8.72131 8.68564C8.72131 8.68564 9.135 8.5264 9.2534 8.16327C9.37385 7.79821 9.39715 7.43904 9.37385 7.10317C9.36988 7.00794 9.3544 6.9401 9.3311 6.89146C9.27286 6.77101 9.10966 6.79047 9.04374 6.85844C8.94851 6.95367 8.78928 7.19047 8.56796 7.35354C8.34268 7.51661 8.33308 7.54554 8.16016 7.61773H8.16067Z" fill="#D7BC6B"/>
<path fill-rule="evenodd" clip-rule="evenodd" d="M7.64806 8.14204C7.64806 8.14204 7.56652 8.19056 7.52377 8.37244C7.48102 8.55881 7.56217 8.78601 7.60914 8.85782C7.65612 8.92963 7.76274 9.12585 7.98393 9.13558C8.03868 9.13529 8.09281 9.12406 8.14316 9.10256C8.22037 9.06715 8.2928 9.02212 8.35871 8.96854C8.45394 8.89673 8.53151 8.83465 8.52178 8.82876C8.49849 8.81904 7.93542 8.35299 7.93542 8.35299L7.7237 8.1167L7.64793 8.1423L7.64806 8.14204Z" fill="#585136"/>
<path fill-rule="evenodd" clip-rule="evenodd" d="M8.1804 8.91461C8.1804 8.91461 8.29496 8.90501 8.36292 8.86225C8.43089 8.8195 7.96484 8.35742 7.96484 8.35742L7.99787 8.85662L8.1804 8.91461Z" fill="#453A25"/>
<path fill-rule="evenodd" clip-rule="evenodd" d="M7.68516 8.10654C7.68516 8.10654 7.62692 8.21726 7.62692 8.24645C7.61719 8.34155 7.64638 8.64056 7.66967 8.73566C7.69297 8.83666 7.81918 8.99 7.98238 8.99C8.08324 8.99 8.22315 8.92792 8.22315 8.91243C8.22315 8.89298 8.0794 8.87403 8.04062 8.80171C8.01732 8.76331 8.00759 8.66782 8.00222 8.57131C7.99838 8.50923 7.99838 8.44126 8.02167 8.41771C8.07415 8.35947 8.08375 8.19243 8.08375 8.19243L8.27012 7.84619H8.025L7.73175 8.02872L7.68516 8.10654Z" fill="#84754B"/>
<path fill-rule="evenodd" clip-rule="evenodd" d="M7.61328 8.21374C7.61328 8.21374 7.80528 7.9594 7.97834 7.90103C8.15139 7.84267 8.22883 7.87774 8.22883 7.87774L8.12784 8.13604L7.9841 8.29527L7.99382 8.37681C7.99382 8.37681 7.9704 8.59236 8.11415 8.74187C8.25789 8.89137 8.36464 8.88561 8.42685 8.88561C8.48906 8.88561 8.66762 8.83313 8.75888 8.61758C8.84042 8.41572 8.90839 8.15678 8.74531 7.89719C8.58595 7.63889 8.30448 7.62891 8.25008 7.62891C8.19568 7.62891 7.76855 7.65028 7.61328 8.21335V8.21374Z" fill="#252211"/>
<path fill-rule="evenodd" clip-rule="evenodd" d="M12.5442 9.07783C12.4724 9.0448 12.5404 8.84295 12.6122 8.78074C12.684 8.71853 12.7753 8.64685 12.9346 8.63699C12.9927 8.63315 13.0491 8.67002 13.0395 8.70893C13.0259 8.78074 12.9249 8.88173 12.8336 8.95354C12.7074 9.05261 12.6258 9.11469 12.5442 9.07783Z" fill="#F7F7E7"/>
<path fill-rule="evenodd" clip-rule="evenodd" d="M8.65944 7.9768C8.71192 7.97296 8.77989 8.0152 8.79346 8.07204C8.80703 8.13412 8.76044 8.2584 8.65944 8.2584C8.57791 8.2584 8.53516 8.15741 8.53516 8.12836C8.53607 8.10447 8.54275 8.08115 8.55461 8.06039C8.55845 8.0545 8.56818 7.98653 8.65944 7.9768Z" fill="#F8F6DE"/>
<path fill-rule="evenodd" clip-rule="evenodd" d="M7.90329 8.02148C7.90329 8.02148 7.76927 8.08356 7.70719 8.21348C7.66283 8.30942 7.64941 8.41678 7.66879 8.52068C7.67852 8.5692 7.72703 8.68952 7.76006 8.73227C7.79308 8.77502 7.83775 8.8042 7.87078 8.80024C7.9038 8.79627 7.97164 8.70897 7.97164 8.65662C7.97164 8.60427 7.97561 8.38283 8.03961 8.26238C8.09593 8.14206 7.90367 8.02161 7.90367 8.02161L7.90329 8.02148Z" fill="#D4C38B"/>
<path fill-rule="evenodd" clip-rule="evenodd" d="M7.92312 8.01193C7.89982 8.0255 7.86104 8.04496 7.87064 8.07017C7.88037 8.09347 7.9619 8.10857 7.99109 8.16541C8.02411 8.22365 8.02411 8.28573 8.01438 8.31491C8.03975 8.30286 8.06276 8.28639 8.08235 8.26627C8.1251 8.21776 8.17745 8.15184 8.22213 8.15184C8.25131 8.15184 8.28037 8.16541 8.30763 8.16541C8.35038 8.16541 8.39301 8.15184 8.39889 8.10717C8.40849 8.04893 8.31736 7.99645 8.26488 8.00617C8.27461 7.96777 8.28817 7.91107 8.24542 7.87216C8.20267 7.83325 8.06878 7.90134 8.0396 7.9208C8.01041 7.94025 7.92312 8.01206 7.92312 8.01206V8.01193Z" fill="#E2D59D"/>
<path fill-rule="evenodd" clip-rule="evenodd" d="M11.0082 12.0912L11.2955 12.0063L11.3771 12.0646C11.3771 12.0646 11.4352 12.1889 11.5266 12.2044C11.4974 12.2664 11.4216 12.3196 11.4256 12.3636C11.4295 12.4076 11.4683 12.4413 11.4683 12.4413C11.4683 12.4413 11.21 12.8684 11.7188 13.2989C11.5984 13.3474 11.445 13.4141 11.3635 13.4525C11.4216 13.4661 11.5459 13.4909 11.5984 13.538C11.6509 13.5851 11.6509 13.6001 11.6994 13.6293C11.7479 13.6584 11.7769 13.6972 11.7673 13.7146C11.7343 13.6952 11.6236 13.6371 11.6043 13.6913C11.5849 13.7456 11.1246 13.7244 11.1246 13.7244L10.3479 13.8739C10.3479 13.8739 10.377 13.7962 10.2955 13.7244C10.2004 13.639 10.0839 13.7282 9.95959 13.6331C9.79652 13.5088 9.79063 13.3651 9.73828 13.3108C9.79063 13.2778 9.89751 13.2293 10.1518 13.1956C10.1421 13.1761 10.1091 13.1179 10.1286 13.0655C10.1518 12.9976 10.2489 12.9548 10.2198 12.8735C10.2626 12.8638 10.2819 12.8638 10.3888 12.7298C10.4898 12.5958 10.5518 12.5667 10.6295 12.557C10.7072 12.5473 10.7538 12.557 10.8976 12.423C10.9984 12.3279 10.9655 12.2463 10.9655 12.2463C10.9655 12.2463 11.0315 12.225 11.0083 12.091L11.0082 12.0912Z" fill="#CBAC5A"/>
<path fill-rule="evenodd" clip-rule="evenodd" d="M10.1587 12.1347C10.1625 12.1152 10.1781 12.1055 10.2829 12.1152C10.3878 12.1249 11.0518 12.0531 11.2324 12.0434C11.415 12.0298 12.0577 12.0394 12.3704 12.1055C12.6831 12.1715 12.9995 12.2492 13.1528 12.288C13.3064 12.3308 13.3548 12.3461 13.3489 12.3656C13.3451 12.385 13.3105 12.404 13.2907 12.3986C13.2714 12.3948 12.7626 12.2394 12.6054 12.2066C12.4482 12.1738 11.9043 12.0862 11.607 12.0914C11.3293 12.0954 11.2186 12.0876 10.9837 12.1147C10.7487 12.1439 10.3604 12.1827 10.2439 12.1672C10.1287 12.1536 10.1525 12.1536 10.1584 12.1342L10.1587 12.1347Z" fill="#D6BC6F"/>
<path fill-rule="evenodd" clip-rule="evenodd" d="M11.7226 13.6564C11.7226 13.6564 12.1206 13.872 12.2644 14.136C12.3692 14.3321 12.2023 14.4293 12.2023 14.4293C12.2023 14.4293 12.4276 14.4293 12.3984 14.5536C12.3848 14.6312 12.0101 14.8408 11.7596 14.9515C11.5052 15.0623 11.515 15.0565 11.3907 15.0758C11.2702 15.0953 10.9401 15.0374 10.8721 15.1341C10.8042 15.2307 10.8337 15.3303 10.8527 15.3458C10.8721 15.3593 11.0294 15.3788 11.0294 15.3788C11.0294 15.3788 10.9964 15.4701 10.6703 15.4798C10.3441 15.4895 10.2625 15.5127 10.243 15.5478C10.2236 15.5807 10.3051 15.5613 10.4547 15.5862C10.6042 15.6095 10.8139 15.6246 10.8139 15.6246C10.8139 15.6246 10.7459 15.6828 10.5693 15.7294C10.3673 15.7817 10.0508 15.8304 9.95566 15.8886C10.0042 15.9216 10.0761 15.9702 10.1093 15.974C10.0277 15.9935 9.91303 16.0362 9.8937 16.0517C9.92276 16.0712 9.96167 16.0944 9.96167 16.0944C9.96167 16.0944 9.79847 16.2905 9.70337 16.3392C9.60826 16.3878 9.06068 16.642 8.87226 16.5935C8.40238 16.4692 8.34414 15.9547 8.22958 15.9159C8.05678 15.8576 7.97524 15.974 7.82177 15.8925C7.88974 15.844 7.92673 15.8149 7.99854 15.7819C7.92084 15.7435 7.51892 15.4886 7.51892 15.4886C7.47689 15.397 7.43024 15.3076 7.37914 15.2207C7.30145 15.0867 7.18714 14.908 7.10138 14.7507C6.91502 14.4051 6.90529 14.2459 6.73633 14.0498C6.76551 14.0114 6.86638 14.0168 6.86638 14.0168L8.28206 14.4828L10.7923 14.5555L11.4451 13.6235L11.7227 13.6566L11.7226 13.6564Z" fill="#DFC677"/>
<path fill-rule="evenodd" clip-rule="evenodd" d="M8.00391 15.0776C8.01905 15.0945 8.03671 15.1089 8.05626 15.1204C8.1049 15.1534 8.17671 15.1923 8.22522 15.2504C8.24467 15.2213 8.29319 15.1689 8.37882 15.2504C8.46445 15.3319 8.57082 15.2738 8.63699 15.2932C8.70496 15.3166 8.7088 15.3262 8.7088 15.3262C8.7088 15.3262 8.7472 15.2932 8.83309 15.2582C8.88557 15.2388 8.94765 15.2252 9.01562 15.2059C9.0777 15.1923 9.14567 15.1728 9.19239 15.1728C9.23514 15.2019 9.38848 15.3648 10.004 15.1243C10.5846 14.899 10.7185 14.8738 10.8157 14.9086C10.8254 14.8853 10.8351 14.8407 10.9846 14.8466C10.9846 14.7845 10.8604 14.5728 10.8604 14.5728L10.1749 14.3379H9.8L8.67578 14.5437L8.0528 14.8992L8.00429 15.0784L8.00391 15.0776Z" fill="#C4A859"/>
<path fill-rule="evenodd" clip-rule="evenodd" d="M7.62891 14.6834C7.62891 14.6834 7.64247 14.7883 7.79787 14.899C7.95147 15.0096 7.99972 15.0756 7.99972 15.0756C7.99972 15.0756 8.02891 15.0372 8.0522 14.9981C8.0755 14.9553 8.09495 14.9068 8.13374 14.8932C8.21143 14.8602 8.38807 14.9223 8.42699 14.9126C8.46001 14.903 8.45028 14.835 8.48523 14.835C8.56676 14.831 8.61911 14.8873 8.6483 14.8873C8.67748 14.8873 8.74916 14.8835 8.75889 14.868C8.76862 14.8525 8.77246 14.6913 8.88318 14.6136C9.00363 14.5282 9.15121 14.565 9.19038 14.5845C9.19038 14.6136 9.19422 14.6855 9.27191 14.6893C9.34961 14.6932 9.35729 14.6796 9.42551 14.7029C9.49374 14.7262 9.57502 14.6991 9.61188 14.8135C9.64491 14.8039 9.7226 14.7942 9.70315 14.6834C9.74155 14.6544 9.77508 14.6349 9.85675 14.5204C9.8762 14.4913 9.9091 14.4583 9.93444 14.4155C10.0024 14.4155 10.0839 14.402 10.1926 14.4971C10.1596 14.5204 10.1401 14.5355 10.1305 14.5592C10.159 14.5873 10.1849 14.6178 10.2081 14.6504C10.2373 14.6888 10.2567 14.7359 10.2936 14.7457C10.3751 14.7689 10.5092 14.7359 10.6587 14.7457C10.8024 14.7554 10.9227 14.8077 10.9752 14.8408C10.9947 14.8312 10.9947 14.8272 11.0432 14.8369C11.0917 14.8466 11.1286 14.8505 11.0762 14.7884C11.1053 14.802 11.1383 14.8312 11.1675 14.802C11.1966 14.7728 11.2198 14.7302 11.3014 14.7204C11.3829 14.7107 11.4121 14.7243 11.4451 14.6389C11.4878 14.5341 11.3403 14.5341 11.3403 14.5341C11.3403 14.5341 11.4082 14.4719 11.484 14.3903C11.5753 14.3049 11.6801 14.1942 11.7053 14.0583C11.7481 13.8078 11.5035 13.7749 11.5035 13.7749L10.317 14.14L8.86654 14.068L7.62967 14.6836L7.62891 14.6834Z" fill="#927D49"/>
<path fill-rule="evenodd" clip-rule="evenodd" d="M6.56326 11.2563C6.56326 11.2563 6.52486 11.3048 6.50118 11.4194C6.4775 11.5339 6.48761 11.5203 6.46815 11.6019C6.4487 11.6834 6.20972 12.4951 6.29932 12.7689C6.38892 13.0426 6.54406 13.1436 6.64108 13.365C6.66054 13.4135 6.67948 13.4426 6.68959 13.4854C6.72262 13.629 6.69356 13.7397 6.73235 13.8835C6.74591 13.932 6.78099 13.9883 6.83334 14.0466C6.94854 14.1669 7.13631 14.2814 7.21734 14.363C7.33177 14.4834 7.49497 14.7282 7.70271 14.7513C7.81343 14.7649 7.97075 14.7183 8.10079 14.6407C8.21599 14.5688 8.28716 14.4679 8.40799 14.4103C8.49337 14.3676 8.58463 14.3521 8.66617 14.3326C8.83513 14.2996 8.9886 14.2942 9.07987 14.3132C9.21964 14.3424 9.54975 14.4434 9.73267 14.4434C9.87559 14.441 10.0177 14.4215 10.156 14.3851C10.4336 14.3036 10.7695 14.1637 10.9909 14.1016C11.121 14.0632 11.2258 14.0531 11.3327 14.0298C11.5152 13.987 11.6685 13.9288 11.756 13.8181C11.6977 13.7501 11.6259 13.6453 11.2374 13.6491C10.7967 13.6588 10.2879 13.9034 10.0374 13.9424C9.78694 13.9813 9.67827 14.0142 9.39859 13.9132C9.12441 13.8112 9.11532 13.7437 9.11532 13.7437C9.11532 13.7437 8.82745 13.5424 8.707 13.0291C8.58655 12.5158 8.707 12.1418 9.01971 11.7863C9.10124 11.6951 9.08179 11.6135 9.08179 11.6135C9.08179 11.6135 9.28761 11.3359 9.23129 11.0759C9.16921 10.8176 8.77113 10.8701 8.77113 10.8701L6.56339 11.2563H6.56326Z" fill="#6E6342"/>
<path fill-rule="evenodd" clip-rule="evenodd" d="M6.89466 12.1206C6.87754 12.1528 6.86949 12.189 6.87136 12.2254C6.8752 12.2778 6.89082 12.3458 7.048 12.4992C7.18202 12.6331 7.15283 12.7826 7.15283 12.7826C7.15283 12.7826 7.22029 12.7962 7.40333 12.7106C7.54707 12.6426 7.59533 12.763 7.59533 12.763C7.63717 12.7411 7.68252 12.7266 7.72934 12.7203C7.77176 12.7164 7.81282 12.7033 7.84966 12.6819C7.84966 12.6819 8.01862 12.8547 8.16621 12.9362C8.30022 13.0082 8.37792 13.0567 8.44397 13.0082C8.50605 12.9654 8.50605 12.878 8.50208 12.8392C8.48668 12.8034 8.46718 12.7695 8.44397 12.7382C8.40122 12.6761 8.33325 12.6042 8.32877 12.5462C8.31904 12.4123 8.42976 12.253 8.40634 12.2142C8.38291 12.1754 8.29574 12.1657 8.08019 12.2434C7.85696 12.3171 6.89376 12.121 6.89376 12.121L6.89466 12.1206Z" fill="#39331F"/>
<path fill-rule="evenodd" clip-rule="evenodd" d="M7.40427 12.9887C7.40427 12.9887 7.29368 12.8839 7.33247 12.3751C7.37942 12.3744 7.4263 12.3789 7.47224 12.3886C7.47224 12.3886 7.53253 12.7829 7.40427 12.9887Z" fill="#292311"/>
<path fill-rule="evenodd" clip-rule="evenodd" d="M6.61577 10.8681C6.6312 10.8567 6.64552 10.8439 6.65852 10.8297C6.62012 10.9016 6.44284 11.1889 6.58659 11.6414C6.73033 12.0918 7.09142 12.4277 7.53609 12.4433C7.98076 12.4589 8.21449 12.2413 8.48175 11.9152C8.58659 11.7851 8.70703 11.6219 8.81379 11.5113C8.97302 11.3384 9.09731 11.2899 9.09731 11.123C9.09731 10.7812 8.74774 10.6278 8.23318 10.4744C7.71862 10.3211 7.25449 10.34 7.01372 10.445C6.77884 10.5594 6.67785 10.6799 6.61564 10.8683L6.61577 10.8681Z" fill="#252211"/>
<path fill-rule="evenodd" clip-rule="evenodd" d="M8.26796 13.1417L8.30636 13.1222C8.30636 13.1222 8.31596 12.9686 8.37817 12.9727C8.44025 12.9825 8.46943 13.0641 8.46355 13.0932C8.45971 13.1222 8.44422 13.1709 8.38201 13.165C8.30047 13.1669 8.26758 13.1417 8.26758 13.1417H8.26796Z" fill="#3F3824"/>
<path fill-rule="evenodd" clip-rule="evenodd" d="M8.0957 12.4891C8.0957 12.4891 8.1341 12.4756 8.18108 12.5222C8.21948 12.5222 8.3869 12.5027 8.43938 12.5357C8.49186 12.5688 8.50735 12.5978 8.50735 12.5978C8.50735 12.5978 8.31125 12.6406 8.20437 12.5978C8.0957 12.561 8.0957 12.4891 8.0957 12.4891Z" fill="#2D2815"/>
<path fill-rule="evenodd" clip-rule="evenodd" d="M8.95879 12.5184C8.95879 12.5087 8.85395 12.4369 8.74323 12.4134C8.72378 12.4096 8.71981 12.4232 8.70483 12.4232C8.69511 12.4193 8.69127 12.3901 8.69127 12.3901L8.62829 12.4233C8.62829 12.4233 8.61856 12.4369 8.65159 12.4617C8.68064 12.485 8.72928 12.5044 8.74285 12.5432C8.75642 12.582 8.75642 12.5956 8.76231 12.6015C8.76615 12.6053 8.83411 12.6015 8.86714 12.582C8.90016 12.5626 8.96237 12.5308 8.9584 12.518L8.95879 12.5184Z" fill="#82764F"/>
<path fill-rule="evenodd" clip-rule="evenodd" d="M7.97852 12.9128C7.97852 12.9128 7.99784 12.7789 8.12802 12.773C8.26191 12.7633 8.28725 12.8933 8.28725 12.8933L8.20956 12.971C8.20956 12.9691 8.15132 12.8875 7.97916 12.9128H7.97852Z" fill="#2D2816"/>
<path fill-rule="evenodd" clip-rule="evenodd" d="M8.82374 12.3358C8.82374 12.3358 8.75181 12.4135 8.5927 12.4368C8.57913 12.4173 8.54995 12.3785 8.5927 12.3164C8.63545 12.2544 8.68397 12.2349 8.73248 12.2542C8.75388 12.2577 8.77385 12.2672 8.79002 12.2817C8.80619 12.2961 8.81789 12.3149 8.82374 12.3358Z" fill="#574F35"/>
<path fill-rule="evenodd" clip-rule="evenodd" d="M9.11688 12.4312C9.12085 12.4118 9.10728 12.4079 9.11688 12.3982C9.12648 12.3885 9.17909 12.3692 9.18882 12.3788C9.19266 12.3827 9.18882 12.3982 9.18882 12.4172C9.18882 12.4361 9.18882 12.4556 9.17909 12.4695C9.16552 12.489 9.12674 12.4987 9.10728 12.4929C9.08782 12.4872 9.08398 12.4599 9.08398 12.4545C9.09358 12.4507 9.11688 12.441 9.11688 12.4312ZM9.4484 12.2216C9.4484 12.2118 9.48142 12.1924 9.50088 12.1924C9.52994 12.1924 9.52994 12.2157 9.5339 12.2216C9.5435 12.2254 9.5435 12.2176 9.55323 12.2351C9.56296 12.2527 9.57666 12.2836 9.5668 12.3031C9.55694 12.3226 9.51829 12.336 9.50869 12.3322C9.49512 12.3224 9.45237 12.2351 9.4484 12.2216Z" fill="#82764F"/>
<path fill-rule="evenodd" clip-rule="evenodd" d="M8.78125 12.4757C8.78125 12.4757 8.824 12.4853 8.88224 12.534C8.86279 12.5475 8.8336 12.563 8.8336 12.563C8.8336 12.563 8.82976 12.5183 8.78125 12.4756V12.4757Z" fill="#6E6342"/>
<path fill-rule="evenodd" clip-rule="evenodd" d="M8.68513 12.0484C8.6754 12.0388 8.71419 12.0155 8.73748 12.0193C8.76078 12.0232 8.7705 12.0388 8.79572 12.0426C8.82094 12.0465 8.8249 12.0329 8.83412 12.0232C8.84334 12.0134 8.87687 12.0193 8.88263 12.0232C8.88622 12.0274 8.88947 12.032 8.89236 12.0367C8.89277 12.0294 8.89469 12.0221 8.89802 12.0155C8.90135 12.0089 8.906 12.0031 8.91169 11.9983C8.91914 11.9929 8.92773 11.9892 8.93681 11.9875C8.9459 11.9858 8.95525 11.9862 8.96417 11.9886C8.96801 12.0022 8.98746 12.0507 8.98362 12.0604C8.97978 12.0701 8.92154 12.0838 8.91169 12.074C8.92142 12.0974 8.96417 12.1459 8.96993 12.1555C8.97569 12.1651 8.92718 12.1885 8.90785 12.1847C8.88071 12.1828 8.71367 12.0856 8.68462 12.0488L8.68513 12.0484ZM8.93946 11.7261C8.93587 11.7163 8.92899 11.7081 8.92001 11.7028C8.90644 11.6989 8.86177 11.7028 8.86177 11.7261C8.86177 11.7494 8.90017 11.8797 8.9433 11.9475C8.99194 12.0155 9.02484 12.0717 9.05786 12.0873C9.06823 12.092 9.08001 12.0926 9.09081 12.089C9.10162 12.0854 9.11066 12.0779 9.1161 12.0678C9.11994 12.0581 9.12967 11.9863 9.12583 11.8173C9.12199 11.6484 9.11611 11.4853 9.10638 11.4756C9.09665 11.4659 9.05786 11.466 9.0443 11.4853C9.03073 11.5046 8.9433 11.697 8.93934 11.7261H8.93946Z" fill="#585136"/>
<path fill-rule="evenodd" clip-rule="evenodd" d="M8.76652 12.7205C8.76652 12.7205 8.69855 12.6778 8.63251 12.707C8.57043 12.7362 8.57427 12.8507 8.57427 12.8507C8.58823 12.8562 8.60332 12.8582 8.61822 12.8565C8.63313 12.8548 8.64739 12.8495 8.65977 12.841C8.70252 12.8119 8.75679 12.7634 8.76652 12.7207V12.7205Z" fill="#574F35"/>
<path fill-rule="evenodd" clip-rule="evenodd" d="M8.89582 12.8741C8.89198 12.8357 8.85742 12.8357 8.85742 12.8158C8.8598 12.8064 8.8653 12.7979 8.87303 12.792C8.88075 12.786 8.89027 12.7827 8.90005 12.7828C8.9195 12.7828 8.93845 12.8061 8.96225 12.8212C8.98555 12.8348 9.02049 12.8596 9.02433 12.8892C9.02817 12.9188 8.98593 12.9998 8.93896 12.9998C8.89198 12.9998 8.90593 12.9123 8.89621 12.8736L8.89582 12.8741ZM9.27061 12.8216C9.27061 12.8216 9.19291 12.8449 9.19867 12.8216C9.20443 12.7983 9.22209 12.7925 9.24731 12.7925C9.26012 12.7791 9.27735 12.7708 9.29582 12.7691C9.30639 12.7686 9.31676 12.7721 9.32488 12.7788C9.32488 12.7788 9.37736 12.7556 9.39285 12.7691C9.40833 12.7827 9.39681 12.7827 9.40641 12.7983C9.41864 12.8156 9.42666 12.8356 9.42984 12.8565C9.42984 12.872 9.3716 12.9051 9.32488 12.8993C9.27061 12.8876 9.28021 12.8313 9.27061 12.8216ZM9.72296 12.7342C9.72296 12.7342 9.74625 12.7477 9.72693 12.7634C9.71336 12.7769 9.64539 12.8018 9.58702 12.8061C9.52878 12.8061 9.47643 12.8157 9.47643 12.7964C9.47643 12.7771 9.52494 12.7381 9.554 12.7284C9.55982 12.7211 9.56723 12.7152 9.57565 12.7112C9.58407 12.7072 9.5933 12.7051 9.60264 12.7051C9.62593 12.7051 9.71707 12.6954 9.74241 12.6916C9.76571 12.6876 9.78517 12.7012 9.77147 12.7206C9.76571 12.7342 9.72296 12.7342 9.72296 12.7342ZM9.85697 12.1346C9.85697 12.1346 9.82779 12.1967 9.79489 12.1967C9.76187 12.1929 9.76187 12.1831 9.76187 12.1734C9.76187 12.1598 9.79489 12.1249 9.79093 12.1152C9.78133 12.1152 9.7579 12.1152 9.76187 12.0919C9.76187 12.0724 9.79489 12.0491 9.82395 12.0535C9.84591 12.0354 9.87324 12.0252 9.90165 12.0244C9.93467 12.0244 9.96373 12.034 9.96373 12.0535C9.96373 12.0729 9.92533 12.1156 9.91125 12.1254C9.89576 12.1409 9.8763 12.151 9.85697 12.135V12.1346ZM9.41422 13.2821C9.41422 13.2821 9.37582 13.2861 9.37582 13.3054C9.37582 13.3152 9.38542 13.3152 9.39912 13.3094C9.40701 13.309 9.41482 13.3076 9.42241 13.3054C9.42625 13.3094 9.42625 13.3287 9.45544 13.3287C9.4794 13.3255 9.5025 13.3176 9.52341 13.3054C9.5467 13.2958 9.56616 13.286 9.56616 13.267C9.55643 13.234 9.53697 13.2184 9.50792 13.2184C9.49303 13.2175 9.47818 13.2208 9.46517 13.2281C9.46517 13.2281 9.45544 13.2087 9.42241 13.2281C9.38939 13.2476 9.39323 13.2476 9.40296 13.2573C9.42037 13.2728 9.41461 13.2829 9.41461 13.2829L9.41422 13.2821ZM9.19483 13.4841C9.19483 13.4744 9.24334 13.4549 9.25691 13.4608C9.27048 13.4647 9.30926 13.5384 9.30926 13.5462C9.30926 13.5559 9.26075 13.5792 9.24129 13.5792C9.22184 13.5792 9.18894 13.5462 9.18894 13.5408C9.18894 13.537 9.21224 13.5312 9.21224 13.5273C9.218 13.5177 9.19483 13.4942 9.19483 13.4845V13.4841ZM9.04123 13.2006C9.05096 13.1968 9.05096 13.187 9.06453 13.1773C9.06877 13.1745 9.07361 13.1727 9.07867 13.172C9.08373 13.1713 9.08888 13.1718 9.09371 13.1735C9.09713 13.1674 9.10187 13.1621 9.10758 13.158C9.1133 13.154 9.11984 13.1513 9.12673 13.15C9.15003 13.1462 9.16949 13.15 9.16513 13.1598C9.16513 13.189 9.18459 13.2083 9.18459 13.2316C9.18459 13.2549 9.17102 13.2841 9.12251 13.3035C9.074 13.3171 9.00795 13.3171 8.99822 13.3132C8.98849 13.3094 8.97877 13.2705 8.98849 13.251C8.99822 13.2316 9.02536 13.2103 9.04097 13.2006H9.04123Z" fill="#82764F"/>
<path fill-rule="evenodd" clip-rule="evenodd" d="M9.10138 13.2134C9.10138 13.2134 9.06836 13.2328 9.06836 13.2426C9.06543 13.252 9.06413 13.2618 9.06452 13.2716C9.06452 13.2774 9.10727 13.2678 9.11303 13.2619C9.11495 13.258 9.10138 13.2235 9.10138 13.2134Z" fill="#6E6342"/>
<path fill-rule="evenodd" clip-rule="evenodd" d="M8.81422 13.1225C8.83355 13.1264 8.86658 13.1225 8.89179 13.1322C8.91125 13.1419 8.92482 13.1614 8.90536 13.1847C8.8859 13.208 8.86696 13.2429 8.82382 13.237C8.77531 13.2332 8.72872 13.208 8.72872 13.1885C8.7279 13.1762 8.72954 13.1639 8.73354 13.1522C8.73754 13.1405 8.74382 13.1298 8.75202 13.1205C8.77147 13.105 8.78107 13.1148 8.81409 13.1225H8.81422Z" fill="#585136"/>
<path fill-rule="evenodd" clip-rule="evenodd" d="M8.7899 13.1416C8.7899 13.1416 8.72782 13.1901 8.71221 13.2135C8.69275 13.2368 8.59765 13.3572 8.56859 13.3824C8.57824 13.3653 8.58924 13.3491 8.60149 13.3339C8.56309 13.3584 8.5343 13.3954 8.51995 13.4387C8.49665 13.5106 8.65013 13.5494 8.75099 13.5786C8.85185 13.6078 8.89089 13.617 8.89089 13.617C8.85376 13.5612 8.82188 13.5021 8.79566 13.4404C8.75726 13.3491 8.73742 13.3394 8.76264 13.2966C8.78209 13.2539 8.81128 13.2248 8.81128 13.1918C8.79963 13.1611 8.7899 13.1416 8.7899 13.1416Z" fill="#574F35"/>
<path fill-rule="evenodd" clip-rule="evenodd" d="M6.57643 13.2954C6.59056 13.298 6.60505 13.298 6.61918 13.2954C6.64824 13.2914 6.95121 13.1802 7.26776 13.2002C7.50472 13.2145 7.7396 13.2531 7.96868 13.3154C8.36676 13.4202 8.86187 13.6279 9.18225 13.7465C9.26763 13.7794 9.35121 13.8377 9.41265 13.8609C9.65739 13.9561 9.66699 13.9561 9.81073 13.9813C9.97969 14.0046 10.1525 13.9483 10.3331 13.9095C10.5544 13.8609 10.933 13.8376 11.2651 13.7891C11.3724 13.7742 11.4783 13.7502 11.5816 13.7173C11.5816 13.7173 11.3175 13.9813 10.6845 14.0764C10.4286 14.1153 10.1685 14.1186 9.91172 14.0862C9.70974 14.0667 9.57585 14.0375 9.47486 14.0085C9.3603 13.9754 9.12529 13.888 8.83601 13.8165C8.63403 13.764 8.40875 13.7252 8.15057 13.6767C7.51364 13.5601 6.82244 13.4262 6.57617 13.2962L6.57643 13.2954Z" fill="#252211"/>
<path fill-rule="evenodd" clip-rule="evenodd" d="M5.86184 12.0952C5.70824 12.2253 5.5453 12.3496 5.3862 12.4699L4.90658 12.8384C4.74351 12.9587 4.58428 13.083 4.42108 13.2034C4.25788 13.3239 4.09493 13.4383 3.92188 13.549C4.07548 13.419 4.23842 13.2985 4.40149 13.1801C4.56456 13.0617 4.73365 12.9456 4.89096 12.8256L5.37058 12.4566C5.53557 12.3362 5.6948 12.212 5.86184 12.0955V12.0952ZM5.01333 13.4544C5.01333 13.4544 5.18613 13.3107 5.40168 13.1088C5.66959 12.8585 5.99778 12.538 6.10261 12.4799L5.0132 13.4546L5.01333 13.4544Z" fill="#CFB66C"/>
<path fill-rule="evenodd" clip-rule="evenodd" d="M5.01367 13.4543C5.09918 13.3689 5.19044 13.2854 5.2817 13.2038L5.42148 13.0835C5.46423 13.0451 5.51287 13.0019 5.5555 12.9592C5.64087 12.8738 5.72446 12.7824 5.80983 12.6951C5.85215 12.6512 5.89689 12.6097 5.94385 12.5708C5.96732 12.55 5.9934 12.5324 6.02142 12.5183C6.04484 12.5048 6.07006 12.4799 6.10295 12.4756C6.08362 12.5048 6.06033 12.5183 6.04087 12.5436C6.01758 12.563 5.99812 12.5863 5.97879 12.6056C5.93604 12.6484 5.88753 12.6872 5.84478 12.7261C5.75351 12.8038 5.65841 12.8797 5.56714 12.961C5.47588 13.0422 5.3905 13.1299 5.29911 13.2115C5.20017 13.295 5.1089 13.3766 5.01367 13.4547V13.4543ZM6.17489 12.6776C6.17489 12.6776 5.54193 13.2971 5.41175 13.398L6.17489 12.6776Z" fill="#CFB66C"/>
<path fill-rule="evenodd" clip-rule="evenodd" d="M6.17525 12.6777C6.11831 12.7436 6.05726 12.8059 5.99246 12.8641L5.80046 13.0466C5.73838 13.1087 5.68001 13.1709 5.61409 13.233C5.54613 13.2912 5.48405 13.3482 5.41211 13.402L5.59848 13.2194C5.66069 13.1574 5.72865 13.105 5.7947 13.0428L5.98107 12.8603C6.04507 12.7963 6.10728 12.7341 6.17525 12.6777ZM6.2043 13.0136C6.14596 13.1764 6.07721 13.3354 5.99848 13.4894C5.83541 13.8157 5.5908 14.2233 5.48392 14.4312L6.2043 13.0136Z" fill="#CFB66C"/>
<path fill-rule="evenodd" clip-rule="evenodd" d="M6.20479 13.0137C6.20479 13.0855 6.18534 13.1477 6.16204 13.2098C6.13933 13.2719 6.11344 13.3328 6.08447 13.3923C6.05529 13.4505 6.02226 13.5127 5.98924 13.5691C5.95622 13.6254 5.91743 13.6835 5.88825 13.7419L5.69215 14.0875C5.62418 14.2027 5.55814 14.3185 5.48633 14.4292C5.53484 14.3049 5.60089 14.1885 5.6631 14.0739C5.73106 13.9587 5.79314 13.8435 5.8551 13.7243C5.88534 13.6649 5.91256 13.6041 5.93663 13.5419C5.96569 13.4797 5.99474 13.4215 6.01817 13.3652C6.04722 13.3031 6.07052 13.2447 6.0997 13.1885C6.1326 13.1282 6.15986 13.07 6.20454 13.0137H6.20479Z" fill="#CFB66C"/>
<path fill-rule="evenodd" clip-rule="evenodd" d="M6.89485 14.606C6.89485 14.606 6.70285 14.8603 6.72205 15.1826C6.7744 15.0138 6.84045 14.7555 6.89485 14.606ZM7.07738 14.8609C7.07738 14.8609 7.00941 15.5521 6.95309 15.892C7.03271 15.4991 7.0482 15.5322 7.07738 14.8609ZM8.34919 15.9328C8.34919 15.9328 8.06183 16.7776 8.05594 17.0124C8.11815 16.7709 8.23847 16.2778 8.34919 15.9322V15.9328Z" fill="#DEC270"/>
<path fill-rule="evenodd" clip-rule="evenodd" d="M9.02148 14.5537C9.02148 14.5537 9.48753 15.3226 9.8371 15.9789C9.74251 15.6486 9.52491 15.0429 9.02148 14.5537Z" fill="#CBAF59"/>
<path fill-rule="evenodd" clip-rule="evenodd" d="M10.2734 15.6855C10.5293 16.1379 10.7601 16.6039 10.9646 17.0816C10.9259 16.7515 10.8209 16.1865 10.2734 15.6855Z" fill="#E3C677"/>
<path fill-rule="evenodd" clip-rule="evenodd" d="M13.9548 16.8192C14.0323 16.7707 14.1858 16.5065 14.3198 16.4405C14.4537 16.3726 14.5547 16.359 14.6751 16.225C14.7955 16.0851 14.8287 15.9997 15.0925 15.8891C15.4616 15.7298 15.2077 15.5239 15.2077 15.5239C15.2484 15.484 15.2919 15.4471 15.3378 15.4133C15.433 15.3415 15.5436 15.2541 15.534 15.1006C15.5205 14.8425 15.4719 14.4677 15.2602 14.2502C15.4661 14.2075 15.8602 14.1784 16.105 14.1163C16.3884 14.0444 16.5186 13.9434 16.5186 13.9434C16.5186 13.9434 16.3555 13.6658 16.6196 13.3862C16.8837 13.1067 17.0992 12.9396 17.2584 12.6269C17.0759 12.6036 16.7976 12.5066 16.0875 12.7764C16.1258 12.7945 16.1628 12.8152 16.1982 12.8385C16.1982 12.8385 15.7613 12.9589 15.6021 13.093C15.3244 13.3278 15.2894 13.5201 14.9885 13.6638C14.6876 13.8076 14.3846 13.7687 14.1342 13.8852C13.8838 14.0016 13.8469 14.1007 13.7555 14.1435C13.7749 14.1668 13.7516 14.2055 13.7885 14.2386C13.7652 14.2716 13.6293 14.4929 13.4914 14.4929C13.505 14.5454 13.6214 14.5842 13.6214 14.5842C13.6214 14.5842 13.5361 14.6464 13.3186 14.6619C13.4292 14.7771 13.5341 14.9026 13.8234 15.0852C13.8001 15.1337 13.703 15.2056 13.7419 15.2969C13.7846 15.3881 13.8955 15.5124 14.338 15.6134C14.1127 15.623 13.8488 15.6755 13.4932 15.627C13.1379 15.5842 13.0796 15.559 12.8602 15.6134C12.8835 15.6367 12.9456 15.6367 13 15.6988C12.9418 15.7026 12.5767 15.656 12.4524 15.8192C12.3224 15.9881 12.2661 16.2658 12.2758 16.4522C12.2078 16.4852 12.1418 16.5435 12.1748 16.6639C12.2078 16.7844 12.3806 16.8231 12.4913 16.8988C12.6019 16.9803 12.6117 17.0094 12.7166 16.99C12.8272 16.9668 12.9903 16.8562 13.0855 16.8562C13.1807 16.8562 13.2486 16.928 13.2486 16.928C13.2486 16.928 13.5069 16.8037 13.5321 16.827C13.5554 16.8503 13.5359 16.9998 13.5612 17.0231C13.5868 17.0406 13.8777 16.8678 13.9554 16.8192H13.9548Z" fill="#ECD592"/>
<path fill-rule="evenodd" clip-rule="evenodd" d="M19.5992 9.04854C18.3856 5.91459 15.3855 5.33398 15.3855 5.33398H6.8263L6.85932 8.52618H8.5639V15.6544H6.82617V18.8408H15.1486C17.1544 18.8408 18.7622 16.8252 18.7622 16.8252C21.3369 13.1709 19.599 9.04854 19.599 9.04854H19.5992ZM15.1933 14.6776C15.1933 14.6776 14.5405 15.6194 13.8302 15.6194H12.4094L12.3757 8.53398H14.1991C14.1991 8.53398 15.0439 8.71062 15.6341 10.3824C15.6341 10.3824 16.4166 12.776 15.1933 14.6776Z" fill="white" fill-opacity="0.8"/>
</g>
<defs>
<clipPath id="clip0_11907_157">
<rect width="23.9999" height="24" fill="white" transform="translate(0.998047)"/>
</clipPath>
</defs>
</svg>
