<?xml version="1.0" standalone="no"?><!DOCTYPE svg PUBLIC "-//W3C//DTD SVG 1.1//EN" "http://www.w3.org/Graphics/SVG/1.1/DTD/svg11.dtd"><svg t="1680587852002" class="icon" viewBox="0 0 1024 1024" version="1.1" xmlns="http://www.w3.org/2000/svg" p-id="8375" xmlns:xlink="http://www.w3.org/1999/xlink" width="200" height="200"><path d="M512 42.666667c258.133333 0 469.333333 211.2 469.333333 469.333333s-211.2 469.333333-469.333333 469.333333S42.666667 770.133333 42.666667 512 253.866667 42.666667 512 42.666667z m0 853.333333c211.2 0 384-172.8 384-384S723.2 128 512 128 128 300.8 128 512s172.8 384 384 384z" fill="#2F3CF4" p-id="8376"></path><path d="M512 256c93.866667 0 170.666667 76.8 170.666667 170.666667s-76.8 170.666667-170.666667 170.666666h-42.666667v128c0 23.466667-19.2 42.666667-42.666666 42.666667s-42.666667-19.2-42.666667-42.666667V298.666667c0-23.466667 19.2-42.666667 42.666667-42.666667h85.333333z m0 256c46.933333 0 85.333333-38.4 85.333333-85.333333s-38.4-85.333333-85.333333-85.333334h-42.666667v170.666667h42.666667z" fill="#2F3CF4" p-id="8377"></path></svg>