<svg width="80" height="80" viewBox="0 0 80 80" fill="none" xmlns="http://www.w3.org/2000/svg">
<path d="M40.0025 3.33301C60.1691 3.33301 76.6691 19.833 76.6691 39.9997C76.6691 60.1663 60.1691 76.6663 40.0025 76.6663C19.8359 76.6663 3.33594 60.1663 3.33594 39.9997C3.33594 19.833 19.8359 3.33301 40.0025 3.33301ZM40.0025 69.9997C56.5024 69.9997 70.0024 56.4997 70.0024 39.9997C70.0024 23.4997 56.5024 9.99967 40.0025 9.99967C23.5025 9.99967 10.0026 23.4997 10.0026 39.9997C10.0026 56.4997 23.5025 69.9997 40.0025 69.9997Z" fill="#456BF2"/>
<path d="M40 20C47.3333 20 53.3333 26 53.3333 33.3333C53.3333 40.6667 47.3333 46.6667 40 46.6667H36.6666V56.6667C36.6666 58.5 35.1667 60 33.3333 60C31.5 60 30 58.5 30 56.6667V23.3333C30 21.5 31.5 20 33.3333 20H40ZM40 40C43.6666 40 46.6666 37 46.6666 33.3333C46.6666 29.6667 43.6666 26.6667 40 26.6667H36.6666V40H40Z" fill="#456BF2"/>
</svg>
