<?xml version="1.0" encoding="UTF-8"?>
<svg id="Layer_1" data-name="Layer 1" xmlns="http://www.w3.org/2000/svg" xmlns:xlink="http://www.w3.org/1999/xlink" viewBox="0 0 500 500">
  <defs>
    <style>
      .cls-1 {
        fill: url(#linear-gradient);
      }
    </style>
    <linearGradient id="linear-gradient" x1="159.74" y1="439.19" x2="339.43" y2="68.78" gradientUnits="userSpaceOnUse">
      <stop offset=".02" stop-color="#0049ff"/>
      <stop offset=".98" stop-color="#f43178"/>
    </linearGradient>
  </defs>
  <circle cx="250" cy="250" r="225.03"/>
  <path class="cls-1" d="M338.41,222.83c-.98-12.04-11.54-21.02-23.58-20.05-6.92,.56-12.83,4.29-16.42,9.65l-74.3-42.99c0-.19,.03-.38,.01-.57-.1-1.31-.48-2.53-1.02-3.65l50.85-26.85c5.16,4.48,12.58,5.97,19.24,3.12,9.39-3.94,13.78-14.78,9.79-24.14-3.96-9.39-14.8-13.78-24.17-9.81-8.96,3.82-13.28,13.9-10.13,23.02l-46.28,33.43c-2.03-3.06-5.58-4.99-9.48-4.67-5.73,.44-10.02,5.47-9.55,11.19,.35,4.33,3.29,7.81,7.16,9.08l-21.2,74.58c-1.79-.24-3.62-.3-5.49-.15-14.15,1.14-24.69,13.54-23.54,27.66,1.15,14.18,13.51,24.69,27.69,23.56,7.09-.58,13.28-3.99,17.54-9.03l75.03,28.35c-.62,1.49-.96,3.13-.81,4.85,.14,1.84,.8,3.5,1.75,4.93l-50.11,20.16c-1.46-2-3.23-3.82-5.35-5.34-10.68-7.78-25.6-5.34-33.26,5.44-7.71,10.77-5.28,25.79,5.4,33.52,10.69,7.72,25.56,5.28,33.31-5.48,4.69-6.59,5.58-14.8,3.12-21.94l47.72-25.27c2.09,2.38,5.22,3.81,8.62,3.53,5.73-.47,9.99-5.47,9.56-11.23-.35-4.26-3.24-7.73-7.06-9.02l22.22-72.26c.89,.04,1.79,.04,2.69-.03,12.04-.98,21.01-11.53,20.04-23.6Zm-127.07-43.04c1.04,.25,2.12,.39,3.24,.3,2.74-.22,5.13-1.51,6.84-3.4l76.12,37.12c-2.09,3.68-3.14,8-2.77,12.54,.14,1.73,.5,3.39,1,4.97l-88.26,34.42c-2.88-4.47-7.11-7.94-12.05-9.92l15.89-76.02Zm81.16,138.71c-1.02-.24-2.09-.37-3.19-.28-3.41,.26-6.27,2.16-7.96,4.84l-70.57-37.03c.58-2.23,.84-4.57,.79-6.98l85.12-45.39c2.49,5.47,7.11,9.68,12.76,11.63l-16.94,73.21Z"/>
</svg>