<svg width="25" height="24" viewBox="0 0 25 24" fill="none" xmlns="http://www.w3.org/2000/svg">
<path d="M18.3523 16.4698C13.4961 16.4698 9.56092 12.5323 9.56092 7.67842C9.56092 6.08467 9.98748 4.58936 10.7305 3.30029C7.21952 4.45107 4.68359 7.75342 4.68359 11.6511C4.68359 16.5073 8.62108 20.4425 13.475 20.4425C16.7351 20.4425 19.5804 18.6659 21.0992 16.0292C20.2367 16.3128 19.3132 16.4698 18.3523 16.4698Z" fill="#D6B0F7"/>
<path d="M13.6 20.9155C11.1953 20.9155 8.93358 19.978 7.23437 18.2788C5.53281 16.5772 4.59766 14.3178 4.59766 11.9132C4.59766 9.97957 5.20234 8.13504 6.34609 6.58347C6.89687 5.83582 7.55546 5.17957 8.30546 4.63347C9.06483 4.08035 9.90155 3.65144 10.7898 3.35847C10.8742 3.33035 10.9656 3.35847 11.0195 3.42644C11.0758 3.49441 11.0828 3.59051 11.0383 3.66551C10.293 4.9616 9.89686 6.44051 9.89686 7.93816C9.89686 10.2303 10.7898 12.3843 12.4094 14.0061C14.0289 15.6257 16.1851 16.5186 18.4773 16.5186C19.389 16.5186 20.2914 16.3733 21.1585 16.0897C21.2429 16.0616 21.3343 16.0897 21.3882 16.1577C21.4445 16.2257 21.4515 16.3218 21.407 16.3968C20.6312 17.7468 19.5132 18.8764 18.1726 19.6686C16.7921 20.4819 15.2101 20.9155 13.6 20.9155ZM10.4055 3.94676C9.7492 4.20926 9.12811 4.55379 8.55155 4.97332C7.83671 5.49363 7.20859 6.11941 6.68359 6.83191C5.59375 8.31082 5.01719 10.0686 5.01719 11.9108C5.01719 14.203 5.91015 16.3569 7.52968 17.9788C9.15155 19.5983 11.3078 20.4913 13.6 20.4913C15.1351 20.4913 16.6421 20.0811 17.957 19.303C19.0773 18.6421 20.0335 17.7303 20.7507 16.6475C20.0078 16.8421 19.246 16.9405 18.475 16.9405C16.0703 16.9405 13.8086 16.003 12.1094 14.3038C10.4078 12.6022 9.47264 10.3428 9.47264 7.93816C9.47264 6.55066 9.79373 5.18191 10.4055 3.94676Z" fill="#050405"/>
<path d="M14.9059 19.7274C14.8028 19.7274 14.7137 19.6524 14.6973 19.547C14.6809 19.4321 14.7606 19.3243 14.8755 19.3056C15.1637 19.261 15.452 19.2001 15.7333 19.1181C15.8458 19.0853 15.963 19.1509 15.9958 19.2634C16.0286 19.3759 15.963 19.4931 15.8505 19.5259C15.5528 19.6103 15.2458 19.6782 14.9387 19.7251C14.927 19.7274 14.9153 19.7274 14.9059 19.7274ZM13.4833 19.7345C12.0794 19.7345 10.7177 19.3337 9.54345 18.5767C8.3997 17.8384 7.48799 16.8024 6.90674 15.5767C6.85752 15.4712 6.90205 15.3446 7.00752 15.2954C7.11299 15.2462 7.23955 15.2907 7.28877 15.3962C7.8372 16.5517 8.69736 17.529 9.77313 18.2228C10.8794 18.9353 12.1614 19.3126 13.4833 19.3126C13.6005 19.3126 13.6942 19.4063 13.6942 19.5235C13.6942 19.6407 13.6005 19.7345 13.4833 19.7345Z" fill="#050405"/>
<path d="M15.6414 7.88887L14.9641 7.1084L13.9727 6.82715L14.7578 6.1334L15.0531 5.12793L15.7305 5.9084L16.7219 6.18965L15.9367 6.8834L15.6414 7.88887Z" fill="#D6B0F7"/>
<path d="M15.6451 8.02028C15.6076 8.02028 15.5701 8.00387 15.5443 7.97574L14.8951 7.22574L13.9412 6.95387C13.8944 6.93981 13.8592 6.90231 13.8475 6.85543C13.8358 6.80856 13.8522 6.75934 13.8897 6.72653L14.6467 6.05856L14.9326 5.09059C14.9467 5.04371 14.9842 5.00856 15.0311 4.99918C15.0779 4.98981 15.1272 5.00621 15.16 5.04137L15.8092 5.79137L16.7631 6.06325C16.81 6.07731 16.8451 6.11481 16.8568 6.16168C16.8686 6.20856 16.8522 6.25778 16.8147 6.29059L16.0576 6.95856L15.7717 7.92653C15.7576 7.9734 15.7201 8.00856 15.6733 8.01793C15.6639 8.02028 15.6545 8.02028 15.6451 8.02028ZM14.2459 6.76637L15.0053 6.98199C15.0311 6.98903 15.0522 7.00309 15.0686 7.02184L15.5865 7.61949L15.8139 6.84606C15.8209 6.82262 15.835 6.80153 15.8537 6.78512L16.4584 6.25075L15.699 6.03512C15.6733 6.02809 15.6522 6.01403 15.6358 5.99528L15.1178 5.39762L14.8904 6.17106C14.8834 6.19449 14.8693 6.21559 14.8506 6.23199L14.2459 6.76637Z" fill="#050405"/>
</svg>
