<svg width="80" height="80" viewBox="0 0 80 80" fill="none" xmlns="http://www.w3.org/2000/svg">
<path d="M35.807 2.8625C38.399 1.36354 41.5925 1.36354 44.1845 2.8625L70.0094 17.7973C72.6021 19.2962 74.1986 22.0665 74.1986 25.0644V54.9337C74.1986 57.932 72.6021 60.7023 70.0094 62.2006L44.1845 77.136C41.5925 78.6344 38.399 78.6344 35.807 77.136L9.98169 62.2006C7.38969 60.7023 5.79297 57.932 5.79297 54.9337V25.0644C5.79297 22.0665 7.38969 19.2962 9.98169 17.7973L35.807 2.8625Z" fill="url(#paint0_linear_10651_50377)"/>
<path d="M49.737 31.6144C49.7586 31.3827 49.8389 31.0507 50.0984 30.7558C50.4335 30.3743 50.8702 30.2801 51.1373 30.26H55.3285C55.8256 30.26 56.2302 29.8569 56.2302 29.3581V24.6695C56.2302 24.1722 55.8271 23.7676 55.3285 23.7676H50.6402C50.1432 23.7676 49.7386 24.1706 49.7386 24.6695V28.8516C49.7232 29.0848 49.6475 29.4755 49.3325 29.8105C49.0545 30.1056 48.7195 30.2199 48.4663 30.2615H44.1473C43.6501 30.2615 43.2456 30.6646 43.2456 31.1635V35.3455C43.2301 35.5788 43.1544 35.9695 42.8394 36.3046C42.5615 36.5996 42.2264 36.7138 41.9732 36.7556H38.0079C37.7546 36.7138 37.4196 36.5996 37.1417 36.3046C36.8853 36.0328 36.788 35.7255 36.7525 35.4938V31.165C36.7525 30.6678 36.3495 30.2631 35.8508 30.2631H31.5164C31.2632 30.2214 30.9281 30.1071 30.6501 29.8122C30.3938 29.5403 30.2965 29.233 30.261 29.0013V24.6695C30.261 24.1722 29.858 23.7676 29.3593 23.7676H24.6713C24.1725 23.7676 23.7695 24.1706 23.7695 24.6695V29.3581C23.7695 29.8554 24.1725 30.26 24.6713 30.26H28.845C29.1122 30.2801 29.5491 30.3758 29.8842 30.7558C30.3027 31.2314 30.2548 31.8028 30.2455 31.8986L30.2625 31.8831V35.3425C30.2471 35.5757 30.1715 35.9664 29.8565 36.3015C29.5785 36.5965 29.2434 36.7107 28.9902 36.7524H24.6713C24.1741 36.7524 23.7695 37.1555 23.7695 37.6543V55.3292C23.7695 55.8268 24.1725 56.2313 24.6713 56.2313H29.3593C29.8565 56.2313 30.261 55.8283 30.261 55.3292V38.1069C30.2827 37.8752 30.363 37.5431 30.6224 37.2482C30.9574 36.8667 31.3944 36.7726 31.6615 36.7524H35.3381C35.6053 36.7726 36.0423 36.8683 36.3773 37.2482C36.7958 37.7239 36.7479 38.2953 36.7387 38.391L36.7556 38.3756V42.343C36.7556 42.8402 37.1586 43.2449 37.6573 43.2449H42.3454C42.8426 43.2449 43.2471 42.8418 43.2471 42.343V38.1053C43.2687 37.8736 43.349 37.5416 43.6084 37.2466C43.9435 36.8652 44.3805 36.771 44.6476 36.7509H48.3242C48.5913 36.771 49.0283 36.8667 49.3634 37.2466C49.7818 37.7223 49.734 38.2937 49.7247 38.3895L49.7417 38.374V55.3277C49.7417 55.8253 50.1447 56.2298 50.6433 56.2298H55.3315C55.8287 56.2298 56.2332 55.8268 56.2332 55.3277V37.6543C56.2332 37.1571 55.8302 36.7524 55.3315 36.7524H50.997C50.7439 36.7107 50.4088 36.5965 50.1308 36.3015C49.8745 36.0297 49.7772 35.7223 49.7417 35.4907V31.6128L49.737 31.6144Z" fill="white"/>
<defs>
<linearGradient id="paint0_linear_10651_50377" x1="21.1552" y1="12.4629" x2="40.0639" y2="74.4708" gradientUnits="userSpaceOnUse">
<stop stop-color="#0F51FB"/>
<stop offset="0.444764" stop-color="#6324FB"/>
<stop offset="1" stop-color="#EF3678"/>
</linearGradient>
</defs>
</svg>
