<svg width="25" height="24" viewBox="0 0 25 24" fill="none" xmlns="http://www.w3.org/2000/svg">
<g clip-path="url(#clip0_10715_34853)">
<circle cx="12.998" cy="12" r="12" fill="url(#paint0_linear_10715_34853)"/>
<path d="M15.9153 9.48442C15.9217 9.41491 15.9458 9.31531 16.0236 9.22682C16.1242 9.11238 16.2552 9.08412 16.3353 9.0781H17.5927C17.7418 9.0781 17.8632 8.95718 17.8632 8.80753V7.40094C17.8632 7.25176 17.7423 7.13037 17.5927 7.13037H16.1862C16.0371 7.13037 15.9157 7.25129 15.9157 7.40094V8.65556C15.9111 8.72553 15.8884 8.84275 15.7939 8.94326C15.7105 9.03177 15.61 9.06605 15.534 9.07855H14.2383C14.0892 9.07855 13.9678 9.19947 13.9678 9.34913V10.6038C13.9632 10.6737 13.9405 10.7909 13.846 10.8915C13.7626 10.98 13.6621 11.0143 13.5861 11.0268H12.3965C12.3205 11.0143 12.22 10.98 12.1366 10.8915C12.0597 10.8099 12.0305 10.7177 12.0199 10.6482V9.3496C12.0199 9.20042 11.899 9.07902 11.7494 9.07902H10.4491C10.3731 9.06652 10.2726 9.03223 10.1892 8.94374C10.1123 8.86219 10.0831 8.76999 10.0725 8.7005V7.40094C10.0725 7.25176 9.95155 7.13037 9.80192 7.13037H8.39554C8.24591 7.13037 8.125 7.25129 8.125 7.40094V8.80753C8.125 8.95671 8.24591 9.0781 8.39554 9.0781H9.64765C9.72779 9.08412 9.85888 9.11285 9.95941 9.22682C10.085 9.36951 10.0706 9.54094 10.0678 9.56968L10.0729 9.56503V10.6028C10.0683 10.6728 10.0456 10.79 9.95108 10.8905C9.86768 10.979 9.76717 11.0133 9.6912 11.0258H8.39554C8.24637 11.0258 8.125 11.1467 8.125 11.2964V16.5989C8.125 16.7481 8.24591 16.8695 8.39554 16.8695H9.80192C9.95108 16.8695 10.0725 16.7486 10.0725 16.5989V11.4322C10.0789 11.3627 10.103 11.263 10.1809 11.1746C10.2814 11.0601 10.4125 11.0319 10.4926 11.0258H11.5956C11.6757 11.0319 11.8068 11.0606 11.9073 11.1746C12.0329 11.3173 12.0185 11.4887 12.0157 11.5174L12.0208 11.5128V12.703C12.0208 12.8522 12.1417 12.9736 12.2913 12.9736H13.6978C13.8469 12.9736 13.9683 12.8527 13.9683 12.703V11.4317C13.9747 11.3622 13.9988 11.2626 14.0767 11.1741C14.1772 11.0597 14.3083 11.0314 14.3884 11.0254H15.4914C15.5715 11.0314 15.7026 11.0601 15.8032 11.1741C15.9287 11.3168 15.9143 11.4882 15.9115 11.5169L15.9166 11.5123V16.5984C15.9166 16.7477 16.0375 16.869 16.1871 16.869H17.5936C17.7427 16.869 17.8641 16.7481 17.8641 16.5984V11.2964C17.8641 11.1472 17.7432 11.0258 17.5936 11.0258H16.2932C16.2173 11.0133 16.1168 10.979 16.0334 10.8905C15.9565 10.809 15.9273 10.7168 15.9166 10.6473V9.48394L15.9153 9.48442Z" fill="white"/>
</g>
<defs>
<linearGradient id="paint0_linear_10715_34853" x1="6.38788" y1="3.36365" x2="11.7815" y2="23.1498" gradientUnits="userSpaceOnUse">
<stop stop-color="#0F51FB"/>
<stop offset="0.444764" stop-color="#6324FB"/>
<stop offset="1" stop-color="#EF3678"/>
</linearGradient>
<clipPath id="clip0_10715_34853">
<rect width="23.9999" height="24" fill="white" transform="translate(0.998047)"/>
</clipPath>
</defs>
</svg>
