<svg width="80" height="80" viewBox="0 0 80 80" fill="none" xmlns="http://www.w3.org/2000/svg">
<path d="M57.8553 54.8984C41.6679 54.8984 28.5507 41.7734 28.5507 25.5938C28.5507 20.2813 29.9726 15.2969 32.4492 11C20.7461 14.8359 12.293 25.8438 12.293 38.8359C12.293 55.0234 25.4179 68.1406 41.5976 68.1406C52.4647 68.1406 61.9491 62.2187 67.0115 53.4297C64.1366 54.375 61.0584 54.8984 57.8553 54.8984Z" fill="#D6B0F7"/>
<path d="M42.0077 69.7182C33.9921 69.7182 26.4531 66.5932 20.789 60.9291C15.1172 55.2572 12 47.726 12 39.7104C12 33.2651 14.0156 27.1166 17.8281 21.9448C19.664 19.4526 21.8593 17.2651 24.3593 15.4448C26.8906 13.601 29.6796 12.1713 32.6406 11.1948C32.9218 11.101 33.2265 11.1948 33.4062 11.4213C33.5937 11.6479 33.6171 11.9682 33.4687 12.2182C30.9843 16.5385 29.664 21.4682 29.664 26.4604C29.664 34.101 32.6406 41.2807 38.039 46.6869C43.4374 52.0854 50.6249 55.0619 58.2655 55.0619C61.3045 55.0619 64.3123 54.5776 67.203 53.6322C67.4842 53.5385 67.7889 53.6322 67.9686 53.8588C68.1561 54.0854 68.1795 54.4057 68.0311 54.6557C65.4452 59.1557 61.7186 62.9213 57.2499 65.5619C52.6483 68.2729 47.3749 69.7182 42.0077 69.7182ZM31.3593 13.1557C29.1718 14.0307 27.1015 15.1791 25.1796 16.5776C22.7968 18.3119 20.7031 20.3979 18.9531 22.7729C15.3203 27.7026 13.3984 33.5619 13.3984 39.7026C13.3984 47.3432 16.375 54.5229 21.7734 59.9291C27.1796 65.3276 34.3671 68.3041 42.0077 68.3041C47.1249 68.3041 52.1483 66.9369 56.5311 64.3432C60.2655 62.1401 63.453 59.101 65.8436 55.4916C63.367 56.1401 60.828 56.4682 58.2577 56.4682C50.2421 56.4682 42.703 53.3432 37.039 47.6791C31.3671 42.0072 28.25 34.476 28.25 26.4604C28.25 21.8354 29.3203 17.2729 31.3593 13.1557Z" fill="#050405"/>
<path d="M46.3674 65.7581C46.0237 65.7581 45.7268 65.5081 45.6721 65.1566C45.6174 64.7738 45.8831 64.4144 46.2659 64.3519C47.2268 64.2035 48.1877 64.0003 49.1252 63.7269C49.5002 63.6175 49.8909 63.8363 50.0002 64.2113C50.1096 64.5863 49.8909 64.9769 49.5159 65.0863C48.5237 65.3675 47.5002 65.5941 46.4768 65.7503C46.4377 65.7581 46.3987 65.7581 46.3674 65.7581ZM41.6253 65.7816C36.9456 65.7816 32.4065 64.4456 28.4925 61.9222C24.68 59.4613 21.6409 56.0081 19.7034 51.9222C19.5394 51.5706 19.6878 51.1488 20.0394 50.9847C20.3909 50.8206 20.8128 50.9691 20.9769 51.3206C22.805 55.1722 25.6722 58.43 29.2581 60.7425C32.9456 63.1175 37.219 64.3753 41.6253 64.3753C42.0159 64.3753 42.3284 64.6878 42.3284 65.0784C42.3284 65.4691 42.0159 65.7816 41.6253 65.7816Z" fill="#050405"/>
<path d="M48.8242 26.2959L46.5664 23.6943L43.2617 22.7568L45.8789 20.4443L46.8633 17.0928L49.1211 19.6943L52.4258 20.6318L49.8086 22.9443L48.8242 26.2959Z" fill="#D6B0F7"/>
<path d="M48.8249 26.7343C48.6999 26.7343 48.5749 26.6796 48.489 26.5858L46.3249 24.0858L43.1452 23.1796C42.989 23.1327 42.8718 23.0077 42.8327 22.8514C42.7937 22.6952 42.8484 22.5311 42.9734 22.4218L45.4968 20.1952L46.4499 16.9686C46.4968 16.8124 46.6218 16.6952 46.778 16.6639C46.9343 16.6327 47.0984 16.6874 47.2077 16.8046L49.3718 19.3046L52.5515 20.2108C52.7077 20.2577 52.8249 20.3827 52.864 20.5389C52.903 20.6952 52.8483 20.8593 52.7233 20.9686L50.1999 23.1952L49.2468 26.4218C49.1999 26.578 49.0749 26.6952 48.9187 26.7264C48.8874 26.7343 48.8562 26.7343 48.8249 26.7343ZM44.1609 22.5546L46.6921 23.2733C46.778 23.2968 46.8484 23.3436 46.903 23.4061L48.6296 25.3983L49.3874 22.8202C49.4108 22.7421 49.4577 22.6718 49.5202 22.6171L51.5358 20.8358L49.0046 20.1171C48.9187 20.0936 48.8483 20.0468 48.7937 19.9843L47.0671 17.9921L46.3093 20.5702C46.2859 20.6483 46.239 20.7186 46.1765 20.7733L44.1609 22.5546Z" fill="#050405"/>
</svg>
