<?xml version="1.0" encoding="UTF-8" standalone="no"?>
<!DOCTYPE svg PUBLIC "-//W3C//DTD SVG 1.1//EN" "http://www.w3.org/Graphics/SVG/1.1/DTD/svg11.dtd">
<svg width="100%" height="100%" viewBox="0 0 556 556" version="1.1" xmlns="http://www.w3.org/2000/svg" xmlns:xlink="http://www.w3.org/1999/xlink" xml:space="preserve" xmlns:serif="http://www.serif.com/" style="fill-rule:evenodd;clip-rule:evenodd;stroke-linejoin:round;stroke-miterlimit:2;">
    <circle cx="278.194" cy="279.761" r="272" style="fill:rgb(54,31,60);"/>
    <g transform="matrix(0.759396,0,0,0.759396,70.3116,91.2665)">
        <g>
            <g>
                <g>
                    <g>
                        <g>
                            <path d="M278.38,56.069C413.08,56.069 522.44,165.429 522.44,300.129C522.44,434.829 413.08,544.189 278.38,544.189C143.68,544.189 34.32,434.829 34.32,300.129C34.32,165.429 143.68,56.069 278.38,56.069Z" style="fill:rgb(255,0,255);fill-opacity:0.15;"/>
                            <path d="M551.38,313.969C551.38,313.969 536.27,325.529 514.42,327.159C513.88,327.199 513.35,327.239 512.81,327.249C512.81,327.249 487.53,308.829 464.64,308.829C441.74,308.829 425.62,331.729 411.92,341.819C398.24,351.899 376.57,367.179 355.41,367.179C334.25,367.179 300.7,355.729 278.38,355.729C256.06,355.729 222.51,367.179 201.35,367.179C180.19,367.179 158.53,351.909 144.83,341.819C131.13,331.729 115.01,308.829 92.13,308.829C69.25,308.829 43.96,327.249 43.96,327.249C43.42,327.229 42.89,327.189 42.35,327.159C20.48,325.529 5.37,313.969 5.37,313.969C14.22,294.419 43.38,285.239 43.38,285.239C23.81,273.659 16.35,257.449 16.35,257.449C34.96,251.639 53.68,257.209 54.47,257.429C-2.43,104.249 44.46,4.139 44.46,4.139C115.15,0.339 208.34,99.399 208.34,99.399C245.02,86.189 278.38,86.519 278.38,86.519C278.38,86.519 311.72,86.179 348.42,99.399C348.42,99.399 441.6,0.329 512.3,4.139C512.3,4.139 559.19,104.259 502.29,257.429C503.06,257.209 521.78,251.639 540.41,257.449C540.41,257.449 532.95,273.659 513.38,285.239C513.39,285.229 542.55,294.419 551.38,313.969Z" style="fill:rgb(247,157,10);"/>
                            <path d="M241.67,92.809C241.67,92.809 243.17,71.839 255.4,57.559C267.64,43.279 277.14,37.389 293.34,32.969C293.34,32.969 295.62,50.799 281.7,69.929C281.7,69.929 297.76,63.759 313.96,72.329C313.96,72.329 300.31,88.659 284.78,92.279C269.24,95.889 241.67,92.809 241.67,92.809Z" style="fill:rgb(247,157,10);"/>
                            <path d="M167.54,117.049C159.22,121.419 151.61,126.439 144.68,131.949C118.82,152.429 102.21,179.419 91.79,202.849C79.14,231.279 75.58,254.459 75.58,254.459C26.33,140.619 57.51,31.939 57.51,31.939C116.94,39.189 167.54,117.049 167.54,117.049Z" style="fill:white;"/>
                            <path d="M144.67,131.949C118.81,152.429 102.2,179.419 91.78,202.849C57.58,137.629 71.03,58.539 71.03,58.539C114.15,74.339 144.31,131.009 144.31,131.009L144.67,131.949Z" style="fill:rgb(248,123,4);"/>
                            <path d="M389.23,117.049C397.55,121.419 405.16,126.439 412.09,131.949C437.95,152.429 454.56,179.419 464.98,202.849C477.63,231.279 481.19,254.459 481.19,254.459C530.44,140.619 499.26,31.939 499.26,31.939C439.84,39.189 389.23,117.049 389.23,117.049Z" style="fill:white;"/>
                            <path d="M412.1,131.949C437.96,152.429 454.57,179.419 464.99,202.849C499.19,137.629 485.74,58.539 485.74,58.539C442.62,74.339 412.46,131.009 412.46,131.009L412.1,131.949Z" style="fill:rgb(248,123,4);"/>
                            <path d="M526.27,352.909C526.27,352.909 518.53,357.799 498.78,353.489C498.78,353.489 471.32,464.249 317.47,508.259C291.91,515.569 264.86,515.569 239.32,508.259C85.46,464.249 58.01,353.489 58.01,353.489C38.26,357.799 30.5,352.909 30.5,352.909C31.53,339.579 38.9,330.639 42.36,327.159C42.9,327.199 43.43,327.239 43.97,327.249C43.97,327.249 69.25,308.829 92.14,308.829C115.02,308.829 131.14,331.729 144.84,341.819C158.54,351.909 180.21,367.179 201.36,367.179C222.51,367.179 256.07,355.729 278.39,355.729C300.71,355.729 334.26,367.179 355.42,367.179C376.58,367.179 398.24,351.909 411.93,341.819C425.63,331.739 441.75,308.829 464.65,308.829C487.53,308.829 512.82,327.249 512.82,327.249C513.36,327.229 513.89,327.189 514.43,327.159C517.89,330.649 525.25,339.589 526.27,352.909Z" style="fill:rgb(253,244,234);"/>
                            <path d="M195.753,162.137C208.259,153.323 229.088,161.316 242.239,179.975C255.39,198.634 255.914,220.939 243.408,229.752C230.903,238.566 210.073,230.573 196.922,211.914C183.772,193.255 183.248,170.951 195.753,162.137Z" style="fill:white;"/>
                            <path d="M314.535,179.94C327.686,161.281 348.516,153.288 361.021,162.102C373.527,170.916 373.003,193.22 359.852,211.879C346.701,230.538 325.872,238.531 313.366,229.717C300.861,220.904 301.385,198.599 314.535,179.94Z" style="fill:white;"/>
                            <path d="M272.29,493.649C260.68,492.049 250.44,486.959 243.51,479.359C237.78,473.079 234.08,465.059 233.46,457.589C233.276,455.816 233.22,454.036 233.146,452.256C243.761,449.897 268.105,447.86 277.955,439.869C291.277,445.259 306.68,448.659 323.67,450.679C323.809,452.983 323.586,455.297 323.4,457.599C322.64,466.809 317.15,476.799 309.32,483.219C299.35,491.369 285.04,495.409 272.29,493.649L272.29,493.649Z" style="fill:rgb(253,163,163);"/>
                            <path d="M224.09,319.519C224.09,319.519 228.62,308.189 212.08,282.969C198.32,261.979 178.05,250.979 153.33,248.869C128.61,246.759 114.15,265.939 117.67,285.159C117.67,285.159 121.9,269.759 147.25,264.579C172.59,259.409 218.67,279.129 224.09,319.519Z" style="fill:white;"/>
                            <path d="M332.67,319.519C332.67,319.519 328.14,308.189 344.68,282.969C358.44,261.979 378.71,250.979 403.43,248.869C428.15,246.759 442.61,265.939 439.09,285.159C439.09,285.159 434.86,269.759 409.51,264.579C384.17,259.409 338.09,279.129 332.67,319.519Z" style="fill:white;"/>
                            <path d="M225.11,453.809C215.97,453.199 206.79,450.779 199.03,446.949C189.85,442.419 182.99,436.479 177.67,428.479C172.76,421.079 170.12,413.219 169.3,403.539C168.9,398.849 169.27,393.259 170.08,391.679C170.59,390.689 171.74,390.099 172.61,390.379C173.92,390.799 174.09,391.619 174.33,398.799C174.58,406.099 174.8,407.879 175.95,412.189C182.35,435.989 206.16,450.549 235.93,448.849C248.37,448.139 261.54,444.669 273.21,439.009C275.01,438.139 275.59,437.699 275.88,436.999C276.38,435.769 276.68,419.069 276.21,418.719C266.442,415.249 256.064,409.661 248.69,403.819C240.313,397 225.338,380.743 227.83,370.439C228.54,367.869 231.87,363.739 235.53,360.909C258.841,345.415 300.759,346.008 321.19,360.909C324.85,363.749 328.18,367.869 328.89,370.439C330.23,375.289 327.51,382.579 321.39,390.499C318.8,393.849 312,400.629 308.03,403.819C299.401,410.778 290.2,414.87 280.53,418.709C280.07,419.049 280.35,435.799 280.84,436.999C281.25,437.999 283.13,439.019 289.25,441.549C330.47,458.579 371.87,445.299 380.77,412.189C381.93,407.889 382.14,406.109 382.39,398.799C382.64,391.619 382.81,390.799 384.11,390.379C384.98,390.099 386.13,390.699 386.64,391.679C387.45,393.249 387.82,398.839 387.42,403.539C386.41,415.569 382.27,425.569 374.71,434.239C368.84,440.969 359.48,446.999 350.05,450.119C342.14,452.739 335.7,453.789 326.09,454.009C321.01,454.129 319.04,454.049 315.02,453.549C301.983,452.064 289.529,448.438 278.35,442.359C273.854,444.559 268.688,446.732 265.64,447.869C252.45,452.779 239.02,454.739 225.11,453.809ZM333.71,322.359C332.92,321.679 332.89,321.559 332.93,319.059C333,314.709 334.81,308.359 337.56,302.829C344.74,288.419 358.19,276.039 373.95,269.329C391.13,262.019 409.99,262.009 423.6,269.309L426.04,270.619L427.55,269.849C432.72,267.219 438.5,259.499 440.6,252.399C441.58,249.069 441.85,249.149 441.67,252.689C441.25,260.679 437.58,267.599 431.24,272.369L430.22,273.139L435.96,278.779C443.387,278.199 450.375,274.327 454.54,268.529C456.9,265.149 457.28,264.679 457.55,264.849C457.96,265.109 456.58,268.579 455.01,271.239C450.969,277.704 445.567,281.959 438.69,283.079C440.591,289.045 436.585,293.377 431.68,293.139C430.31,293.139 426.75,292.469 424.67,291.819C419.03,290.049 412.76,289.209 405.38,289.229C398.17,289.249 393.64,289.839 386.53,291.659C375.42,294.509 365.94,298.669 356.99,304.619C351.16,308.499 347.04,311.949 341.6,317.509C337.54,321.669 335.84,323.049 334.82,323.049C334.66,323.069 334.16,322.749 333.71,322.359ZM220.65,322.649C220.17,322.429 217.7,320.129 215.16,317.529C212.62,314.929 209.08,311.609 207.28,310.139C200.87,304.879 191.7,299.379 184.11,296.229C177.46,293.469 168.52,290.949 161.6,289.889C152.33,288.479 140.26,289.269 132.08,291.839C129.99,292.489 126.43,293.169 125.07,293.159C117.164,292.537 116.944,286.733 118.06,283.099L116.31,282.699C110.022,281.246 104.588,276.257 101.74,271.259C100.17,268.609 98.79,265.129 99.2,264.869C99.47,264.699 99.85,265.169 102.21,268.549C106.66,274.146 112.364,277.853 119.13,278.619L120.79,278.799C122.703,276.919 124.617,275.039 126.53,273.159L125.51,272.389C119.17,267.619 115.5,260.689 115.08,252.709C114.89,249.159 115.16,249.089 116.15,252.419C118.25,259.519 124.03,267.239 129.2,269.869L130.71,270.639L133.15,269.329C146.76,262.029 165.62,262.029 182.8,269.349C198.56,276.059 212.01,288.439 219.19,302.849C221.95,308.379 223.76,314.729 223.82,319.079C223.86,321.569 223.83,321.689 223.04,322.379C222.11,323.169 221.87,323.199 220.65,322.649Z" style="fill:rgb(5,4,3);"/>
                            <g>
                                <g>
                                    <path d="M111.714,378.986C111.104,378.448 110.789,378.149 110.281,377.989C108.971,377.627 100.16,379.395 96.638,380.506C77.793,386.452 61.855,398.204 51.203,414.002C40.438,429.969 36.406,447.178 39.497,463.961C39.884,466.057 40.368,468.325 40.573,468.997L40.576,468.995C40.781,469.668 41.31,471.24 41.752,472.486C42.491,474.567 42.668,474.834 43.91,475.75C47.81,478.625 59.915,481.694 72.329,482.956C85.358,484.28 91.482,484.24 98.429,482.782L102.503,481.924C103.706,483.543 104.089,484.207 106.562,486.369C108.636,488.206 109.503,488.544 111.545,489.783L111.267,493.939C110.791,501.022 111.603,507.089 114.731,519.807C117.711,531.925 122.438,543.485 125.828,546.946C126.909,548.049 127.198,548.187 129.361,548.628C130.656,548.892 132.287,549.197 132.982,549.307L132.982,549.312C133.677,549.421 135.987,549.583 138.117,549.673C155.165,550.394 171.643,544.002 185.953,531.115C200.111,518.365 209.525,500.943 212.785,481.452C213.395,477.809 213.851,468.684 213.375,467.592C212.719,466.08 207.835,462.955 203.22,460.613C185.837,451.789 164.666,450.03 150.081,456.197C148.491,456.869 147.089,457.413 146.965,457.405C145.158,453.606 143.871,451.205 140.048,447.856C135.809,444.261 132.754,443.332 129.626,442.335C129.6,442.214 129.944,440.749 130.388,439.081C134.461,423.778 129.77,403.061 118.609,387.076C116.411,384.306 114.31,381.323 111.714,378.987L111.714,378.986Z" style="fill:rgb(248,101,176);"/>
                                </g>
                            </g>
                        </g>
                    </g>
                </g>
            </g>
        </g>
    </g>
</svg>
